<?xml version="1.0" encoding="utf-8"?>
<!-- Generator: Adobe Illustrator 16.0.0, SVG Export Plug-In . SVG Version: 6.00 Build 0)  -->
<!DOCTYPE svg PUBLIC "-//W3C//DTD SVG 1.1//EN" "http://www.w3.org/Graphics/SVG/1.1/DTD/svg11.dtd">
<svg version="1.1" id="レイヤー_1" xmlns="http://www.w3.org/2000/svg" xmlns:xlink="http://www.w3.org/1999/xlink" x="0px"
	 y="0px" width="1000px" height="1000px" viewBox="0 0 1000 1000" enable-background="new 0 0 1000 1000" xml:space="preserve">
<path id="cv0_0" fill="#000010" stroke="#446EA2" d="M660,569v-1h-1v-1h-1l-1-1v1h-1v1v1h1v1v1h1v-1h1h1V569"/>
<path id="cv1_0" fill="#000010" stroke="#446EA2" d="M660,569l1,1v1h1v1v1h1v1h-1v1v1h-1v-1v1h-1v1v1v1h-1h1v1h1v1v1v1h1v1l-1,1h1
	h-1v1v1v1v1h1h1v1v1v1h1h1v1l1,1v1h-1v1v1v1h-1v1h-1v1h-1h1h-1h1v1v1h1v1h1h1v1h1v1h1v1v1h-1v1h-1v-1h-1h-1h-1h-1v1v1v1v1h1l1,1h1h1
	l1,1h1l1,1v1v1h-1v1h-1v1l1,1h1h1v1h1v1h1h1h1h1v-1h1h1v1h1h1h1v-1v-1h-1v-1l-1-1h-1v-1l-1-1l-1-1v-1l1-1l1,2l2-1l1,1l1-1h2l1-1v2v1
	v-1h1h-1h5h1h1v-1h1v1v-1h1l1,1h1h1h1v1v-1v-1v-1v-1v-1v-1l1-1v-1v-1h-1h-1h-1h-1v-1v-1v-1l-1-1l-1-1h1h1v-1h-1v-1h-1l1-1h1v-1h1v-1
	h-1l1-1h-1h1v-1v-1v-1h-1v-1h1v-1v-1v-1v-1v-1l-1-1h-1v-1l-1-1v-1v-1v-1v-1l1-1v-1h1v-1h1v-1v-1v-1v-1v-1h-1v-1v-1v-1v-1h-1h-1v-1
	h-1v-1h-1v-1h-1v-1v-1h-1v-1l-1-1h-1h-1l-1,1h-1l-1,1h-1h-1h-1v-1h-1h-1v1h-1v1h-1h-1v1h-1v1h-1v1v1v1v1h-1v1h-1h-1v1v1v1v1v1v1v-1
	l1,1h-1v-1v-1v-1h-1v-1h-1v-1h1v-1h-1v-1h-1v-1h-1v1h-1v-1h-1v1v1l-1-1h-1H660"/>
<path id="cv2_0" fill="#000010" stroke="#446EA2" d="M706,544l-1-1h-1v1h-1h-1v1h-1v1h-1h-1l-1,1l-1,1h-1h-1v1v-1v-1h-1h-1h-1h-1h-1
	v-1v1h-1h-1h-1v1h1v1h1v1v1v-1l1,1h-1h1h-1l1,1h-1v1h1v1l1,1v1h1v1h1v1l1,1v1v1v1v1v1v1v1v1v1v1v1v1h1v1v1v1v1v1h-1v1h-1v1l-1,1v1v1
	v1v1l1,1v1h1h1v1h1v-1h1h1v1l1-1v-1h1h1h1h2v-1v-1v-1h1v-1h1h1l1-1v1v1v1l1,1v1l1-1h2v-1l1-2l1-1h1l1-1h1h1l1-1h1v-1v1v1v1h1h1l1-1
	v-1h1h1h-1v-1v-1v-1v-1v-1v-1v-1v-1v-1v-1v-1v-1h-1l-1-1l-1-1h-1v1v-1h-1v-1l-1-1l-1-1l-1-1v-1h-1v-1h-1l-1-1l-1-1v-1v-1h-1v-1v-1
	l-1-1v-1v-1h-1v-1v1v-1l-1-1v-1h-1v-1h1h-1H706"/>
<path id="cv3_0" fill="#000010" stroke="#446EA2" d="M720,579v-1v-1v-1v1h-1l-1,1h-1h-1l-1,1h-1l-1,1l-1,2v1h-2l-1,1v-1l-1-1v-1v-1
	v-1l-1,1h-1h-1v1h-1v1v1v1h-2h-1h-1h-1v1l-1,1v-1h-1h-1v1h-1v-1h-1l1,1v1v1v1v1v1h-1v1h1v1v1v1h-1h1l-1,1h1v1h-1v1h-1l-1,1h1v1h1v1
	h-1h-1l1,1l1,1v1v1v1h1h1h1h1v1v1v-1h1v-1h1v-1v-1v-1v-1v-1h1h2h1v1h1h1h1h1h1v1h1h1l-1-2h-1l1-1h-1v-2v-1v-1h1l1,1l1-1h1v1v1l1,1v1
	v1l1-1l-1-1h1l1,1v1h1v1h1v1h1h-1v1l1,1l1,1l1,1l1-1v-1v1h1v-1h1v-1h1v-1h1h-1v1v1h-1h1v1v1h1v-1h1v-1h-1v-1v-1h1h-1v-1v-1v-1v-2
	l-2,1v-1h1v-1h1v-1h1h1h1v-1h-1v-1v-1v-1v-1v-1l-1-1h2v-1h-1h-1v-1v-1h-1v-1v-1h-1v-1v-1v-1v-1v-1h-1v-1h-1l-1,1h-1H720"/>
<path id="cv4_0" fill="#000010" stroke="#446EA2" d="M740,544h-1h-1h-1h-1h-1v1h-1h-1h-1h-1v1h1h-1v1v-1v-1h-1h-1h-1v1h-1l1,1v1v1
	h-1v1v1h1v1h-1v1h-1v1h-1h1v1h-1h-1v1l-1-1v-1v-1h-1h-1h-1v-1h-1v1h-1h-1h-1h-1v1h-1h-1h-1v1l1,1l1,1h1v1h1v1l1,1l1,1l1,1v1h1v1v-1
	h1l1,1l1,1h1v1v1v1v1v1v1v1v1v1v1v1v1h1h-1h-1v1h1v1h1v1v1v1v1v1h1v1v1h1v1v1h1h1v1h-2l1,1v1v1v1v1v1h1v1h-1v1v1v1h1l1,1h-1h1v2h1h1
	h1l1,1h2v-1v-1v-1h1l1-1h1h1v-1h-1h1v-1l1,1h-1h1v1h1v1h4h1l1,1l-1,1h1v1h2h1h1h1v-1l2-1h2l2,1v1h1h2v1h1v-1v-1v-1v-1v-1v-1h-1v-1
	v-1h-1v-1h-1v-1l-1-1l-1-1h1h-1h1v-1h-1v-1v-1v-1h-1h1v-1l1-1l-1-1v-1h-1l2-1v-1v1l1,1l1,1l1-1v1h1l-1-1h-1v-1h-1v-1v-1v-1v-1h-1v-1
	v-1v-1h-1l-1-1v-1v-1h-1v-1h-1h-1v-1h-1l-1-1h-1v-1h-1v-1h1v-1v-1h-1v-1h-1l1-1v-1h-1h1v-1h-1v-1h1v-1h-1h1h-1v-1v-1h1v-1l-1-1l-1-1
	h-1v-1v1h-1v-1h1v-1h-1v-1v-1l-1-1h-1v-1v-1v-1h-1h-1h-1v-1h1v-1h-1v1h-1l1-1h-1h-1h1V544"/>
<path id="cv5_0" fill="#000010" stroke="#446EA2" d="M710,596h-1v1v1v2h1l-1,1h1l1,2h-1h-1v-1h-1h-1h-1h-1h-1v-1h-1h-2h-1v1v1v1v1v1
	h-1v1h-1h1h1h1v1v1h1v1h1h-1v1h-1v1h-1h-1v1v1v1v1v-1h1v1h1h1h1h1h1v1v1h1h-1l1,1v1h1v1v1h1v1h1h1v-1v1l-1-1h1v-1v-1v1v-1l1,1h1v1h1
	h-1v1v1h1v1h1v1h1v-1v1h1h1v1v1h1h1v1l1,1v1h1l1,1v1v1v1h1v-1v-1h-1h1v-1v-1v-1v-2v-1v-1l1-1h1v-1h1h1v-1h-1v1h-1h-1h-1v-1v-1l-1-1
	v1l-1-1v-1v-1v-1v-1v-1v-2v-1h-1h1l1-1h1v-1h-1h-1v-1l-1-2h-1h-1v-1v-1v1h1v1h1v-1v-1l-1-1l-1-1v-1h1h-1v-1h-1v-1h-1v-1l-1-1h-1l1,1
	l-1,1v-1v-1l-1-1v-1v-1h-1l-1,1L710,596"/>
<path id="cv6_0" fill="#000010" stroke="#446EA2" d="M699,607h-1v1l-1,1v1v1v1v1v1v1v-1h-1h-1h-1l-1-1h-1v1v-1h-1v1h-1h-1h-5h1h-1v1
	v-1v-2l-1,1h-2l-1,1l-1-1l-2,1l-1-2l-1,1v1l1,1l1,1v1h1l1,1v1h1v1v1v1v1l1,1v1v1v1h1v1h1v1h1h1v1h1l1,1l1,1v1h1v1v1v1l1,1h1v1h1l1,1
	h1v1v1h1v1h1v1h1h1h1v1h1v1v1v1h-1v1h1v1v1h1v1v1h1v1l1,1v-1v-1h1v-1h1h1h1v1l2-1l1-1h1h1l1-1v-1h1h1h1h1h1v-1h-1h1l2-1v-1h-1v-1v-1
	v-1v-1l-1-1v-1v-1v-1h1v-1h1v-1h1v-1v-1l-1-1v-1v-1l-1-1v-1h-1h-1v-1v-1h-1h-1v-1v1h-1v-1h-1v-1h-1v-1v-1h1h-1v-1h-1l-1-1v1v-1v1v1
	h-1l1,1v-1v1h-1h-1v-1h-1v-1v-1h-1v-1l-1-1h1h-1v-1v-1h-1h-1h-1h-1h-1v-1h-1v1v-1v-1v-1v-1h1h1v-1h1v-1h1h-1v-1h-1v-1v-1h-1H699"/>
<path id="cv7_0" fill="#000010" stroke="#446EA2" d="M718,608h1h1l1,2v1h1h1v1h-1l-1,1h-1h1v1v2v1v1v1v1v1l1,1v-1l1,1v1v1h1h1h1v-1
	h1v1h-1h-1v1h-1l-1,1v1v1v2v1v1h1h1v1h1v1v1l1-1h1v1h1v2v1v1h2h1h1l1,1v1l1,1v-1h1h2v-1h1v-1v-1h1v-1v-1h1l-1-1h1h-1v-1v-1v-1h-1h1
	v-1h1l-1-1v-1v-1v-1l-1-1v-1v-1v-1l1-1v-1h1v-1l-1-1l1-1v-1h-1v-1v-1h1v-1l-1-1h1h1l-1-1h1l-1-1v-1h-1v-1h-1v-1v-1h-1v-1v-1v-1h1v-1
	v-1l-1,1h-1h-1h-2l-1-1h-1h-1h-1v-2h-1h1l-1-1h-1v-1v-1v-1h-1h-1v1h-1v1h-1v1l2-1v2v1v1v1h1h-1v1v1h1v1h-1v1h-1v-1v-1h-1h1v-1v-1h1
	h-1v1h-1v1h-1v1h-1v-1v1l-1,1l-1-1v1v1h-1v-1h-1v-1v1V608"/>
<path id="cv8_0" fill="#000010" stroke="#446EA2" d="M754,627l1-1v-1h-1v1V627h-1h-1v-1h-1v-1h-1h-1h-1h-1h-1v1h-1v1h1v1l1,1v1h-1
	h-1h-1v-1v-1h-1l-2,1h-1v1l1,1h-1v1h-1h1v1v1v1h1h-1l1,1h-1v1v1h-1v1v1h-1v1h-2h-1v1l-1-1v-1l-1-1h-1h-1h-2v-1v-1v-2h-1v-1h-1l-1,1
	v-1v-1h-1v-1h-1h-1v1h-1h1v1v1h-1v-1v-1v-1l-1-1h-1v-1v1v1l1,1v1v1h-1v1h-1v1h-1v1v1v1l1,1v1v1v1v1h1v1l-2,1h-1h1v1h-1h-1h-1h-1h-1
	v1l-1,1h-1h-1l-1,1l-2,1v1v1v1h1v1h1v-1h1v-1h1v-1v-1h1v-1l1,1h1v1l1,1h1v1v1h1h1v-1h1h1v-1h1h1h1h1v1h1h1v1h1v-1l-1-1h1l1-1h1v-1h1
	h1v-1h1h1v1v1l1,1v1h1v1v-1h1v1h1h1h1v-1h1l1-1v-1v-1v-1h1h1h1h1v1h1v1h1h1h-1v-1v-1v-1v-1h-1v-1h1v-1h1h1v-1h-1v-1v1h-1l-1-1l1-1h1
	v-1v-1h-1v-1h1v-1h-1h-1l1-1h-1v-1h1l1-1v1h1v1h1h1h1h1v1h1l1,1h1h1v-1h1h1h1v-1v-1l1-1h-1v-1h1h-1h1l1-1h-1h-1l-1,1l-1-1h1h1v-1h1
	v-1h1l-1-1v-1h-1v-1h-1h1v-1h-1v-1v-1h-1v1v-1h-1l-1,1h-1v-1H754"/>
<path id="cv9_0" fill="#000010" stroke="#446EA2" d="M760,584l-1-1v-1v1l-2,1h1v1l1,1l-1,1v1h-1h1v1v1v1h1v1h-1h1h-1l1,1l1,1v1h1v1
	h1v1v1h1v1v1v1v1v1v1h-1v-1h-2h-1v-1l-2-1h-2l-2,1v1h-1h-1h-1h-2v-1h-1l1-1l-1-1h-1h-4v-1h-1v-1h-1h1l-1-1v1h-1h1v1h-1h-1l-1,1h-1v1
	v1v1h1h1l1-1v1v1h-1v1v1v1h1v1v1h1v1h1v1l1,1h-1l1,1h-1h-1l1,1v1h-1v1v1h1v1l-1,1l1,1v1h-1v1l-1,1v1v1v1l1,1v1v1h1l2-1h1v1v1h1h1h1
	v-1l-1-1v-1h-1v-1h1v-1h1h1h1h1h1v1h1v1h1h1v-1v-1h1v1l-1,1h1v1h1l1-1h1v1v-1h1v1v1h1v1h-1h1v1h1v1l1,1v-1v-1v-1h1v-1h1h1h1v1v1h1h1
	l1,1v1l1-1h1v-1h1v-1h-1h-1v1v-1v-1h1h1h1h1v-1h1l-1-1v-1v-1v-1h1l1-1v-1l-1-1l-1-1v-1l-1-1l-1-1l1-1h1l1-1h1v1h1v1h1l1-1v1l1-1h1
	v-1l1,1v1v1h1v-1h1l1-1v1v1v1v1h1v1h1v1v1v-1h1h1v-1h1h-1v-1v-1h-1v-1v-1l1,1h1v-1l-1-1v-1l-1-1v-1h-1h1l1-1h1v-1v1l1,1v-1h1v-1h-1
	l-1-1v-1v-1v1h1v-1h-1v-1h-1h-1v-1l-1-1v-1l-1-1v-1h-1v-1h-1v-1l-1-1v-1h-1v-1h-1v-1h-1l-1-1h-1v-1h-1v-1v-1h-1v-1h-1v1v-1h-1v-1h-1
	v1h-1v-1h-1h-1h-1v-1h1v-1h-1h-1h-1h-1v-1l-1-1h-1v-1l-1-1v1h-1v-1l-1,1L760,584"/>
<path id="cv10_0" fill="#000010" stroke="#446EA2" d="M759,513h-1h-1l-1,1v-1l-1,1h1v1h1l-1,1v1h1h-1l1,1v1l1,1v1h1v1v1h-1v1v1h-1
	l-1,1v1v1h-1v1v1h-1v1h-1v1v1v1h1h1h1v1h1l1,1h-1h-1h-1h-1l-1-1h-1h-1h-1h-1v1h-1h-1h-1h-1l-1-1v1h-1h-1h-1h-1v-1l-1,1v-1v1v1h-1v1
	h-1v-1h-1h-1v1h-1v1h-1v1h-1h-1v1v1v1v1h1l1-1l1,1v1h1v-1h1h1h1h1h1v1h-1h1h1l-1,1h1v-1h1v1h-1v1h1h1h1v1v1v1h1l1,1v1v1h1v1h-1v1h1
	v-1v1h1l1,1l1,1v1h-1v1v1h1h-1h1v1h-1v1h1v1h-1h1v1l-1,1h1v1h1v1v1h-1v1h1v1h1l1,1h1v1h1h1v1h1v1v1l1,1h1v1v1v1h1v1v1v1v1h1v1h1l1,1
	v-1l1,1v1h1l1,1v1h1h1h1h1v1h-1v1h1h1h1v1h1v-1h1v1h1v1v-1h1v1h1v1v1h1v1h1l1,1h1v1h1v1h1v1l1,1v1h1v1h1v1l1,1v1l1,1v1h1h1v1h1v1h1
	v1h1h1v1l1,1v1h1l1,1v-1h-1v-1l-1-1v-1v-1h-1v-1v-1v-1v-1v-1l-1-1v-1h1h1v-1h1h1v1v-1h1v-1v-1l-1-1l1-1v-1h1h-1v-1v-1h1v-1v-1h-1v-1
	h1v-1l-1-1v-1h-2h-1v-1v-1l-1-1l-1-1v-1v-1v-1v-1h1v-1h-1v-1v-1v-1v-1h1h1v-1h1v-1h1v-1v-1v-1h1v-1h-1h1v-1h1h1v-1v-1h1h-1h-1v1v-1
	h-1h-1h1l-1-1l-1-1h-1v-1h1v1v-1v-1h-1v-1v-1l-1-1v-1h-1v-1v-1l-1-1v-1l-1,1h-1h-1h-1v-1h-1l-1-1h-1v-1v-1v1h1l-1-1h1l-1-1h-1l-1,1
	v1h-1l-1,1h-1h-1v1v-1h-1h-1v1h-1h-1v1h-1v-1v-1v-1v-1h1v-1v-1h1h1h1v-1h-1h-1h-1h-1v-1v-1v-1l-1,1v-1v1v-1h-1v-1h-1v1h-1v-1v-1h1v1
	v-1l1-1h-1v-1h-1v1h1v1h-1v-1v-1h-1v1h1h-1v-1h1v-1h-1v-1l1,1h1v1h1v1v-1h1h1h1h1v-1h1v-1l1-1v-1v-1v-1v-1v-1v-1l1-1v-1v-1v-1h-1
	l1-1h-1h-1v-1v-1h-1l-1-1h-1v-1h-1l1-1h-1h-1h-1l-1-1h-1l-1-1v-1v1h-1v-1h-1l-1-1h-1v-1h-1h-1h-1v-1h-1v-1v-1h-1V513"/>
<path id="cv11_0" fill="#000010" stroke="#446EA2" d="M587,547v-1V547h-1v1h-1h-1v1h-1h-1h-1l-1,1h-1l-1-1v1h-1v1l-1,1h1v1l-1,1h-1
	h1l1,2v-1h1v1v1h1v1v1v1h1v1h-1v1h1v1v1h1l-1,1h-1v1h-1v1h-1h-1v1h-1v1v1v1h-1h1h-1v1h-1l-1,1h1h1l-1,1h1l1,1h-1v1l2,1l-2,1h-1v1h-1
	v-1v-1l-1,1v1v-1v1l-1-1h-1l-1,1h-1l-2,1v1h-1l-1,1l-1,1h-1l-1,1h-1h-1v1h-1h-1h-1v1v-1l-1,1l-1-1v-1h-1v-1v-1v-1v-1h-1v-1h-1h-1v1
	l-1,1v1l-1,1v1v1v-1v-1h1v-1v-1h1h1v1v1h1l1,1h-1h-1v1h1h-1v1h1v1v1v1h1l-1,1v1v-1h-1v1h1h1h1h1h1h1h1l1,1v1v1v1v1h1v1v1h1v1v1v1
	l1,1v1v-1h1l1-1h1v-1h1v-1h1l1-1h1v-1h1h1v1l1,1h1h1l-1,1h1h1v1h-1l1,1h-1h1h1l1,1h1v1l1-1l1,1h1v1h1v1v1h1h1v1v1l1,1h1v1h-1v1h1v-1
	h1v1l1-1v1h1v-1h1l1-1v1h1v1h1v1h1l1,1v1v-1l1-1l1-1h1v-1h1v-1l1-1h1v-1h1h1v1v1v1v1h-1v1h-1v1l-1-1v1l-1,1v1v1l1,1v1v1v1l1-1v-1h1
	v-1h1l1-1v-1l1,1h-1v1v1v1l1,1l1,1v1h1v1v1l-1,1h-1h1h-1v1l-1,1v1l-1,1v1v1h1v1v1h1v1h1l1,1v1l1,1h-1h-1v1h1v1l1,1h1v-1v1l1,1l1,1v1
	h1v-1v1h1v1v1h1v1l1,1v1l1-1h1l1-1v-1h1v1h1v-1h1l1-1l-1-1l-1-1v-1l-1-1h1l-1-1h1h1l-1-1h1l1-1h1v-1h1h1v-1h-1v-1h-1v-1h-1v1h-1
	l-1,1h-1l-2,1h-1v1h-1l-1-1v-1h-1v-1v-1h-1h-1v1h-1h-1l1-1h1h1h1h1v-1h1v1h1v-1h1v-1v1h1l1-1h1v-1h1h1l1-1v-1l1-1h1l1,1v-1v-1h1
	l-1-1l1-1h1v-1l1,1h1v1h1h-1v-1h-1v-1h1v-1l1-1v-1h1v-1h1v-1h1v-1v-1h1v-1h1v-1h1v-1h1h1l-1-1h1h1v-1h-1v-1v-1h1v-1v-1h-1v-1h1h1v-1
	h1v-1h1h1h1v-1h1l1,1v1h-1v1v1v1v1v1l1,1h1v1h1h1v1h1h1h1h1h1v1h1h1h1v1h1v-1v-1v-1v1l1-1h1h1l-1-1h-1h-1v-1h1h-1v-1h1h-1v-1h1v-1h1
	v-1h1v1h1v-1h1h1h1h1v1h1v-1h1v-1v-1h-1v-1h-1v-1h-1h-1v-1h-1v-1v-1h-1h1h-1h1v-1h1v-1h1v-1v-1v-1h1v-1l-1-1v-1h-1h-1v-1v-1v-1h-1
	h-1v-1v-1v-1v-1h1h-1l1-1v-1h-1v-1v-1v-1h-1v-1h-1h1v-1v-1v-1h1v-1v1h1v-1v-1h1v-1h-1v-1v-1h-1v-1l-1-1v1h-1h-1v1h-1v-1v-1h-1v-1v-1
	h1v-1h1v-1h1v-1v-1v-1h-1v-1h-1h-1v-1h-1h-1v-1h-1v-1h-1v-1v-1h-1v-1v1h-1v1h-1v-1h-1v1v-1h-1h-1v1h1h-1v1v-1h-1v1h-1v-1h-1v-1h-1
	h-1l-1-1h-1v-1h-1h-1h-1h-1v-1h-1h-1h-1v-1h-1h1h-1h-1v-1h-1v-1h-1h-1v1v1h-1h-1h-1h-1h-1h-1v-1v-1v-1h-1h-1h1v1l-1,1h-1h-1h-1h-1
	h-1h-1v-1v-1h1l-1-1h-1h-1h-1h-1h-1v1v-1h-1h-1v1h-1h-1v1v1h-1v1h-1v1h-1h-1v1h-1v1v1h-1h-1v1h-1v1h-1h-1h-1l-1,1h-1h-1h-1l-1,1h-1
	h-1h-1h-1v-2v-1v-1v-1h-1h1h1l2-1l1-1h1h1v-1v-1h1v-1v-1h-1h-1h-1h-1v-1h-1v-1H587h1h1h-1H587"/>
<path id="cv11_1" fill="#000010" stroke="#446EA2" d="M655,566v-1h-1v-1h1v1h1v1v1v1v-1v-1H655"/>
<path id="cv12_0" fill="#000010" stroke="#446EA2" d="M529,308l-1-1v-1v-1l-1,1h-1h-1h-1v1v1v1v1v1h-1l-1,1h-1h-1v1v1h-1v1h-1h-1h-1
	h-1l-1,1h-1l-1,1v1v1h1v1h1v1h1h1v1v1h1v1v1v1v1v1v1h-1v1v1v1v1v1h1v1l1,1v1h-1v1v1v1v1h-1v1v1v1v1v1v1v1h1v1h-1v1h-1v1h-1h1v1h-1h1
	l-1,1h-1v1h1h-1l1,1h-1v1v1v1v1v1h1v1h1v1v1v1h1v1v1v1h-1v-1h-1v-1h-1v-1h-1v1h-1h-1v1h-1l1,1h1v1h1v1h-1v1h-1h-1v1h-1h-1v-1l-1,1
	l-1,1v-1l-1-1l-1-1h-1v-1v1h-1v1h-1h-1h-1h-1h-1v1v1h1v1h1v1h-1v1h-1l-1,1h-1h-1v1h-1l-1,1h1v1h-1v1l-1,1l-1,1v-1h-1v1l-1,1h1l1,1v1
	h1v1l1,1h1h1l1-1v1l1,1h1h1v1v1h1h1v-1h1h1v1v1v1h2v1h1v1v1h-1v1v1h-1h-1v1h-1v1h-1v1v1h1h1h1v1v1v1v1v1v1v1v1v1v1v1v1v1v1v1v1v1v1
	v1h-1h-1v1h-1l-1,1v1h-1h-1h-1h-1v1h1h1l1,1l1,1v1h1v1h1h1h1h1v1h-1h-1v1l1,1v1h1v1v1l1,1l1,1h1v1v1l1,1v1h1h1v-1v-1l1-1v-1h1v-1v-1
	v-1h1v1h1v1h1l1,1v1v1v1v1h1h1v-1v1h1v1v1h1h1v-1h1h1l1-1v-1v-1v-1h-1v-1h1h-1v-1h1v-1v-1h1v-1v-1v-1v-1l2,1h1h1h1l2,1l1,1h1h1h1
	l1,1h1h1h1h1h1h1h1l1-1h1v1v1h1v1h1v1h1h1v-1v-1h1v-1h1v-1h1v-1h1v-1v-1h1v-1v1h1h1l1,2v1h1h1v1h1h1v1l1,1l1,1h1v1h1h1v1h1h1v1h1v1
	h-1h1l1,1h-1v1v1h-1v1v1l-1,1h-1v1v1h-1l1,1l-1,1v1v1v1h1l1-1v1h1h1h1h1v1h1h1h1l1,1l1,1v1h-1v1h1v-1h1v-1h1h1h-1v-1h1v1v-1v-1h1h1
	v1l1-1l1-1v-1h1h1h1h1v-1h1v-1h1h1v-1h1h1v-1v-1v-1v1h-1l-1-1l-1,1h-1v-1h-1v-1h-1h-1v1h-1v-1h-1v-1v-1h1v-1v-1h-1v-1v-1v-1v-1v-1
	v-1v-1v-1v-1l-1-1l-1-1h1v-1h1h1h1h1h1l-1-1v-1l-1-1h-1l-1-1h-1v-1v-1h-1l-1-1v-1h1v-1h1v-1l1-1v-1v-1v-1h-1v1h-1h-1v-1h1v-1h-1h1
	v-1h1v-1v-1h1h-1v-1v-1v-1v-1h-1v-1v-1h-1h-1h-1v-1v-1h-1v-1v-1h-1v-1v-1v-1v-2v-1v-1v-1h-1h1v1h1v-1v1h1h1h1h1h1v1v-1h1v-1v-1v-1
	h-1v-1v-1v-2v-1v-1v-1h1v-1h1h1v-1h1h-1v-1v-1h-1v-1v-1v-2v-1h-1h-1h-1h-1h-1h-1h-1h-1v-1h-1v-1v1v-1v-1v-1h-1h1v-1v-1v-1h-1v-1v-1
	v-1v-1h1v-1h1v-1v-1h-1v-1h-1h-1h-1h-1h1v-1h1h1v-1v-1h1v-1h-1v-1v-1v-1h1v-1h1h1h1v1h1h1h1h1v1h1h1h1h1v1h1h1v-1h1v-1h1l-2-1v-1
	l-1-1h-1l-1-1v-1h-1l-1-1v-1h-1l-1-1v-1h-1l-1-1l-1-1h-1h-1v-1h-1h-1h-1v-1v-1v-1v-1l-1-1l-1-1h-1v-1l-2-1l-2-2l-1,1v-1h-1h-1l-1-1
	h-1l-1-1l-2-1h-1h-1v-1h-1h-1v-1h-1v-1v-1v-1h-1l-1-1l-1-1l-1-1v-1l-1-1h-1v-1h-1v-1h-1v-1v-1v-1h-1h-1h-1h-1h-1v-1h-1l-1-1l-1-1h-1
	v-1l-1-1l-1-1h-1v-1h-1v1h-1h-1L529,308"/>
<path id="cv12_1" fill="#000010" stroke="#446EA2" d="M574,388h1h1h1v1v1l-1-1h-1h1h-1v1v-1v1h1v1h-1v-1v1v-1h-1v-1V388"/>
<path id="cv12_2" fill="#000010" stroke="#446EA2" d="M578,452v-1h1v-1l1-1l1-1h1l1-1v1h-1l-1,1h-1v1l-1,1v1H578"/>
<path id="cv13_0" fill="#000010" stroke="#446EA2" d="M795,613v-1l-1-1v-1h-1h-1v-1h-1h-1v-1v1v1l1,1h1v1h-1v1l-1-1v-1v1h-1l-1,1h-1
	h1v1l1,1v1l1,1v1h-1l-1-1v1v1h1v1v1h1h-1v1h-1h-1v1v-1v-1h-1v-1h-1v-1v-1v-1v-1l-1,1h-1v1h-1v-1v-1l-1-1v1h-1l-1,1v-1l-1,1h-1v-1h-1
	v-1h-1l-1,1h-1l-1,1l1,1l1,1v1l1,1l1,1v1l-1,1h-1v1v1v1l1,1h-1v1h-1h-1h-1h-1v1v1v-1h1h1v1h-1v1h-1l-1,1v-1l-1-1h-1h-1v-1v-1h-1h-1
	h-1v1h-1v1v1v1h-1v1h-1v1h-1h-1l1,1l1-1h1h1l-1,1h-1h1h-1v1h1l-1,1v1v1h-1h-1h-1v1h-1h-1l-1-1h-1v-1h-1h-1h-1h-1v-1h-1v-1l-1,1h-1v1
	h1l-1,1h1h1v1h-1v1h1v1v1h-1l-1,1l1,1h1v-1v1h1v1h-1h-1v1h-1v1h1v1v1v1v1h1h1l1,1h1v1h1h1h1v1h1h1h1h1h1l1,1h1h1h1h1h1h1l1,1h1h1v1
	h-1v1v1v1v1v1h-1h-1h-1h-1v1v1l-1,1v1l-1,1v1v1v1h1v1h-1v1v1h-1l-1,1v1v1v1h1h1v1v1h-1l1,1h1l1,1v1h1l1,1h1l1,1h1v1h1h2h1h1h1h1h1
	l1,1v1v1h1h1h1h1l1-1h1h1v-1h1v1h1l1,1h1v1v1v1v1v1v1h1h1v-1h1l1-1h1l1-1v-1v-1h1l1,1v-1h1h1h1v-1v-1l1,1v-1h-1v-1h1v-1h1v-1h1v-1
	v-1v-1v-1v-1v-1h-1v-1h-1v-1h-1v-1h-1v-1h-1v-1h-1v-1v-1v-1v-1h1h1h1v-1v-1l1,1h1h1l1-1h1l1-1v-1h1h-1v-1h1v-1h1v-1h1h1h1v1v-1h-1h1
	v-1h1h1h1l1-1l1-1v1h1v-1h1v-1h1h1h1l-1-1h1v1h1v-1l-1-1h1v-1h-1h-1v-1h-1v-1h-1v-1v-1h-1h-1h-1v-1h1v-1h1h-1h-1v-1v-1h-1v-1h1h1v-1
	v-1h-1v-1l-1-1v-1h-1v-1h-1l-1-1l-1-1l1-1v-1h1h1v-1h-1l-1-1h-1l-1-1l-1-1h-1v-1h-1v-1v-1v-1h-1v-1v-1l1-1h1v-1h1l1-1h-1v-1v-1h-1
	h-1v-1h-1h-1v-1h-1v-1h-1v-1v-1h-1v-1h-1v-1h-1v-1h-1v-1h-1l-1-1H795"/>
<path id="cv14_0" fill="#000010" stroke="#446EA2" d="M576,388h-1h-1v1v1h1v1v-1v1h1v-1h-1v-1v1v-1h1h-1h1l1,1v-1v-1H576"/>
<path id="cv15_0" fill="#000010" stroke="#446EA2" d="M580,353h-1h-1v-1h-1h-1h-1v1h-1v1v1v1h1v1h-1v1v1h-1h-1v1h-1h1h1h1h1v1h1v1v1
	h-1v1h-1v1v1v1v1h1v1v1v1h-1h1v1v1v1v-1v1h1v1h1h1h1h1h1h1h1h1v1v2v1v1h1v1v1h1h-1v1h-1h-1v1h-1v1v1v1v2v1v1h1v1v1v1h-1v1v-1h-1h-1
	h-1h-1h-1v-1v1h-1v-1h-1h1v1v1v1v2v1v1v1h1v1v1h1v1v1h1h1h1v1v1h1v1v1v1v1h1h-1v1v1h-1v1h-1h1v1h-1v1h1h1v-1h1v1v1v1l-1,1v1h-1v1h-1
	v1l1,1h1v1v-1h1v-1h1h1v-1h1v-1v-1h1v-1h1v1h1h1v-1h1h1l1,1h1l1,1h1v1h1l1,1h1v1h1v-1v-1v-1h1l1,1h1v1h1h1v1v1v1h1l1,1h1v1h1l1,1
	l1,1h1v1v-1h1v1h1l1-1h1h1h-1v1v1v1l-1,1v1h-1l1,1h1v1l1,1v1l1,1h1v1h1h1h1v1h1h1v-1h-1v-1h1h-1h1v-1h1v-1v-1v-1v-1h1v-1h1v-1l1-1
	v-1h1v-1h-1v-1h-1l-1-1h-1v1v-1h-1l1-1v-1h-1v-1v-1h1h1h1h1v-1h1l1-1h1v-1h1v-1v-1v-1v-1v-1v-1v-1v-1h1h1h1v1h1h1v1h1h1v1h1h1v1h1v1
	h1h1l1,1h1v-1h1h1v1v-1v-1v-1h1v-1v-1h1v-1l1-1v-1h-1v-1h-1v-1l-1-1h-1v-1h-1h-1v1v-1h-1v-1l-1-1v-1v-1l1-1h-1h-1h-1h-1h-1h-1v-1
	l-1-1v-1h-1v-1v-1l1-1v-1v-1v-1v-1h-1v-1v-1h-1v-1h-1h-1h-1h-1v-1h-1h-1h-1h-1h-1v-1v-1v-1v-1v-1v-1v-1v-1l-1,1h1v1h-1l-1-2v-1h-1
	h-1v-1v-1v-1h-1v-1h-1v-1h-1v-1v-1v-1h1v-1h1v1h1v-1h1h1v1h1v-1h1v-1l-1-1h1v-1v-1h1h1v-1h-1v-1h-1v-1v-1h-1v-1h-1v-1v-1v-1v-1l-2,1
	h-1h-1h-1l-2,1h-1h-2l-2,1h-1h-1h-1h-1h-1h-1h-1h-1h-1h-1h-1l-1-1h-1h-1h-1h-1v-1l-1-1h-1l-1-1h-1v-1h-1l-1-1h-1v1h-1v1h-1h-1v-1h-1
	h-1h-1h-1v-1h-1H580"/>
<path id="cv16_0" fill="#000010" stroke="#446EA2" d="M272,413v-1h-1v-1h-1v1h-1h-1v1h-1v1v1v1v1h-1v1v1v1v1v1h-1v1h1v1h1v1v1v1h-1
	v1h-1h-1v1h-1v1h-1v1v1h-1v1h1h-1v1h-1h-1v1v1l-1,1h-1v1h-1h-1h-1l-1,1l-1,1h-1h-1v1v1h-1v1v1v1v1v1v1h1v1v1h1v1v1h1v1h1h1v1h1v1v1
	h1h1v1v1v1h1v1h1v1v1h1v1h1v1h1h1v1h1v1h1h1h1l1,1l1,1h1v1h1h1v1h1h1h1v1h1v1v1v1v1v1h-1v1l-1,1v1v1h1h1v1h1v1h1v1h1v-1v1h1h1v1h1h1
	h1v1v1v1h1v1h1h1h1h1v1h1v1h1h1h1v1h1v1v-1h1l1,1h1h1h1h1h1h1v1v1h1h1v1h1v1h1v1v1h1v1h1v1h1l1,1v1h1h1v-1h1h1v-1h1h1v-1h1h1h1v-1h1
	l1-1v-1h-1l1-1v1h1l1-1v1h1h1v1h1h1v1h1v1l1,1h-1v1h-1v1v1v1v1v1v1h1v1v1h-1v1l-1,1h-1v1h-1h-1v1h-1v1l1,1v1h1v1h1l1,1l1,1v1h1v1v1
	v1h-1v1v1h-1v1v1h-1v1v1h-1h1h-1v1v1v1v1h-1v1h-1v1h-1h-1v1h-1v1h-1h-1v1h-1v1h-1v1h-1v1h-1h-1h-1v1h-1v-1h-1h-1v1h-1h-1h-1h-1h-1v1
	v-1v-1v-1v-1v-1h-1v-1v-1v-1h-1v-1v-1h-1v-1h-1l-1-1v1v-1h-1v1h-1h-1h-1v1v1h-1h-1v1h-1v-1v1h-1v-1v-1l-1-1l-1,1l-1-1h-1h-1v-1h-1h1
	l-1-1h-1l-1-1h-1v1h-1l-1,1h-1v1h-1v-1h-1h-1h-1l-1,1l-1,1h-1h-1h-1h-1v-1h-1h-1l-1,1l-1,1v1v1h-1v1h-1v1v1v1h-1h-1h-1v1h-1h-1v1v1
	h-1v-1h-1h-1v-1h-1l-1-1h-1h-1h-1h-1l-1-1v1h-1l-1,1l-1,1h-1v1v-1h-1h-1h-1v-1v-1h-1v-1v1l-1-1v1h-1v-1h-1h-1v-1h-1h-1h-1h-1v-1h-1
	v-1h-1h-1v-1h-1v1h-1v1h-1h-1h-1h-1v-1h-1h-1h-1h-1v1h-1l-1-1h-1h-1l-1-1l-1-1v-1h-1v-1h-1h-1v-1h-1h-1v-1h-1v1h-1v-1h-1v-1h-1v-1
	h-1v-1h-1h-1v-1h-1v-1h-1v-1h-1v-1h-1v-1v-1h-1v-1v-1h-1h-1v-1h-1v-1v-1h-1h-1v-1h-1h-1v-1v-1v-1v-1v-1v-1v-1v-1v-1v-1v-1h-1v-1l1-1
	l-1-1v-1v-1v-1h1v-1v-1h1v-1v-1v-1v-1v-1v-1v-1h-1h-1v-1v-1h-1h-1h-1h-1v-1h-1v-1h-1h-1v-1h-1h-1v1h-1h-1h-1h-1v1h-1h-1h-1v1v1h-1
	v-1h-1h-1v1h-1h-1v-1h-1h-1v1v-1h-1l-1,1v1h-1h-1h-1v1v-1h-1v1h-1h-1v1h-1h-1v-1v-1h-1v-1h-1h-1v-1h-1h-1v-1v-1h-1h-1v-1h-1h-1v-1
	h-1h-1h-1v1h-1v-1h-1v1h-1h-1v1h-1h-1v1h-1h-1h-1v1h-1h-1l-1,1v1v1v1v1v1l-1,1h-1v1v1v1v1v1h-1v1l1,1l-1,1h-1v1h-1v1h-1v1v1v1h-1v1
	h-1l-1,1h-1v1h-1v1h1v1h-1v1v1h-1v1h-1v1h-1v1h-1h-1v1h-1v1h-1v1h-1v-1v1h-1h-1h-1h-1v1h-1l-1,1v1h-1v1v1v1v1h-1v1v1v1v1v1v1v1v1v1
	v1v1v1v1v1v1v1h1v1h1v1h1h1v1v1h1v1v1h1h1v1h1l1,1v1h1v1l1,1v1l1,1v1h1v1v1v1v1l1,1h1v1h1v1h1v1v1v1v1v1v1v1v1v1v1v1h-1v1v1h-1v1h-1
	v1l-1,1v1v1h-1v1h-1h-1h1v1h1v1v1v1h-1v1v1v1v1h1v1h1v1v1h1h1h1v-1h1h1h1v1h1h1v1h1h1v1h1h1h1v-1h1h1h1h1v1h1h1v1h1h1v1h1h1h1h1v-1
	h1h1h1h1h1h1v1h1h1v1l1,1v1h1l1,1h1l1,1v1h1v1v1v1v1h1v1v1v1v1h1l-1,1v1v1v1v1v1h1v1h1l1,1v1h1h1h1v1h1h1h1v1h1v-1h1v1v1h1v1l1,1v1
	h1v1h1v1v-1h1v-1h1l1-1h1h1v1v-1h1h1h1h1h1h1v1v1h1v1h1v-1h1h1v-1h1h1h1v-1h1h1v-1h1v-1l1,1h1h1v1h1h1h1h1v1v1h1v1v1h-1v1h1v1h1v1
	v-1h1h1v-1h1h1l1,1l1,1h1v1h1v1h1v1v1h1v1l1,1h1v1h1v1h1h1h1h1h1v1v1h1v1h1v1h1v1h1v1h1v-1h1v-1h1v-1v-1h1v-1v-1h1h1h1v-1h1h1v-1h1
	l1-1h1v-1h1v-1v1h1h1h1h1v1h1h1h1h1v1h1l1,1l1-1h1h1v-1h1h1h1l1-1h1v-1h1h1h1v-1v-1v-1v-1v-1v-1v-1h1v-1h1v-1v-1v-1h-1v-1h1v-1h1h1
	l1-1v-1h1v-1h1v-1h1v-1h1v-1h1h1h1h1v-1h1h1v-1h1v-1v-1h1v-1h1h1h1h1l1-1h1v-1h1h1v1h1v1h1v1h1h1h1h1l1-1h1h1v-1h1v-1h1v1h1v-1l1,1
	l1-1l1-1v-1h1h1v-1v-1v-1v-1v-1v-1h1l1-1l1-1h1v-1h1h1h1h1h1v1h1h1h1h1v1v1h1l1,1h1v1h1l1,1h1v1h1h1v1h1v1v1h1h1h1v1h1v1l1,1v1h1h1
	v1v1h1l1,1h1h1h1h1v1v1h1l1,1h1l1,1h1h1h1v1h1h1l1-1h1v-1h1v-1h1h1h1h1h1v1v1h1h1v1h1h1v1v1h1h1h1h1h1h1v1h1v1v-1h1h1v-1l1-1v-1h1
	l1-1h1v-1v-1v-1h1v-1v-1h-1l1-1v-1v-1v-1h1h1v-1h1v-1v-1h1v-1h1v-1v-1v-1h1v-1v-1h1v-1v-1l-1-1v-1v-1h-1v-1v-1h-1l-1-1v-1h-1v-1h-1
	v-1v-1v-1v-1h1v-1v-1v-1v-1l-1-1v-1v-1h-1h-1v-1h-1v-1h-1h-1v-1h-1v-1h-1v-1v-1v-1h-1l-1-1v-1v-1v-1h-1v-1h-1h-1v-1v-1h1v-1v-1l1-1
	v-1h-1v-1v-1v-1v-1h1v-1v-1v-1v-1v-1h-1l-1-1v-1h-1v-1v-1v-1v-1h-1v-1h-1v-1v-1h-1v-1l-1-1v-1v-1v-1v-1v-1v-1v-1v-1v-1v-1v-1v-1h1
	v-1v-1h1v-1v-1v-1v-1h1v-1h-1h1v-1h1v-1h-1h1v-1v-1v-1v-1v-1h1v-1h1v-1h1v-1v-1h1v-1v-1h1v-1v-1v1h1h1v-1h1v-1v1h1v1v-1h1v-1h1v1v1
	h1v1l1,1v1v1l1,1v1h1h1v1h1h1v-1h1v-1h1h1v-1h1h1v1h1h1h1v1h1h1h1h1v1h1h1h1v-1h1v1h1h1v1h1v-1h1v1h1h1v1h1h1h1h1h1h1h1v1h1h1v1h1h1
	v1l1,1h1v1h1v-1h1v-1v-1v-1v-1v-1v-1v-1v-1h-1v-1h-1v-1h-1v-1h-1v-1h-1h-1v-1l-1-1l-1-1v-1v-1h-1v-1v-1v-1h-1h-1v-1v-1h-1v-1h-1v-1
	v-1h-1v-1h-1v-1v-1v-1v-1h-1h-1v-1h-1h-1h-1h-1h-1v-1h-1v-1h-1h-1v-1v1l-1-1v-1h-1h-1h-1h-1h-1h-1h-1v-1h-1v-1v-1v-1v-1v-1h-1v-1h-1
	v-1h-1h-1h-1v-1l1-1l-1-1v-1h1h-1v-1v-1v-1v-1h-1v-1h-1v-1v-1l-1-1h-1v-1h-1l-1-1h-1h-1h-1h-1h-1h-1v1h-1h-1v1h-1v-1v-1h-1v-1h-1v-1
	v-1h-1v-1h-1h-1v-1h-1v-1v-1v1h-1v1h-1h-1h-1v1h-1h-1h-1l-1,1h-1v1h-1h-1v-1h-1h-1v1h-1v1h-1h-1h-1v1h-1h-1h-1v-1h-1v-1v-1l1-1v-1
	l-1-1v-1v-1v-1v-1v-1h-1h-1v-1h-1h-1h-1v-1l-1,1h-1h-1v1h-1v1v1h-1h-1h-1h-1h-1v-1h-1h-1v-1l-1-1h-1h-1v-1h-1h-1h-1v-1v-1h-1v-1h-1
	v-1v-1h-1l1-1h-1h-1v-1v-1h-1h-1h-1h-1v-1h-1h-1l-1,1h-1v-1v-1v-1v-1v-1h1v-1v-1l1-1v-1h1v-1h-1v-1h-1h-1v1h-1h-1h-1h-1h-1v1h-1h-1
	v1h-1v-1h-1v-1v-1v-1h-1v-1h-1v-1v-1v-1h-1v-1h-1v-1v-1h-1h-1v-1h-1h-1h-1v-1v-1v-1v-1v-1v-1v-1h-1v-1h-1v-1v-1h-1l-1-1v-1h-1v-1v1
	h-1H272"/>
<path id="cv17_0" fill="#000010" stroke="#446EA2" d="M606,650v-1v-1v-1h-1v-1v-1l-1-1v1v1h-1l-1,1h-1v1h-1v1l-1,1h-1v1h1v1h-1h-1v1
	h-1v-1l-1-1v-1v-1v-1v1v1v1v1h1v1v1v1h-1l-1,1h-1v1h-1v1h-1h-1v1h-1l-1,1h-1l1,1l1,1l1,1h-1h-1h-1v-1h-1h-1h-1v1v1h-1v1h-1v-1h-1h-1
	h-1v-1h-1v1h-1l-1,1h-1v1v1v1h-1h-1v1h-1l-1-1v1h-1v1h-1h-1l-1,1h-1h-1h-1v1h-1h-1v1v-1l-1,1l-1-1v1h-1l-1,1h-1h-1l-1,1v-1h-1v-1v1
	h-1v1h-1h1h1v1v1v1v1h1v1h1v1h-1v1h-1v1v1v1h1v1v1h-1v1v1l-1,1v1h1v1v1v1h1h1h1h1h1v1v1h1l-1,1h1v1h-1v1v1v1h-1v-1h-1h-1l-1,1h-1v-1
	h-1v1h-1h-1h-1v1v1h-1v1v1v1v1h1v1h1h1v1h1v-1h1h1v-1h1h1v1v1h-1v1h1h1h1l1-1l1,1v-1h1v-1h1v-1v-1h1h1l1-1v1h1h1h1h1h1h1v1h1v1h1h1
	h1v-1h1v-1l1,1h1h1h1v1v-1h1h1l1,1h1v-1h1h1h1l1-1l-1-1h1v1v1h1h1h1h1h1v-1h1h1h1v-1h1v1v-1h1h1h1h1v-1v-1h1v-1h1h1h1h1l1-1h1h1v1h1
	v-1h1v-1h1h1h1h-1v-1v1h-1v-1h1v-1h1v-1h1v-1h1h1h1h1h1v1h1h1v-1v1h-1h1v-1h1l1,1v-1v-1h1h1v1v1h1v1v-1v-1v-1h1h1l1-1h1h1h1h1v-1h1
	v-1h1h1v-1l1-1v-1h1h1h1l1,1l1-1l1-1v-1h-1h1h1h1v-1h1h1v-1v-1h1v-1h1v-1v-1l1-1l1-1v-1v-1h1v-1h1l2-1v-1v-1h1v-1h1v-1h1v-1v-1h-1
	v-1h-1l-1-1v-1v-1h-1v-1v1l-1,1v1h-1v-1h-1v-1h-1v1v-1v-1v-1v-1v-1v-1h-1v-1h-1v1h-1h-1l-1,1h-1v1h-1h-1h-1v1h-1l-1,1h-1v1h-1v1h-1
	l-1,1h-1h-1l-1,1h-1h-1h-1v-1v-1h-1v-1l-1-1l-1-1v-1h-1v-1h-1v-1v-1h-1v-1v-1h-1v-1h-1l-1-1v-1h-1v-1v-1l-1-1v-1h-1l-1-1l-1-1v1v1
	h-1v1l-1-1l-1-1v-1l-1-1v1v1l1,1v1h1h-1v1h-1v1h-1v-1h-1v-1v-1h-1v-1h-1h-1h-1L606,650"/>
<path id="cv18_0" fill="#000010" stroke="#446EA2" d="M415,541h-1v-1h-1v1v1v1v1v1v1v1h-1h-1v1v1h-1v-1h-1v1v1v1v1h-1v1h-1v1v1v1v1
	h-1h-1h-1v1h-1v1v1h-1h-1h-1h-1v1h-1v1v-1h-1h-1v1h-1v-1h-1h-1v1h-1l-1,1v1h-1v1h-1h-1v1h-1h-1h-1h-1v1h-1h-1h-1h-1v1h-1v1h-1h-1h-1
	v1h-1v1h-1v1h-1h-1h-1h-1v1h-1h-1h-1v1h-1h-1h-1v1h-1v1v1h1v1h1v1h1h1v1h1v1h1h1v1v1l1,1v1v1v1v1h-1v1v1v1v1h1v1h1v1l1,1h1v1v1h1v1
	v1l1,1v1v1h-1v1v1h-1v1v1v1h-1v1h-1v1v1h-1v1h-1h-1v1v1v1l-1,1h1v1v1h-1v1v1v1h-1l-1,1h-1v1l-1,1v1h-1h-1v1l1,1v-1h1h1h1v1h1h1h1v1
	h1v-1h1h1v1h1h1h1h1h1v-1h1h1h1h1h1v1h1h1l1-1h1v1h1h1h1v1h1h1h1h1h1v1h1v1h1h1v1h1v1h1h1h1v1h1v1v1v1h1v1l1,1h1v1h1h1h1h1v1h1h1
	l1,1h1v1h1h1v1h1v1h1h1v1h1h1h1v1h1h1v1h1h1h1h1v-1h1h1h1h1v-1h1v-1v-1h1v-1h1h1h1h1h1h1v1l1,1h1v1h1v1h1h1l1,1h1l1,1h1v1h1v1h1l1-1
	h1l1-1v-1h1h1h1v1h1v1v1h1l1-1l1,1v-1h1h1h1v-1h1v1h1h1h1h1v1h1h1l1-1h1h1v-1h1v1v-1h1h1v-1h1h1h1h1h1h1v1v-1v-1l1,1h1v1v1v1h1h1v-1
	h1h1h1h1l1,1l1,1l1,1v-1h1h1h1h1v1v1v1v1v1v1v1v1v1h1h1v1h1h1l1-1h1v-1h1h1h1v1v1v1v1v1h1h1v-1h1v-1h1v-1h1v-1h1v-1h1v-1h1v1h1v-1h1
	h1l1,1v1h1v1h1v1h1v-1h1v-1v-1h-1v-1v-1h1v-1v1h1h1h1h1v-1v-1v-1h1v-1h-1v-1v-1v-1v-1v-1v-1v-1v-1v-1v-1v-1v-1v-1v-1v-1h1v-1h1h1h1
	v-1v-1v-1v-1h-1v-1v-1h1h1v-1h1l1-1h1h1v1h1v1h1l1-1h1v1l1-1l1-1h1v-1h1v-1v-1h1v-1l1-1v-1l-1-1v-1h-1v1h-1l-1-1h-1l-1-1v-1l1-1l2-3
	l-1-1v-1v-1h-1h1h-1v-1h-1v-1h-1v1v1v1l-1,1h-1h-1v1h-1v1h-1h-1h-1l-1-1v-1h-1h-1h-1h-1h-1h-1h-1h-1v1v1h-1v-1h-1h-1h-1h-1v-1l-1-1
	h-1v-1h-1h-1v1v1h-1v1h-1h-1h-1h-1v1h-1v1h-1v1v1v1h-1h-1v1v-1h-1h-1h-1v-1h-1v1v1h-1h-1v1l-1-1v1h-1v-1v1h-1h-1v1h-1h-1h-1v1v-1h-1
	v1h-1v-1l-1-1v-1h-1h-1v1h-1h-1h-1v-1v-1h-1h-1h-1l-1-1v-1v-1v-1l1-1h1v-1h1l1-1v-1h1h-1h-1h-1v-1l1-1v-1h-1v-1h1v-1h1h-1v-1v-1v-1
	v-1v-1v-1v-1v-1h-1h-1v-1v-1h-1v-1h1h-1h-1v1l-1-1h-1h-1v-1v-1v-1v-1v-1h1v-1v-1h1v-1l1-1h-1v-1h-1h-1v-1h-1v-1v-1h-1h1v-1v-1v-1h-1
	l-1-1h-1v-1h-1h-1h-1h-1v-1h-1h-1v1v1h-1h-1h-1h-1l-1-1h1h-1h1v-1v-1h-1h-1l-1-1h-1v-1h-1v-1h-1h-1h-1v-1v-1v-1v-1h-1v-1h-1v-1v-1h1
	v-1v-1h-1h-1h-1v-1v-1h-1h-1v-1v-1h-1h-1h-1v-1l-1,1v-1v-1h-1v-1h-1h-1v-1h-1v-1v-1h-1v-1h-1v-1v-1h-1v-1h-1v-1h-1v-1h-1h-1v-1h-1
	h-1v-1v-1v-1v-1h-1h-1h-1h-1v-1v1v-1h-1h-1h-1h-1h-1h-1h-1h-1v-1h-1h-1H415"/>
<path id="cv19_0" fill="#000010" stroke="#446EA2" d="M734,339h-1v-1h-1l-1,1h-1h-1v1v-1v1h-1h-1v1h-1h-1v1v1h1v1v1v1v1v1l1,1v1v1v1
	l-1,1h-1h-1h-1h-1h-1h-1h-2h-1h-1h-1v1h-1h-1h-1v1h-1v1h-1v1v1v1v1v1h-1v-1h-1h-1v-1h-1h-1v-1l-1-1h-1l-1-1v-1h-1v-1v-1h-1l-1,1h-1
	v1h-1v1h-1v1v1v1v1v1l-1,1h1h1v1v1v1h1v1h-1v1h1h1v1l1,1v1h1v1v1h1v1v1v1v1l-1,1h-1v1h-1v1h1h-1v1v1v1h-1v1h1v1h-1l-1-1h-1h-1v-1h-1
	h-1h-1l-1-1h-1v-1v-1h-1h-1h-1h-1v1v1v1v1v2v1v1l-1,1v2v1h-1h-1h-1h-1h-1h-1h-1h-1h-1h-1v1h1h-1v1h1h1v1h-1v1v1v1v1h-1h-1v-1v1v1v1
	h1v1h1h1h-1v1h-1h-1h-1h-1h-1h-1h-1h-1h-1h-1h-1h-1h-1h-1h-1v-1h-1v1h-1h-1h-1h-1h-1h-1h-1l-1-1h-1h-1h-1v-1h-1v-1h-1l-1-1l-1-1
	l-1-1v-1v1v1v1v1v1v1l-1,1v1v1l1,1v1h1v1v-1h1h1v1h1l1,1v1h1v1h1v1l-1,1v1h-1v1v1h-1v1v1v1v1h1v1v1h-1v1v1h1v1h1v1l1,1l1,1v1h1v1
	l1,1v1v1h1v1v-1h1h1v-1h1v1h1v-1h1l1,1h1v-1h1v1v1v1l-1,1v1v1v1h-1h-1h-1v1l-1,1h-1l-1,2l-1,1v1h1l-1,2v2l4,2l1-2l1,1l2,1h-1h1l2,3
	l1,1l1,1l1,1h1h1h1h1v-1v1l1-1l2,1h1h1h1h1v-1l1-1v-1h1h1v1h-1h1l-1,1h1v1h1l-1-1h1h1v-1v-1h-1v1l-1-1h1v-1l1-1h1v1v1h1v-1h1v1h1v1
	h-1v1h1v-1h1v1h1v-1h1v-1h1v-1l1-1v-1h1v-1v-1h1v-1h1v-1v-1v-1l1-1h1h1v1h1h1v1h1l1,1h1v1v-1v1h1h1h1h1h1l1,1h1l1,1h1h1v1h1h1v-1h1
	v-1h-1v-1h-1h-1v-1h1v-1h1v-1h1v-1h1v-1h1v1h1h1l1-1v-1v-1h1v-1v-1v-1h-1h1v-1h1v-1h1v-1l-1-1v-1h-1v-1h1v-1h1h1v1h1v-1h-1h1h1l1-1
	h1v1h1v-1l1-1v-1l1,1h1v-1h1h1v-1l1,1h1h1l1-1h-1v-1h-1v-1v-1h-1v-1v-1v-2v-1h1v-1v-1h1h1h1l1-1h1h1h1v-1l1-1h1h1l1,1h1v-1v-1v-1v-2
	v-1v-2v-1h-1v-1v-1l1-1h1l1-1h1v-1h1v-1h1h1v-1h1l1-1h1l1-1h1h1v-1l-1-1v-1l-1-1v-1l-1-1v-1v-1h-1v-1h-1v-1v-1v-1v-1v-1v-1v-1v-1h-1
	v-1v-1l-1-1v-1v-1h-1v-1v-1v-1v-1v-1v-1v-1v-1v-1h1v-1v-1v-1v-1h1v-1h-1v-1h1v-1l-1-1v-1h-1v-1h-1l-1-1l-1-1v-1v-1v-1v-1v-1v-1h-1
	h-1v1v1h-1v1h-1h-1l-1-1h-1v-1v-1h-1v-1v-1v-1v-1h-1h-1h-1v1h-1v1h-1v-1h-1h-1h-1h-1v-1v-1h1v-1h1v-1h-1L734,339"/>
<path id="cv20_0" fill="#000010" stroke="#446EA2" d="M419,296v-1h-1h-1l-1-1h-1v-1h-1h-1l-1-1h-1v-1h-1v-1h-1h-1v-1h-1h-1l1,1v1v1
	v1v1h-1v1l1,1h-1l-1-1l-1,1h-1v1h-1l1,1v1h-1v1h1v1h1v1h-1v1v-1l-1,1v1h-1v1h1h-1v1h-1v1h-1v1h-1v1h1h-1h1l-1,1h1v1h1h1v1h-1h1h-1v1
	l1,1l-1,1l1,1h1l1,1v1h-1h1h1h1h1h1v-1v1h1h-1v1v-1v1v1h-1v1h-1h-1v1h-1h-1h-1h-1h-1v1v1h-1h-1v1l-1,1h-1v1h-1v1h-1l-1,1v-1v1h-1v1
	v1h-1h-1h-1h-1v1v1l-1,1v-1h-1h-1v1h-1v1v1h-1v1l-1-1h-1v1h-1v1h1v1v1h1v1h-1v1l-1,1v1v1v1v1h1v1v1v1v-1h-1v1v-1v1v-1v1h-1l-1,1v1
	h-1v-1l-1-1v-1h-1l1-1v-1h-1v-1l-1,1v-1h-1h-1v-1h-1v-1h-1h-1h-1h-1v1h1v1v1v1v1h1v1h1l-1,1h-1h-1v1v1v1v-1h-1v1h-1h-1v1h-1v1h-1v1
	h-1h-1v1v-1h1v-1h1v-1v1h-1h-1h-1v1h-1v1h-1v1h-1v1h-1h-1h-1h-1v1v-1h-1v-1v1v1h-1l1,1v1h-1h-1l-1,1v1l-1,1v1v1v1h-1v1h1v1h-1v1v1v1
	v1h1v1v1v1h-1v1v1h1v1l-1,1h-1h-1h-1v-1h-1h-1h-1v1v1v1v1h1h1v1v1h-1v1v1v1h1v1v1h1h1v1l1-1h1v1l-1,1v1h-1v1l-1,1v1l-1-1h-1h-1h-1v1
	v1l-1,1v1h-1v1v1h-1v1v1h-1h-1v1v1h1v1h-1v1v1v1h-1h1v1h1v1v1h1h1v1h1h1h1v1h1v1h1v-1h1v1h1h1h1v-1h1v-1h1v-1v1h1h1l1-1h1v-1h1h1v-1
	v-1h-1h1l-1-1v-1v-1h1v-1v-1h1v-1h1v-1l1-1l1-1h1v-1h1v1h1h1v1h1v-1l1-1v-1v-1h1v-1v-1h1v-1v1h1h1h1v1h1l1-1h1v-1h1v-1h1v-1h1h1h1
	v-1h1h1h1l1,1v1h1h1h1h1v1v-1h1v-1v-1h1h1v-1h1v-1v-1h1h1h1v-1h1v-1v-1v-1h-1v-1v-1h-1v-1h-1h1v-1v-1h-1v-1v-1h1h1v-1h1v-1h1v-1h1
	v-1v-1h1v-1h1v-1v-1v-1h1h-1v-1v-1l-1-1v-1h-1v-1h1h1v-1v-1v-1h1v-1v-1v-1h1v-1v-1h1h1v-1h1v-1v-1v-1v1h-1h-1v-1h-1v-1v-1v1h1v-1h1
	v1v-1h1v-1h1v-1v-1v-1l1-1v-1h1v-1l1-1h1h1v-1h1v-1l1,1h1v-1h1h1h1h1h1v1v1h1h1h1h1v-1v1h1v-1l1,1v1v1l1-1h1v-1v-1h1h1v-1h-1v-1v-1
	v-1v-1h1v-1h1l1-1h1v-1l1-1h1h1h1h1v-1h1h1v-1h1l1,1h1l1-1v-1v-1v-1h1v-1h1h1v-1h1v-1v-1h1v1v1v1h1v-1v1h1l1,1v1h-1l-1-1v1v1h1v1
	l1-1h1v1h-1h1h1v-1v-1h1v1h1h1l1,1v-1h1h1v-1h1h-1v-1h1l-1-1h1h1v-1v-1v-1h1v-1v-1h-1v-1v-1v-1h-1v-1v-1v-1v-1v-1v-1h-1h-1h-1v-1h-1
	h-1l-1-1l-1-1v-1v-1l-1-1h-1v-1h-1l-1-1l-1-1v-1l-1-1h-1l-2,1h-1h-1h-1h-1v1h-1v-1v-1v-1l-1-1h-1v-1h-1v-1h-1h-1v1h-1h-1h-1h-1h-1
	h-1l-1-1v-1h-1h-1l-1-1H419"/>
<path id="cv20_1" fill="#000010" stroke="#446EA2" d="M395,351h1v1v1h1v-1v1h-1v-1h-1V351"/>
<path id="cv20_2" fill="#000010" stroke="#446EA2" d="M395,351v1v1h1v1h-1h-1l-1-1h1h-1v-1h1v-1H395"/>
<path id="cv20_3" fill="#000010" stroke="#446EA2" d="M393,353v1h-1v1h-1v-1h-1h1v-1v1h1v-1H393"/>
<path id="cv21_0" fill="#000010" stroke="#446EA2" d="M555,429h-1v-1v1h-1v1v1h-1v1v1v1v1h-1v1l-1,1v1l-1,1v1v1v1h-1v1l-1,1l-1,1h-1
	v1v1v1v1h1v1v1h1v1v1h-1v1v1v1v1h1v1l-1,1v1v1v1h1v1l1,1v1h1v1v1v1h1v1h-1v1h1v1l1,1v1h-1v1l1,1h-1v-1h-1v1h1v1v1h1v1v1v1v1h-1h-1
	h-1h-1h-1v-1h-1h-1v1h-1v1l-1,1v-1v1h-1v1h-1v1h-1v-1h-1h-1v-1h-1h-1v-1h-1l-1-1l-1,1v1l-1,1h-1v-1h-1h-1h-1h-1l-1-1h-1h-1h-1h-1v-1
	h-1h-1v1h-1h-1v-1h-1h-1v1v1v1v1v1v1h1v1v1v1h1v1v1v-1h1v1h1v1h1l1,1h-1v1v1h-1v1v1v1h-1h1v1v1v1h1h-1v1h1v1h1v1h1v1v1h1v1h1h1v1h1
	v1v1v1h1h1h1v1v-1h1h1l1,1h1v1h1h1v1h1v1h1h1h1v1h1v1h1l-1,1h1h-1v1h1l1,1h1v1h1v1v1h1h1v1v1h1h-1h-1v1h-1v1h1v1h1v1h1h1h1h1h1v-1h1
	h-1h1v-1h1h1v1h1l1-1h1v1h1v-1h1h1h1v-1h1h1h1h1v-1v-1h1h1v-1h1h1v-1h1v-1h1h1l1-1v-1h1h1h1h1h1v-1h1v-1h1l1-1h1h-1h-1h-1h-1h-1v-1
	v-1v-1v-1v-1v-1v-1h-1v-1h1h1h1v1h1l1,1h1l1,1h1h1h1h1h1h1h1v-1h1l1,1h1v-1h1h2h1h1v-1v-2h-1h1v-1v-1v1v-1h1v-1h-1v1v-1v-1h-1h-1h-1
	h-1v-1h1v-1h-1h-1v1h-1l-1,1h-1v1h-1h-1v-1v-1h-1v-1v-1v-1h-1v-1h-1h1l-1-2v-1h-1h-1v-1v-1h-1l-1-1v-1l-2-1v-1h-1h-1v-1v-1l-1-1v-1
	h-1h-1h-1v-1h1v-1h1v-1v-1h-1v-1v-2v-1h1v-1v-1v-1h-1v-1h-1v-1v-1h-1l1-1h1h-1h-1v-1h-1h-1h1v-1h1h1h1h-1v-1h-1v-1v-1v-1v-1v-1v-1h1
	v-1h1v-1l1-1v-1v-1h1v-1l-1-1l-1-1h-1h-1h-1v-1h-1h-1h-1h-1v-1l-1,1h-1v-1v-1v-1l1-1l-1-1h1v-1v-1h1l1-1v-1v-1h1v-1v-1h1l-1-1h-1h1
	v-1h-1v-1h-1h-1v-1h-1h-1v-1h-1l-1-1l-1-1v-1h-1h-1v-1h-1h-1v-1l-1-2H555"/>
<path id="cv22_0" fill="#000010" stroke="#446EA2" d="M838,486v-1v-1h-1v-1l-1-1l-2-1v-1h-1h-1v1h-1v1v1v1v1h1v1h-1h-1v1v1h-1h-1v-1
	l-1-1v-1h-1v1h-1l-1,1h-1l-1,1v1h-1l-1,1h-1h-1v1h-1v1h-1h-1v1h-1h-1v1v1l1,1v1v1v1h1v1h1h1v1v1v1v1v1h-1h-1h-1v1v1h1v1v1v1v1h-1v1
	l-1-2h-1v-1v-1h-1v1v-1h-1v1v-1h-1v1h-1v1h-1v1h-1h-1h-1h-1h-1v1h-1v1v1h-1v1h-1h-1h-1h-1h-1h-1h-1v-1h-1v1h-1h-1h1v1v1h1h-1v1v-1
	h-1v-1h-1v1h-1h-1h-1h-1h-1h-1l-1-1h-1v1v-1h-1v-1h-1v1h-1v1h-1v-1h-1v-1l-1,1v-1h-1l-1-1v-1h-1v-1v-1h-1l-1,1l-1,1v1l-1,1v1v1v1h-1
	v1v1h1v-1v1l1,1h1l1,1h1h1h1l-1,1h1v1h1l1,1h1v1v1h1h1l-1,1h1v1v1v1l-1,1v1v1v1v1v1v1l-1,1v1h-1v1h-1h-1h-1h-1v1v-1h-1v-1h-1l-1-1v1
	h1v1h-1v1h1h-1v-1h1v1v1h1v-1h-1v-1h1v1h1l-1,1v1v-1h-1v1v1h1v-1h1v1h1v1v-1v1l1-1v1v1v1h1h1h1h1v1h-1h-1h-1v1v1h-1v1v1v1v1h1v-1h1
	h1v-1h1h1v1v-1h1h1l1-1h1v-1l1-1h1l1,1h-1l1,1h-1v-1v1v1h1l1,1h1v1h1h1h1l1-1v1l1,1v1v1h1v1l1,1v1v1h1v1v1v-1h-1v1h1h1v-1h1v-1v1v-1
	h1v1h1v-1v-1h1h1l1,1h-1v1v1l1,1l1,1h1v1v1h1h1v-1h1h1h-1h1v-1h1h1h1h1v-1v1h1h1v-1h1h1v-1v-1h-1v-1h-1h-1l-1-1v-1v-1v-1v-1v-1l1-1
	v-1l1-1v-1h-1v-1v-1h-1v-1h1v1h1h1l1,1h1v1h1h1h1v1h1v1h1v1h1v1h1h1v1l1,1l1,1v1v1h1v1v1h1v-1h1v-1v-1l1-1h1v-1h-1v-1v-1h1v-1v-1
	l-1-1v-1l1,1h1v1h1v-1l2-1v-1l1-1v-1l1-1l1-1v-1h1l1-2v-1l1,1v1h1v-1l1,1h1v-1h1h1v-1h-1h1h1v-1h1v-1v-1h-1v-1h-1h-1h-1v-1v-1v-1h-1
	h1v-1h-1v-1v-1h1v-1v-1v-1v-1v-1h-1v-1v-1h-1v-1h-1v-1h-1v-1l-1-1l-1-1v-1v-1h-1l-1-1l-1-1h1v-1v-1h1v-1h1v-1v-1v-1l-1-1v-1v-1v-1
	l-1-2v-1v-1v-1v-1v-1l-1-1v-1v-1v-1v-1v-1h1v-1l1-1v-1v-1v-1v-1v-1h-1V486"/>
<path id="cv23_0" fill="#000010" stroke="#446EA2" d="M571,599l-1-1v-1h-1h-1v1h-1l-1,1h-1v1h-1v1h-1h1v1h-1v1v1l-1-1v1h-1v1h-1v1v1
	h-1v1h-1l-1,1l-1,1v1h-1v1h-1h1v1h1h-1h-1v1v1v1h1v1v1h-1l-1,1h-1v1h-1v1h-1h-1l-1,1h-1v1h-1h-1v1l-1,1v1h-1v1v1h-1v1h-1l-1,1l-1,1
	v-1h-1l-1,1h-1v1l1,1v1v1l-1,1h1v1v1v1v1v1h1v1v1v1h1v1h-1h1h1v1h1h1h1h1v-1v-1v-1v-1h-1v-1v-1h1v-1h1h1h1h1v-1h1h1h1h1v-1h1h1h1h1
	h-1v1v1h1v1h1v1v1v1h1h1h-1h-1v1v1h1v1v1h1l1,1h1v-1l1,1h1h1h1v-1h1h1l1,1h1v1v1h1v1v1v1v1v1h1v1v1v1h1l1,1v1h1v1v1h1v1v1v1h1l1-1h1
	v-1h1v1h1h1h1v1h1v-1h1v-1v-1h1h1h1v1h1h1h1l-1-1l-1-1l-1-1h1l1-1h1v-1h1h1v-1h1v-1h1l1-1h1v-1v-1v-1h-1v-1v-1v-1v-1v1v1v1l1,1v1h1
	v-1h1h1v-1h-1v-1h1l1-1v-1h1v-1h1l1-1h1v-1v-1l1,1v1v1h1v1v1v1l1-1h1h1h1v1h1v1v1h1v1h1v-1h1v-1h1h-1v-1l-1-1v-1v-1v-1h-1v-1v-1h-1
	v-1v1h-1v-1l-1-1l-1-1v-1v1h-1l-1-1v-1h-1v-1h1h1l-1-1v-1l-1-1h-1v-1h-1v-1v-1h-1v-1v-1l1-1v-1l1-1v-1h1h-1h1l1-1v-1v-1h-1v-1l-1-1
	l-1-1v-1v-1v-1h1l-1-1v1l-1,1h-1v1h-1v1l-1,1v-1v-1v-1l-1-1v-1v-1l1-1v-1l1,1v-1h1v-1h1v-1v-1v-1v-1h-1h-1v1h-1l-1,1v1h-1v1h-1l-1,1
	l-1,1v1v-1l-1-1h-1v-1h-1v-1h-1v-1l-1,1h-1v1h-1v-1l-1,1v-1h-1v1h-1v-1h1v-1h-1l-1-1v-1v-1h-1h-1v-1v-1h-1v-1h-1l-1-1l-1,1v-1h-1
	l-1-1h-1h-1h1l-1-1h1v-1h-1h-1l1-1h-1H571"/>
<path id="cv24_0" fill="#000010" stroke="#446EA2" d="M697,355h1v-1h1l1-1v-1h-1v-1h-1v-1h-1v-1l-1-1v-1h-1v-1h-1l-1-1h-1v-1h-1
	l-1-1h-1h-1v-1h-1h-1h-1h-1h-1l-1,1h-1h-1l-1,1v1h-1v1h-1h-1v1h-1h-1l-1,1h-1h-1l-1,1h-1h-1h-1h-1h-1h-1h-1v1h-1h-1l-1,1h-1v1h-1
	l-1,1h-1l-1,1h-1l-1,1h-1l-1,1h-1h-1l-1,1h-1h-1h-1h-1h-1h-1h-1h-1h-1h-1h-1h-1v-1h-1h-1h-1h-1h-1h-1h-1h-1h-1h-1h-1h-1v1v1v1v1h1v1
	h1v1v1h1v1h1v1h-1h-1v1v1h-1l1,1v1h-1v1h-1v-1h-1h-1v1h-1v-1h-1v1h-1v1v1v1h1v1h1v1h1v1v1v1h1h1v1l1,2h1v-1h-1l1-1v1v1v1v1v1v1v1v1
	h1h1h1h1h1v1h1h1h1h1v1h1v1v1h1v1v1v1v1l-1,1v1v1h1v1l1,1v1h1h1h1h1h1h1v-1v-1v-1v-1v-1v-1v1l1,1l1,1l1,1h1v1h1v1h1h1h1l1,1h1h1h1h1
	h1h1h1v-1h1v1h1h1h1h1h1h1h1h1h1h1h1h1h1h1h1v-1h1h-1h-1v-1h-1v-1v-1v-1v1h1h1v-1v-1v-1v-1h1v-1h-1h-1v-1h1h-1v-1h1h1h1h1h1h1h1h1h1
	h1v-1v-2l1-1v-1v-1v-2v-1v-1v-1v-1h1h1h1h1v1v1h1l1,1h1h1h1v1h1h1l1,1h1v-1h-1v-1h1v-1v-1v-1h1h-1v-1h1v-1h1l1-1v-1v-1v-1v-1h-1v-1
	v-1h-1v-1l-1-1v-1h-1h-1v-1h1v-1h-1v-1v-1v-1h-1h-1l1-1v-1v-1v-1v-1v-1h1V355"/>
<path id="cv25_0" fill="#000010" stroke="#446EA2" d="M638,414h-1v-1h-1h-1v-1h-1h-1h-1v1v1v1v1v1v1v1v1h-1v1h-1l-1,1h-1v1h-1h-1h-1
	h-1v1v1h1v1l-1,1h1v1v-1h1l1,1h1v1h1v1h-1v1l-1,1v1h-1v1h-1v1v1v1v1h-1v1h-1h1h-1v1h1v1h-1h-1v-1h-1h-1h-1v-1h-1l-1-1v-1l-1-1v-1h-1
	l-1-1h1v-1l1-1v-1v-1v-1h1h-1h-1l-1,1h-1v-1h-1v1v-1h-1l-1-1l-1-1h-1v-1h-1l-1-1h-1v-1v-1v-1h-1h-1v-1h-1l-1-1h-1v1v1v1h-1v-1h-1
	l-1-1h-1v-1h-1l-1-1h-1l-1-1h-1h-1v1h-1h-1v-1h-1v1h-1v1v1h-1v1h-1h-1v1h-1v1v1h1l1,1h1l1,1v1l1,1h-1h-1h-1h-1h-1v1h-1l1,1l1,1v1v1
	v1v1v1v1v1v1v1h1v1v1h-1v1v1h1v1h1v-1h1h1v1h1v1h1l1-1l1,1h1v-1h1h1h1l1,1v1h1v1h1l1,1v1l1,1v1v1h1h1v1h1v1h1h1v1v1v1l1,1v1h1l1,1v1
	l1,1v1l1,1h1h1h1h1h2h1v1h-1v1v1v1v1h1v1h1v1v1h1h1h1v1h1v1v1v1v1h-1v1v1v1h1l1,1v1v1v1h1h2h1v1h1h1h1h1h1h1h1h1h1v1v-1v1v-1v1h1v1
	h1l1,1h1v-1v-1l1-1h1h-1h1v-1h1v-1v1h1v1v1v1v-1h1v1h1l-1-1v-1h-1v-1h1h-1h1h1v1h-1l1,1v-1h1h1v-1v-1l-1-1v-1h-1v-1h-1v-1h-1v-1v-1
	h-1l1-1l-1-1h-1v-1h-1l1-1h1v-1h1v-1h1h-1v-1h-1v-1v-1v-1v1h1v-1h1l-1-1h1h1h1v1v1l1,1l1,1l1,1v-1h1l1,1v1v1l1-1v1h1h1h1v1v1l1,1h1
	v1h1v-1h1h1v1v-1h1l1,1h1h1v1h1h1v-1v1v1v1h1v1h1v1v1h1v1h1v-1h1h1v-1v-1v-1h1h1v-1h-1v-1h-1v-1v-1v-1v1v1h-1v-1v-1h-1v1v-1h-1v-1
	h-1v-1v-1v-1v-1v-1v1h-1v-1v-1h-1v1v-1v-1h-1v-1h1v-1v1v-1h1v1v1h1h1v-1h1v-1h-1h1v-1l-1-1h1l-1-1h1l-1-1l-1-1v-1l1-1h-1l-1-2v-1v-1
	l-1-1l-1-1l-1-1l-2-3h-1h1l-2-1l-1-1l-1,2l-4-2v-2l1-2h-1v-1l1-1l1-2h1l1-1v-1h1h1h1v-1v-1v-1l1-1v-1v-1v-1h-1v1h-1l-1-1h-1v1h-1v-1
	h-1v1h-1h-1v1v-1h-1v-1v-1l-1-1v-1h-1v-1l-1-1l-1-1v-1h-1v-1h-1v-1v-1h1v-1v-1h-1v-1v-1h-1h-1v1h-1l-1-1h-1h-1v-1h-1v-1h-1h-1v-1
	H638"/>
<path id="cv26_0" fill="#000010" stroke="#446EA2" d="M469,313h-1v1h1h1v-1H469v1V313"/>
<path id="cv27_0" fill="#000010" stroke="#446EA2" d="M493,315h-1l-2-1h-1h-1h-1h-1v-1h-1h-1h-1l-1-1h-1l-1-1h-1h-1v-1h-1h-1h-1
	l-1-1h-2h-1v1l1,1v1v1v1v1h-1h-1h-1h-1h-1v-1h-1v-1h-1h-1h-1v-1h-1v1h-1h-1h-1h-1h-1v1h-1v1v1v1v1v1h1v1v1v1h1v1v1h-1v1v1v1h-1h-1
	l1,1h-1v1h1h-1v1h-1h-1v1l-1-1h-1h-1v-1h-1v1v1h-1h-1h1v-1h-1l-1,1v-1h-1v-1v-1l1,1h1v-1l-1-1h-1v-1v1h-1v-1v-1v-1h-1v1v1h-1v1h-1
	h-1v1h-1v1v1v1l-1,1h-1l-1-1h-1v1h-1h-1v1h-1h-1h-1h-1l-1,1v1h-1l-1,1h-1v1h-1v1v1v1v1h1v1h-1h-1v1h1h1v1v1v1v1v1v1v1v1v1v1h1h1h1
	v-1v-1h1h1h1h1h1v1v1v1v1v1l-1,1v1v1v1l1,1h-1h-1v1h-1v1h-1v1h-1v1h-1h-1h-1v1h-1h-1v1v1h-1v1h-1v1l1,1h1v1h1h1v1h1v1h1h1h1v1h1v1
	l1,1h1v1h1h1v1h1l1,1h1v1h1v1v1h1h1l1,1l1-1v1h1l1-1l1-1v1h2v1l1,1h1v1l-1,1l-1,1v1h-1v1v1h-1v-1h-1l-1,1v-1v1h-1h-1h-1v1h-1h-1v1
	h-1l-1,1l-1,1v1h-1v1h-1h-1v1h-1h-1h-1v1h-1h-1h-1v1h-1h-1h-1h-1v1h-1v-1h-1v1h-1h-1v1h-1h-1h-1v1h-1v1h1h1h1v1h1h1h1h1h1v-1v-1h1h1
	v-1h1h1h1h1v1h1h1l1,1h1h1v1h1h1v1h1h1h1v1v1v1h1v1v1v1v1v1v1v1v1h1v1h1h1h1v1h1h1v-1h1h1h1h1h1h1h1h1h1h1h1h1h1h1h1h1l1-1h1v1h1v1
	v1v-1h1v1h1v-1h1h1l1-1h1h2v-1h1h1h1h1h1v1v1v1v1v1v1v1h-1h-1h-1v1h-1h-1l-1,1h-1h-1v1h1h1h1h1h1h1h1v1h1v-1l1,1v-1h1h1l1-1l1-1h1
	v-1h1v1l-1,1v1v1v1h1v-1h1l1-1h1h1h1v-1h1l1-1h1h1h1v-1h1h-1v-1h1h1h1h1v-1l1-1h1v-1h1h1v-1v-1v-1v-1v-1v-1v-1v-1v-1v-1v-1v-1v-1v-1
	v-1v-1v-1v-1v-1h-1h-1h-1v-1v-1h1v-1h1v-1h1h1v-1v-1h1v-1v-1h-1v-1h-2v-1v-1v-1h-1h-1v1h-1h-1v-1v-1h-1h-1l-1-1v-1l-1,1h-1h-1l-1-1
	v-1h-1v-1l-1-1h-1l1-1v-1h1v1l1-1l1-1v-1h1v-1h-1l1-1h1v-1h1h1l1-1h1v-1h1v-1h-1v-1h-1v-1v-1h1h1h1h1h1v-1h1v-1v1h1l1,1l1,1v1l1-1
	l1-1v1h1h1v-1h1h1v-1h1v-1h-1v-1h-1l-1-1h1v-1h1h1v-1h1v1h1v1h1v1h1v-1v-1v-1h-1v-1v-1v-1h-1v-1h-1v-1v-1v-1v-1v-1h1l-1-1h1h-1v-1h1
	l1-1h-1h1v-1h-1h1v-1h1v-1h1v-1h-1v-1v-1v-1v-1v-1v-1v-1h1v-1v-1v-1v-1h1v-1l-1-1v-1h-1v-1v-1v-1v-1v-1h1v-1v-1v-1v-1v-1v-1h-1v-1
	v-1h-1h-1v-1h-1v-1h-1v-1v-1v1v1l-2,1h-1h-1h-1h-1h-2h-1h-1h-1l-2-1h-2l-1-1l-1-1h-1l-2-1h-1L493,315"/>
<path id="cv28_0" fill="#000010" stroke="#446EA2" d="M656,565h-1v-1h-1v1h1v1h1v1v1v-1v-1V565"/>
<path id="cv29_0" fill="#000010" stroke="#446EA2" d="M679,508h-1v-1h-1h-1v1h1v1v1l-1,1v-1h-1v1v-1v1h-1h1v1v-1v1v1h1v1l1,1v1v1h-1
	v1h1h-1l-1,1h1h-1v1h1h-1v1h1v1h1v1h1l1,1v1h1h-1v1h-1h-1v-1h-1h-1h-1h-1h-1v1h-1v-1v-1v-1v-1v-1h1h-1v-1l-1-1h-1v1h-1v-1v1h-1l1,1
	h-1v1v-1h1v1h-1v1v-1h-1h-1h-1h-1h-1h-1h-1h-1h-1h-1h-1h-1l-1-1v1v1v1v1v1h-1v1h1v1v1h1l1,1h-1v1v1h1v1h1h-1v1h-1v1v1h-1v1v1h-1v1
	h-1h-1v1v1v1v1v1v1v1v1h1l1-1h1h1v1v1v1v1v1l1,1h1v1h1v1h1v1h-1v1h-1h-1h-1v1h-1h-1v1v1h1v1h1h1v1h1h1v1h1v1v1v1h-1v1h-1l1,1h1v1h1
	v1h1h1l1,1v-1v-1h1v1h1v-1h1v1h1v1h1v1h-1v1h1v1h1v1v1v1h1l-1-1v1v-1v-1v-1v-1v-1v-1h1h1v-1h1v-1v-1v-1v-1h1v-1h1v-1h1h1v-1h1v-1h1
	h1v1h1h1h1l1-1h1l1-1h1h1l1,1v1h1v1v1h1v1h1v1h1v1h1h1v-1v-1v-1v-1v-1v-1v-1v-1l-1-1v-1h-1v-1h-1v-1l-1-1v-1h-1v-1h1l-1-1h1h-1h1
	l-1-1v1v-1v-1h-1v-1h-1v-1h1h1h1v-1v1h1h1h1h1h1v1v1v-1h1h1l1-1l1-1h1h1v-1h1v-1h1h1v-1h1l1,1h1h1h-1v1h1v1l1,1v1v-1v1h1v1v1l1,1v1
	v1h1v1h1h1h1v-1h1h1h1h1v-1h1v1h1h1h1v1v1l1,1v-1h1h1v-1h-1h1v-1h1v-1h1v-1h-1v-1v-1h1v-1v-1l-1-1v-1h-1h-1l1-1h-1v-1h-1h-1v-1v-1
	v-1v-1h-1h-1h-1v-1v1h-1h-1h-1l-1-1v-1h-1h-1h-1l-1-1h-1v-1h-1v-1h-1v-1h-1v-1h-1v-1h-1v-1l-1-1v-1l-1-1v-1v-1v-1h-1v-1h-1h-1v-1v-1
	h-1l-1-1h-1v-1v-1h-1v-1v-1v-1v-1h1v-1h-1v-1h-1v-1h-1h-1l-1-1h-1h-1l-1-1v-1h-1h-1v1h-1v1v-1h-1v-1h-1h-1v-1h-1h-1h-1v1h-1H679"/>
<path id="cv30_0" fill="#000010" stroke="#446EA2" d="M851,621h-1h-1h-1h-1h-1v1h-1h-1h-1v1h-1v1v1h1v1l1,1h-1v1l-2,1h-1l-1,1h-1v1
	h1h-1v1v-1h-1h1v-1h-1h-1v1h-1h-1v1h1v1h-1v1v-1h-1v1h-1v-1h-1v1h-1v1v-1h-1v-1h-1v-1h-1h-1v-1h-1h-1h-1l-1-1h-1h-1h-1h-1l-1,1h-1v1
	h-1v-1h-1h-1v-1h-1v-1l-1-1v-1l-1-1v-1h-1l-1,1h-1v1h-1l-1,1v1v1h1v1v1v1h1v1h1l1,1l1,1h1l1,1h1v1h-1h-1v1l-1,1l1,1l1,1h1v1h1v1l1,1
	v1h1v1v1h-1h-1v1h1v1v1h1h1h-1v1h-1v1h1h1h1v1v1h1v1h1v1h1h1v1h-1l1,1v1h-1v-1h-1l1,1h-1h-1h-1v1h-1v1h-1v-1l-1,1l-1,1h-1h-1h-1v1
	h-1h1v1v-1h-1h-1h-1v1h1h1v1h1v1l1,1l1,1l1,1l1,1v1v1h1l1,1h1h1h1h1h1v1h1h1l1,1h1h1v-1h1h1h1v-1l1-1h1h1h1h1h1h1h1h1h1l1-1v-1h1v-1
	v1h1v-1l1,1v-1l-1-1h1v-1h-1h-1h-1h-1l-1-1h-1v-1l1-1v-1h1v-1v-1h1h1h1h1v-1v-1h-1v-1h-1l-1-1h-1v-1v-1l-1-1l-1-1v-1h-1v-1v-1h1h1
	h-1l1,1l1-1v1v1v1v1h1v1v-1h1v1v-1h1h1v1v1h1v-1h1h1h1v-1h-1v-1v-1h1h1v-1v-1h1v-1v-1l-1-1h1v-1v-1l-1-1h1v-1v-1v-1h1h-1v-1v-1v-1
	h-1v-1v-1h1h-1v-1v-1v-1h-1h1v-1h-1h1h1h1h1v-1h1h1h1h1v1v1v-1v-1v-1v-1l-1-1v-1v-1v-1v-1v-1l1-1v-1h-1v1h-1h-1v-1h-1v-1H851"/>
<path id="cv31_0" fill="#000010" stroke="#446EA2" d="M835,564h-1h-1h-1h-1l-1-1h-1v-1v-1h-1v-1v-1l-1-1l-1-1v-1h-1h-1v-1h-1v-1h-1
	v-1h-1v-1h-1h-1h-1v-1h-1l-1-1h-1h-1v-1h-1v1h1v1v1h1v1l-1,1v1l-1,1v1v1v1v1v1l1,1h1h1v1h1v1v1h-1h-1v1h-1h-1v-1v1h-1h-1h-1h-1v1h-1
	h1h-1h-1v1h-1h-1v-1v-1h-1l-1-1l-1-1v-1v-1h1l-1-1h-1h-1v1v1h-1v-1h-1v1v-1v1h-1v1h-1l1,1l1,1h-1h1h1v1v-1h1h1h-1v1v1h-1h-1v1h-1h1
	v1h-1v1v1v1h-1v1h-1v1h-1h-1v1v1v1v1h1v1h-1v1v1v1v1l1,1l1,1v1v1h1h2v1l1,1v1h-1v1h1v1v1h-1v1v1h1h-1v1l-1,1l1,1v1v1h-1v1v-1h-1h-1
	v1h-1h-1v1l1,1v1v1v1v1v1h1v1v1l1,1v1h1v1h1v1h1v1h1v1h1v1h1v1v1h1v1h1v1h1h1v1h1h1v1v1h1h1v1l1,1v1l1,1v1h1v1h1h1v1h1v-1h1l1-1h1h1
	h1h1l1,1h1h1h1v1h1h1v1h1v1h1v1v-1h1v-1h1v1h1v-1h1v1v-1h1v-1h-1v-1h1h1v-1h1h1v1h-1h1v1v-1h1h-1v-1h1l1-1h1l2-1v-1h1l-1-1v-1h-1v-1
	v-1h1v-1h1h1h1v-1h1h1h1h1h1h1v1h1v1h1h1v-1h1v-1v-2v-1v-2v-1l-1-1v-1v-1l-1-1v-1v-1l1-1v-1v-1h1v-1v-1v-1h-1l-1-1h-1l-1-1h-1h-1
	l-1-1v-1h-1v-1v-1l1-1v-1h1h1h1h1v-1h1v-1v-1h-1v-1h-1h-1h-1h-1v1h-1h-1l-1-1h-1v-1l-1-1v-1l-1-1v-1h-1v-1h-1h-1h-1h-1l-1-1h-1h-1
	h-1l-1-1l-1-1v-1v-1v-1v-1l1-1h1v-1h1v-1h1h1h1h1v-1h1v-1h1v-1v-1h-1v-1h-1v-1v-1v-1h-1l-1-1l-1-1h-1V564"/>
<path id="cv32_0" fill="#000010" stroke="#446EA2" d="M755,656h-1v-1h-1h-1h-1v-1h-1l-1-1h-1h-1h-1v-1h-1v-1h-1h-1h-1h-1v1v1v1l-1,1
	h-1v1h-1v1h1h1v1v1v1h1l1,1v1h1h1h1h1h1h1v1h1v1h1v1v-1h1h1h1l1,1h-1v1v1h1h1v1l1,1v-1l2,1v-1h1v-1h1v-1v1h1h2l1-1v-1v-1h1h1h1h1v-1
	v-1v-1v-1v-1h1v-1h-1h-1l-1-1h-1h-1h-1h-1h-1h-1l-1-1h-1h-1h-1H755"/>
<path id="cv33_0" fill="#000010" stroke="#446EA2" d="M735,655h-1v-1l-1-1v-1v-1h-1h-1v1h-1h-1v1h-1l-1,1h-1l1,1v1h-1v-1h-1h-1v-1
	h-1h-1h-1h-1v1h-1h-1v1h-1h-1v-1v-1h-1l-1-1v-1h-1l-1-1v1h-1v1v1h-1v1h-1v1h-1h1v1h1v1h1v1v1l1,1v1v1v1v1v1h-1v1v1v1v1v1h1v1v-1h1h1
	h1h1v1v1h-1v1h1v1h1l1,1h1h1v-1v-1v-1l-1-1v-1v-1l1-1h1v1l1,1v1v1v1v1h1v1v1v1h1h1v1h1v1l1,1v1h1h1l1-1l1-1h1h1h1h1h1h1h1h1h1h1h1h1
	h1h1l1,1h1h2h1h1v-1h1h1h1v-1h1h1h1h1v1h1h1v1h1h1v-1v-1h-1h-1v-1v-1v-1l1-1h1v-1v-1h1v-1h-1v-1v-1v-1l1-1v-1h-2h-1v-1v1h-1v1h-1v1
	l-2-1v1l-1-1v-1h-1h-1v-1v-1h1l-1-1h-1h-1h-1v1v-1h-1v-1h-1v-1h-1h-1h-1h-1h-1h-1v-1l-1-1h-1v-1v-1v-1h-1h-1v-1h-1h-1v-1H735v1V655"
	/>
<path id="cv34_0" fill="#000010" stroke="#446EA2" d="M535,629h-1h-1l-1,1h-1v1h-1h-1v1v1h1v1v1v1v1h-1h-1h-1v1h-1v1v1v1v1v1v1v1v1
	v1v1v1v1v1v1v1h1v1h-1v1v1v1h-1h-1h-1h-1v-1v1h-1v1v1h1v1v1h-1v1h-1v-1h-1v-1h-1v-1l-1-1h-1h-1v1h-1v-1h-1v1h-1v1h-1v1h-1v1h-1v1h-1
	v1h-1h-1v1v1v1v1v1v1h1v1h1v1v1v1l1,1v1h1v1v1l1,1v1v1v1v1h1v1h1h1h1v1h1l1,1v1h1v-1h1v-1h1h1v-1h1v1h1h1v-1h1h1l1-1h1v1h1v1h1h1v1
	h1v-1v1l1-1h1v1h1v1h1h1h1h1h1h1h1h1l-1,1h-1l1,1v1h-1v1v1v1v1h1v1h1h1v1l1,1h-1h-1v1h1v-1h1h1v-1h1h1v1h1h1v1v1h-1h1v1v1h1h1h1v-1
	h1v1h1l1-1h1h1v1h1v-1v-1v-1h1v-1h-1l1-1h-1v-1v-1h-1h-1h-1h-1h-1v-1v-1v-1h-1v-1l1-1v-1v-1h1v-1v-1h-1v-1v-1v-1h1v-1h1v-1h-1v-1h-1
	v-1v-1v-1v-1h-1h-1h1v-1h1v-1v1h1v1l1-1h1h1l1-1h1v-1l1,1l1-1v1v-1h1h1v-1h1h1h1l1-1h1h1v-1h1v-1l1,1h1v-1h1h1v-1v-1v-1v-1v-1v-1h-1
	v-1v-1h-1v-1l-1-1h-1v-1v-1v-1h-1v-1v-1v-1v-1v-1h-1v-1v-1h-1l-1-1h-1h-1v1h-1h-1h-1l-1-1v1h-1l-1-1h-1v-1v-1h-1v-1v-1h1h1h-1h-1v-1
	v-1v-1h-1v-1h-1v-1v-1h1h-1h-1h-1h-1v1h-1h-1h-1h-1v1h-1h-1h-1h-1v1h-1v1v1h1v1v1v1v1h-1h-1h-1h-1v-1h-1h-1h1v-1h-1v-1v-1v-1h-1v-1
	v-1v-1v-1v-1h-1l1-1v-1v-1l-1-1v-1v-1h-1V629"/>
<path id="cv35_0" fill="#000010" stroke="#446EA2" d="M707,654v-1v-1v-1h-1h-1h-1v1h-1v1v1l-1-1v-1h-1v-1l-1,1h-1v1v1h-1v1h-1h-1
	l-1,1h-1v-1v1v-1h-1v1h1v1v1h-1l-1-1h-1v-1v-1l-1,1v1v-1l-1-1l-1-1h-1h-1v1v1h-1h-1h-1v1v-1l1,1v1v1h1v1h-1h-1h1v1h-1h-1l-1,1v1
	l-1,1v1h-1v1v1v1v1h1v1h-1v1h-1v1v1h1v1h1v1v1v1l-1,1v1h-1v1l1,1h1v1h1v1l1,1h1h-1v1h1v1v1v-1v1v1v1v1h-1h1v1h1v1v1h-1v1h1v1h1v-1h1
	l1-1l1-1h-1v-1h1v1l1,1v1h1v1v1h-1l1,1h1h1v1h1h1h1v-1v-1v-1v-1h1v-1h1v-1v-1v-1l1-1l1-1v-1v-1h1v-1l1,1h1v-1h1v-1h1v-1h1h1v-1v-1
	v-1v-1h-1l1-1v-1v-1v-1h1v-1h1v-1v-1h1v1h1h1v1v-1l1-1v-1h-1v-1v-1v-1v-1v-1h1v-1v-1v-1v-1v-1l-1-1v-1v-1h-1v-1h-1v-1h-1v-1h-1V654"
	/>
<path id="cv36_0" fill="#000010" stroke="#446EA2" d="M691,637h-1l-1-1v-1v-1v-1h-1v-1l-1-1l-1-1h-1v1v1v1v1v1v1h1h1v1v1l-1-1l-1-1
	v-1v-1h-1l-1-1v1l-1,1v1v1h-1v1v1v1v1v1v1v1h-1h-1v1h-1h-1v1l1-1h1v1h1v1h1v-1h1v1h1v1h1h-1v1l-1,1v1l-1-1v-1v-1v1h-1v-1v1h-1v-1
	l-1,1v-1h-1v1v1v1h-1h-1v1h-1v1h-1h-1v1h-1h-1h-1v1l-1,1h-1h-1v1v1v1h1v1h1v-1v1h1v1v1h1v1v1v1h1l1-1h1v-1h1h1h1v-1h1v-1h1h1h1h1h1
	h1h1v-1h-1h1h1v-1h-1v-1v-1l-1-1v1v-1h1h1h1v-1v-1h1h1l1,1l1,1v1v-1l1-1v1v1h1l1,1h1v-1v-1h-1v-1h1v1v-1v1h1l1-1h1h1v-1h1v-1v-1h1
	l1-1v-1h-1v-1v-1h-1v-1h1v-1v-1v-1h-1v-1h-1h-1h-1v-1h-1v-1h-1v-1v-1h-1l-1-1h-1V637"/>
<path id="cv37_0" fill="#000010" stroke="#446EA2" d="M723,675h-1v-1v-1v-1v-1l-1-1v-1h-1l-1,1v1v1l1,1v1v1v1h-1h-1l-1-1h-1v-1h-1
	v-1h1v-1v-1h-1h-1h-1h-1v1l-1,1v1v-1h-1h-1v-1h-1v1v1h-1v1h-1v1v1v1l-1,1h1v1v1v1v1h-1h-1v1h-1v1h-1v1h-1l-1-1v1h-1v1v1l-1,1l-1,1v1
	v1v1h-1v1h-1v1v1v1v1h-1v1h1h-1h1v1h1h1h1h1l1,1h-1h-1h-1v1l-1,1h-1v1l1,1h-1h1h1v-1h1h1v1l1-1h1v1v1h1v-1h1v-1h1l1,1h-1h1v-1h1h1h1
	v1v1v1h1h1h1h1v-1v-1l1-1v-1h1v-1l-1-1v-1v-1v-1v-1v-1v-1h1v-1h1v-1v-1h1h1h1v-1h-1v-1v-1h1h1v-1h1h1h1v-1v-1l1-1v-1v-1v-1h1l1-1h1
	v1h1v-1l-1-1v-1h-1v-1h-1h-1v-1v-1V675"/>
<path id="cv38_0" fill="#000010" stroke="#446EA2" d="M678,680v-1h1v-1l1-1v-1v-1v-1h-1v-1h-1v-1v-1h1v-1h1v-1h-1v-1v-1v-1v-1h1v-1
	l1-1v-1l1-1h-1h-1h-1h-1h-1v1h-1v1h-1h-1h-1v1h-1l-1,1h-1v-1v-1v-1h-1v-1v-1h-1v-1v1h-1v-1h-1h-1v1v1v1v1h-1h-1l-1,1h-1l-1-1h-1
	l-1-1l-1,1l1-1h-1h-1v1h-1h-1h-1v1h-1v1v1v-1h1v1h1v1h1v-1l1-1v-1v1h1v1v1l1,1h1v1h1v1v1h-1v1h-1v1h-1v1h1h1l1,2v1h1v1v1v1v1h-1v1
	l-1,1h-1l-1,1v1h-1v1h-1v1h-1l1,1h1h1v1h1v1h1v1v2v1v1l-1,1v1h-1l-1,1l-2,1v1h-1h1h-1v1h-1v1h-1h-1h-1l-1,1h-1h-1h-1v1h-1l-1,1l-1,1
	l-1,1v1h1v-1h1h1h1v-1h1h1h1h1h1h1v-1h1h1h1v-1h1h1l1-1h1v-1h1h1l1-1h1v1v1v1h-1v1v1v1h1v1v1h-1v1v1v1v1v1h-1v1l-1,1v1h1h1v1h1h1v-1
	h1v-1h1v1h1h1v-1v-1v-1h1v-1h1v1v-1l1,1l1-1v-1v-1h1h1h1h1v-1v1v-1h1h1v-1h-1v-1h1h1h1h1v-1v-1h1v-1h1v-1h1h1v-1v1v-1l1-1h1h-1h1v-1
	v-1h1h1v-1v-1h1h1h1l1,1v-1v-1h-1h-1l-1-1h1v-1v-1h-1v-1l-1-1v-1h-1v1h1l-1,1l-1,1h-1v1h-1v-1h-1v-1h1v-1v-1h-1v-1h-1h1v-1v-1v-1v-1
	v1v-1v-1h-1v-1h1h-1l-1-1v-1h-1v-1h-1L678,680"/>
<path id="cv39_0" fill="#000010" stroke="#446EA2" d="M675,483h-1v-1h1h-1h-1v1v1v1h-1h-1v1v1v-1l-2,1v1h1v1h-1h-1h-1v1h-1v1h-1l1,1
	v1h1v1h-1v1v1h1v1h1v1l-1,1v1l-1,1v1h-1l-1,1h-1l1,1v1h1v1l1,1h-1l-1,1v1l-1,1l-1,1v-1v-1l-1-1h-1v-1h-1l-1-1h-1v-1h-1h-1v-1h-1h-1
	v1h-1h-1h-1h-1h-1h-1h-1h-1h-1l-1,1h-1v1h-1v1v1l-1,1h1v1h-1l-1,1l-1,1h-1v1h-1h-1v-1v1h-1h-1h-1v1l1,1v1v1v1h1v1h1v1h1v1v1v1h1v1v1
	h1h-1v1v1v1v1v1l1,1l1,1v1h1v1h1l1-1v-1h1v1h1h-1l-1,2h1h1v1v1h1h1l1,1v1h-1l-1,1h-1h-1v1h1v1h1v1h1h1v1l1,1h1h1v-1l1,1v1v-1v-1v-1
	v-1v-1v-1v-1v-1h1h1v-1h1v-1v-1h1v-1v-1h1v-1h1h-1v-1h-1v-1v-1h1l-1-1h-1v-1v-1h-1v-1h1v-1v-1v-1v-1v-1l1,1h1h1h1h1h1h1h1h1h1h1h1h1
	v1v-1h1v-1h-1v1v-1h1l-1-1h1v-1v1h1v-1h1l1,1v1h1h-1v1v1v1v1v1h1v-1h1h1h1h1h1v1h1h1v-1h1h-1v-1l-1-1h-1v-1h-1v-1h-1v-1h1h-1v-1h1
	h-1l1-1h1h-1v-1h1v-1v-1l-1-1v-1h-1v-1v-1v1v-1h-1h1v-1v1v-1h1v1l1-1v-1v-1h-1v-1h1h1v1h1h1h1v-1h1h1h1v1h1h1v1h1v1v-1h1v-1h1v-1
	l1-1v-1h-1v-1v-1h1v-1v-1v-1h1v-1v-1v-1v-1h1h-1v-1v-1v-1v-1h-1h-1h-1h-1h-1v-1h-1h-1l-1-1h-1v-1h-1h-1h-1v-1h-1v-1v1h-1v-1h-1v-1
	h-1v-1v1h-1v-1h1v-1h1L675,483"/>
<path id="cv40_0" fill="#000010" stroke="#446EA2" d="M726,487h-1h-1l1,1L726,487"/>
<path id="cv41_0" fill="#000010" stroke="#446EA2" d="M766,402v-1l-2-3v-1h-1l-1-1h-1h-1l-1,1h-1l-1,1h-1v1h-1h-1v1h-1v1h-1l-1,1h-1
	l-1,1v1v1h1v1v2v1v2v1v1v1h-1l-1-1h-1h-1l-1,1v1h-1h-1h-1l-1,1h-1h-1h-1v1v1h-1v1v2v1v1h1v1v1h1v1h1l-1,1h-1h-1l-1-1v1h-1h-1v1h-1
	l-1-1v1l-1,1v1h-1v-1h-1l-1,1h-1h-1h1v1h-1v-1h-1h-1v1h-1v1h1v1l1,1v1h-1v1h-1v1h-1h1v1v1v1h-1v1v1l-1,1h-1h-1v-1h-1v1h-1v1h-1v1h-1
	v1h-1v1h1h1v1h1v1h-1v1h-1h-1v-1h-1h-1l-1-1h-1l-1-1h-1h-1h-1h-1h-1v-1v1v-1h-1l-1-1h-1v-1h-1h-1v-1h-1h-1l-1,1v1v1v1h-1v1h-1v1v1
	h-1v1l-1,1v1h-1v1h-1v1h-1v-1h-1v1h-1v-1h1v-1h-1v-1h-1v1h-1v-1v-1h-1l-1,1v1h-1l1,1v-1h1v1v1h-1h-1l1,1h-1v-1h-1l1-1h-1h1v-1h-1h-1
	v1l-1,1v1h-1h-1h-1h-1l-2-1l-1,1v-1v1h-1h-1h-1h-1v1v1l1,2h1l-1,1v1l1,1l1,1h-1l1,1h-1l1,1v1h-1h1v1h-1v1h-1h-1v-1v-1h-1v1v-1v1h-1
	v1h1v1v1v-1h1v1v1h1v-1v1v1v1v1v1h1v1h1v1v-1h1v1v1h1v-1v-1v1v1v1h1v1h1v1h-1v1h1l1,1h-1v1h-1v1h1v-1v1h1v1h1v1h1v-1v1h1v1h1h1h1v1
	h1l1,1h1h1h1l1-1h1h1v-1v-1v-1h1h1h1h1v-1h1v-1h1h1v-1h1v-1l1-1v1v-1v-1v-1v-1l-1-1l2-1l1-1l1,1v-1l1-1l1-1v1l2,1l1,1v1h1h1h1v-1h1
	v1v1h1l1,1h1h1h1h1v1h1h1h1v1h1h1h1h1v1v1v1h1l1,1h1h1h1v-1l-1-1l1-1h1h1h1h1v-1h1h1l-1-1v-1h-1v-1h-1v-1v-1v-1l1-1h1h1l1,1h1v1h1h1
	h1v1h1l1,1v1v1h1h1v-1h1v-1h1v1v-1v-1v1v-1h1h1h1v1h1l1,1h-1h1h1v-1h1v-1v-1v-1h-1l1-1l-1-1v-1v-1v-1h-1v-1v-1v-1h1h1h1h1h1h1v1h2h1
	h1l-1-1l1-1v-1l1-1v-1h1v-1h1v-1h1v-1v-1h1v-1v-1h1v-1v-1v-1l-1-1v-1l-1-1v-1h-1h-1l-1-1h-1v1h-1v1v-1h-1v1l-1-1h-1h-1v-1h1h-1v-1
	v-1v-1h-1v-1v-1h1v-1h1v-1v-1l-1-1v-1h1v-1h1l1-1h1v-1v-1v-1v-1h1v1h1h1h1h1v-1h1v-1h1l1-1h1h1h1v1h1v1v-1h1l1-1v-1v-1v-1v-1v-1h1
	v-1h-1h1l1-1v1h1h1h1v-1l-1-1v-1v-1v-1h-1v-1h-1v-1l-1-1v-1l-2-2l-1-1h-1v-1v-1h-1v-1l-1-1l-1-1v-1v-1v-1h-1v-1v-1v-1L766,402"/>
<path id="cv42_0" fill="#000010" stroke="#446EA2" d="M647,469v-1h-1h-1h-1l1,1h-1v1h-1v-1v1v1v1h1v1h1h-1v1h-1v1h-1l-1,1h1v1h1l1,1
	l-1,1h1v1v1h1v1h1v1h1v1l1,1v1v1h-1h-1v1l-1-1h1v-1h-1h-1h1h-1v1h1v1l1,1h-1v-1h-1v1v-1v-1v-1h-1v-1v1h-1v1h-1h1h-1l-1,1v1v1h-1
	l-1-1h-1v-1h-1v-1v1v-1v1v-1h-1h-1h-1h-1h-1h-1h-1h-1h-1v-1h-1h-2v1l1,1l1,1h1v1v1h1l1,1h1h1l1,1v1h-1v1v1h-1v1h-1v1h-1v1v1h-1v1v1
	v1h1v1h1v1h1h1v1v1v1h-1v1h1v1v1h-1l-1,1v1h-1v1v1h1v1h1h-1v1v1l1,1v-1h1h1h1v-1v-1l-1-1v-1h1h1h1v-1v1h1h1v-1h1l1-1l1-1h1v-1h-1
	l1-1v-1v-1h1v-1h1l1-1h1h1h1h1h1h1h1h1h1v-1h1h1v1h1h1v1h1l1,1h1v1h1l1,1v1v1l1-1l1-1v-1l1-1h1l-1-1v-1h-1v-1l-1-1h1l1-1h1v-1l1-1
	v-1l1-1v-1h-1v-1h-1v-1v-1h1v-1h-1v-1l-1-1h1v-1h1v-1h1h1h1v-1h-1v-1l2-1v1v-1h-1v-1h-1v-1v-1h-1v-1h-1v-1v-1v-1v1h-1h-1v-1h-1h-1
	l-1-1h-1v1v-1h-1h-1v1h-1v-1h-1l-1-1v-1v-1h-1h-1h-1v-1l-1,1v-1v-1l-1-1h-1v1l-1-1l-1-1l-1-1V469"/>
<path id="cv43_0" fill="#000010" stroke="#446EA2" d="M856,633v-1h-1h-1h-1h-1v1h-1h-1h-1h-1h1v1h-1h1v1v1v1h1h-1v1v1h1v1v1v1h1h-1
	v1v1v1h-1l1,1v1v1h-1l1,1v1v1h-1v1v1h-1h-1v1v1h1v1h-1h-1h-1v1h-1v-1v-1h-1h-1v1v-1h-1v1v-1h-1v-1v-1v-1v-1l-1,1l-1-1h1h-1h-1v1v1h1
	v1l1,1l1,1v1v1h1l1,1h1v1h1v1v1h-1h-1h-1h-1v1v1h-1v1l-1,1v1h1l1,1h1h1h1h1h1v1h1v1v1v1h-1v1v1l-1,1v1v1l-1,1l1,1h-1v1v1v1h1v1h1v1
	h1v1h1h1h1h1v-1h1h1v-1h1v-1l1-1v-1v-1h1h1l1,1h1h1v1h1v1h1v1h1v1v-1v1h1v1h1l1,1l1,1h1l1,1v-1v-1h1v-1v-1v-1v-1h-1v-1v-1h-1v-1v-1
	v-1v-1l1-1h1l1-1l1-1h1v-1h1h1v-1h1v-1v-1v-1l1-1v-1v-1v-1v-1h-1v-1l-1-1h-1h-1h-1h-1h-1h-1h-1l-1-1h-1v-1h-1l-1-1l-1-1h-1v-1v-1v-1
	h-1v-1v-1v-1v-1v-1v-1h-1v-1v-1v-1v-1v-1h-1v-1v-1h-1v-1v-1v-1v-1v-1v-1l-1-1V633"/>
<path id="cv44_0" fill="#000010" stroke="#446EA2" d="M661,608v-1h-1v1h-1v1h-1v1h1h-1v1h1h-1v1h1h1l1,1h-1h1v1h1v1v1h1v1h-1v1l1,1
	v1v1v1v1h-1h-1h-1h-1h-1h-1v1h-1h-1h-1h-1h-1h-1h-1v1h-1h-1h-1l-1,1h-1v1h-1h-1h-1v1h-1v1h1h-1v1h1l-1,1v1l1-1v1h-1h-1v1h-1h-1v1v-1
	v1v-1v1h-1v1h1v-1h1h1h1v-1h1v-1h1h1l1-1h1v-1h1l1-1h1v-1h1h1v-1h1v1v1v1h-1v1v1h-1v1h-1v1h-1h-1v1v1h1h-1v1h1v1v1h-1v1h1v-1v1l1-1
	h1v1h-1v1v1v1v-1v1h1v1h-1v1h-1h1l1-1v1v-1h1v1h1v1h1l1-1v1v1h-1v1h1h-1h1l1-1v1v1l1,1v1h1h1v-1h1l1,1v1v1v1v-1h1h1l-1,1v1v1h1h1
	l1,1h1h1v-1h1h1l1-1v-1h1h1h1v-1h1h1v-1h1v-1h1h1v-1v-1v-1h1v1l1-1v1h1v-1v1h1v-1v1v1l1,1v-1l1-1v-1h1h-1v-1h-1v-1h-1v1h-1v-1h-1v-1
	h-1l-1,1v-1h1h1v-1h1h1v-1v-1v-1v-1v-1v-1v-1h1v-1v-1l1-1v-1l1,1h1v1v1l1,1l1,1v-1v-1h-1h-1v-1v-1v-1v-1v-1v-1h1h-1v-1h-1h-1v-1h-1
	v-1h-1v-1v-1v-1l-1-1v-1v-1h-1h-1h-1v-1h-1h-1v1h-1h-1h-1h-1v-1h-1v-1h-1h-1l-1-1v-1h1v-1h1v-1v-1l-1-1h-1l-1-1h-1h-1l-1-1h-1v-1v-1
	v-1H661"/>
<path id="cv45_0" fill="#000010" stroke="#446EA2" d="M879,624h-1h-1h-1v1h-1h-1h-1h-1v1h-1h1v1h-1h-1h-1l-1,1h-2h-1l-1,1h-1h-1
	l-1,1h-1h-1h-1l-1,1h-1v1v1v1l1,1v1v1v1v1v1v1h1v1v1h1v1v1v1v1v1h1v1v1v1v1v1v1h1v1v1v1h1l1,1l1,1h1v1h1l1,1h1h1h1h1h1h1h1l1,1v1h1
	v1v1v1v1l-1,1v1v1v1h-1v1h-1h-1v1h-1l-1,1l-1,1h-1l-1,1v1v1v1v1h1v1v1h1v1v1v1v-1h1h1h1h1h1v-1h1h1v-1h1h1h1l1,1v1h1v1v1h-1l1,1
	l-2,1l-1,2l-1,1h1v1v1v-1l1,2h1v1h1h1h1h1h1v-1h1h1l1-1h1h1v1h1h1h1l-1-1v-2l-1-1v-1v-1l-1-1l-1-1v-1v-1v-1l1-1v-1h1v-1v-1l-1-1v-2
	l-1-1v-1v-1l1-1v-1v-1l1-1v-2v-1v-1v-1l-1-1l-1-1v-1h-1v-1l1-1v-1v-1v-1v-1v-1v-1v-1l1-2v-1v-1v-1v-1v-1v-1v-1l1-1h-1v-1l1-1l1-1v-1
	l1-1h1v-1v-1v-1v-1v-1v-1h1v-1l1-1v-1v-1h1h-1v-1v-1h-1h-1h-1v1h-1v-1h1h-1v-1v1l-1,1h-1h-1v-1h-1l-1-1v1h-1h-1h-1l-1,1h-1h-1v-1h-1
	h-1V624"/>
<path id="cv46_0" fill="#000010" stroke="#446EA2" d="M698,485h-1h-1h-1v1h-1v1h-1h-1h-1h-1v1v1v1h-1h-1l-1,1h-1v1h1h1h1h1h1v1h1h1
	l1,1h1v1h1l1,1h1h1h1v1h1h1l1,1l1,1v1h1v1h1v1v1h1v1v1v1h1v1h1l1,1h1h1h1h1l2,1h1v1h1v1v1h1v2v1v1l1,1l1,1h1v1l2,1h1v1l1,1v1l-1,1
	l-1,1v1v1h-1v1h1v1v1v1v1v1l1,1l-1,1v1v1v1h-1v1v1v1v1v1h1h1v1h1l-1,1h1h1v1h1v-1h1h1h1v1v1v-1h1h-1v-1h1h1h1v-1l-1-1l-1,1h-1v-1v-1
	v-1v-1h1h1v-1h1v-1h1v-1h1h1v1h1v-1h1v-1v-1v1l1-1v1h1h1h1h1v-1l1,1h1h1h1h1v-1h1h1h1h1l1,1h1h1h1h1l-1-1h-1v-1h-1h-1h-1v-1v-1v-1h1
	v-1h1v-1v-1h1v-1v-1l1-1h1v-1v-1h1v-1v-1h-1v-1l-1-1v-1l-1-1h1h-1v-1h-1v-1l-1-2v-1h-1h-1h-1v1v1h-1l-1,1h-1l-1-1v1h-1v1h-1v-1h-1
	v-1h-1v-1h-1v-1h-1v-1h-1v1v-1h-1v-1h-1v-1v1v-1v-1l-1-1v-1h-1v-1h-1l-1,1h-1v1h-1h-1v-1h-1v-1v1h-1v1l-1-1v-1v-1v-1v-1v-1v-1v-1v-1
	v-1v-1v-1h-1v-1v-1h1v-1l1-1v-1h-1v-1h-1h-1v1h-1h-1v-1h-1h-1v-1h-1h-1v1h-1h-1h-1v1l-1-1v1h-1l-1,1h-1l-1,1h-1l-1-1l-1-1h-1l-1-1
	h-1h-1l-1-1h-1h-1v-1h-1l-1-1h-1v-1H698"/>
<path id="cv47_0" fill="#000010" stroke="#446EA2" d="M585,520h-1v-1v-1l-1-1h-1h-1l-1,1h-1v1h-1v1h-1h-1h-1h-1h-1v1l-1,1h-1h-1v1
	h-1v1h-1h-1v1h-1h-1v1v1h-1h-1h-1h-1v1h-1h-1h-1v1h-1v-1h-1l-1,1h-1v-1h-1h-1v1h-1h1h-1v1h-1h-1h-1v1h-1v1h-1h-1h-1v1h-1h-1h-1v1h-1
	h-1h-1v-1h-1h-1v1h-1h-1v1h-1v1h-1v1v1h-1h-1l-1,1h-1h-1v1v1h1l1,1h-1v1v1v1h1v-1h1v1v1h1v1v1v1h1v1v1h1v-1h1l1,1v1h1v1h-1v1h-1h-1
	v1h-1v1l1,1v-1h1v1l1,1v1h-1h-1h-1v1v-1h-1v1h-1v1h-1v1l-1-1v1v1h-1v1h1v1h1h1v1h1v1h-1h-1v1h-1v1v1v1v1v1h-1h-1h-1v-1h-1v-1v-1h-1
	l-1-1h-1h-1h-1h-1v-1h-1h-1h-1l-1,1h-1v1h1v1h-1v1h-1v1v1h-1v1h1v1v1h1v1l1,1h1v1h1v1h1h1h1h1h1h1h1v-1h1h1v-1v-1v-1h1h1v-1h1h1v-1
	l1-1h1v-1h1v-1h1v-1h1v-1h1l1-1h1v-1v-1h1v-1h1v-1h1v-1h1v-1v-1h1v-1h1v-1v1h1h1v1h1v1h1v-1v-1h1v-1h1v-1v-1v-1v-1v-1h1h1h1h1h1v-1
	h1h1h1h1h1h1v-1l1,1v1v1h-1v1h1v1h1v-1h1v1v-1h1h1h1h1h1l1-1l1-1v-1h-1v-1l1-1v-1l1-1h1h1v-1h1v1h1v1h1v1l1-1v-1h1v-1l1,1h1l1-1h1h1
	h1v-1h1h1v-1h1v-1v1h1h1h-1h-1h-1v1h1v1h1h1h1h1v1v1h-1v1v1h-1h-1l-1,1l-2,1h-1h-1h1v1v1v1v2h1h1h1h1l1-1h1h1h1l1-1h1h1h1v-1h1v-1h1
	h1v-1v-1h1v-1h1h1v-1h1v-1h1v-1v-1h1h1v-1h1l-1-1h-1h-1h-1l1-1v-1v-1v-1v-1h-1h-1v-1v-1l1-1v-1h-1v-1h-1v-1h-1v1h1l-1,1l-1-1v-1v-1
	v-1v1h-1v-1v-1v-1l-1-1h-1l-1,1h-1h-1l-1-1h-1v-1v-1h-1h-1v-1h-1l1-1l1-1h-1h-1h-1h-1v-1v-1v-1h-1v-1v-1V520"/>
<path id="cv48_0" fill="#000010" stroke="#446EA2" d="M778,426h-1h-1v-1l-1,1h-1h1v1h-1v1v1v1v1v1l-1,1h-1v1v-1h-1v-1h-1h-1h-1l-1,1
	h-1v1h-1v1h-1h-1h-1h-1v-1h-1v1v1v1v1h-1l-1,1h-1v1h-1v1l1,1v1v1h-1v1h-1v1v1h1v1v1v1h1h-1v1h1h1l1,1v-1h1v1v-1h1v-1h1l1,1h1h1v1
	l1,1v1l1,1v1v1v1h-1v1v1h-1v1v1h-1v1h-1v1h1h1v1h1v1h1v1l1,1h1v1h1v1v1h1l1,1h1h1v-1h1v1h1h1v-1h1v1v1v1l1,1h-1l1,1v1v1h1h1h1v-1
	l1,1l1,1h-1v1h1h1l1,1h1v1v-1h1l-1-1l1-1v-1h1h1h1v-1v-1h1v-1v-1h1h-1v-1v-1h-1v-1l1,1h1h1l-1-1h-1h-1v-1h1h1h1h1h1v-1v1h1v1v-1l1,1
	l1,1v-1h1h1v1l1,1h-1l-1-1v1v1h1h1l1,1v1h1v1v1v1h1v1h1h1h1h1v1h1v1h1v1v1h1v-1v-1v-1h1v-1v1h1v-1v-1h1v-1h-1v-1h-1v-1l1-1v-1l1-1
	v-1v-1v-1v-1l1-1v1h1h1h1v-1h1v-1v-1v-1v1h-1h-1v1h-1v-1v-1h1v1h1v-1h1v-1v-1v-1l-1-1l-1-1l-1-1v-1h-1v-1h-1v-1v-1v-1v-1v-1v-1l-1-1
	v-1v-1v-1v-1v-1h-1v-1l-1-1v-1v-1h-1v-1v1h-1v1h-1v1v1v1v1v1l-1,1h-1v1h-1h-1h-1l-2-1h-1h-1h-1v-1h-1v-1h-1h-1l-1-1l-1-1h-1l-1-1h-1
	h-1h-1h-1l-2,1h-1h-1h-1h-1h-1v-1v-1h-1v-1v-1v-1v-2v-1l-1-2v-1v-1v-1v-1v-1v-1v-1v-1H778"/>
<path id="cv49_0" fill="#000010" stroke="#446EA2" d="M575,550h-1v-1h-1v1h-1h-1l-1,1v1l-1,1v1h1v1l-1,1l-1,1h-1h-1h-1h-1h-1v1v-1
	h-1v1h-1v-1h-1v-1h1v-1v-1l-1-1v1h-1h-1h-1h-1h-1h-1v1h-1h-1h-1h-1h-1v1v1v1v1v1h-1v1h-1v1v1h-1v-1h-1v-1h-1h-1v-1v1h-1v1h-1v1v1h-1
	v1h-1v1h-1v1h-1v1v1h-1l-1,1h-1v1h-1v1h-1v1h-1v1h-1v1h1l-1,1v1h1h1h1v1h1h1h-1v-1h1v1h1v-1h1v-1v-1h1v1h1v-1h1h1v1v-1l1,1h1v1h-1h1
	v1h1l1,1h1v1l1,1h1l1-1v-1h1h1v1h1v1v1v1v1h1v1l1,1l1-1v1v-1h1h1h1v-1h1h1l1-1h1l1-1l1-1h1v-1l2-1h1l1-1h1l1,1v-1v1v-1l1-1v1v1h1v-1
	h1l2-1l-2-1v-1h1l-1-1h-1l1-1h-1h-1l1-1h1v-1h1h-1h1v-1v-1v-1h1v-1h1h1v-1h1v-1h1l1-1h-1v-1v-1h-1v-1h1v-1h-1v-1v-1v-1h-1v-1v-1h-1
	v1l-1-2h-1h1l1-1v-1h-1v-1h-1V550"/>
<path id="cv50_0" fill="#000010" stroke="#446EA2" d="M531,577h-1v-1l1-1h-1v-1l-1,1v1h-1h-1v1h-1h-1v1v1v1h-1h-1v1h-1h-1h-1h-1h-1
	h-1h-1v-1h-1v-1h-1l-1-1v1h-1v-1v1h-1h-1h-1h1v1v1h-1h-1h-1l1,1h-1h-1v1h1h-1h-1h-1h1l-1,1h-1h-1v1h-1v-1v-1l-1,1h1v1v1v1v1v1v1h-1
	h-1v1h-1h-1v1h-1v1h-1v-1v1v-1h-1h-1v1h-1v1h-1v1v-1h-1v1h-1h-1h-1h-1v1h-1h-1v1h-1h-1h-1h-1v1v1h1h1v1v1v1v1v1v1v1v1h1h-1v1h-1v1h1
	v1l-1,1v1h1h1h1h-1v1l-1,1h-1v1h-1l-1,1v1v1v1l1,1h1h1h1v1v1h1h1h1v-1h1h1v1l1,1v1h1v-1h1v1v-1h1h1h1v-1h1h1v-1v1h1v-1l1,1v-1h1h1
	v-1v-1h1v1h1h1h1v1v-1h1h1v-1v-1v-1h1v-1h1v-1h1h1h1h1v-1h1v-1v-1h1h1v1h1l1,1v1h1h1h1h1v1h1v-1v-1h1h1h1h1h1h1h1h1v1l1,1h1h1h1v-1
	h1v-1h1h1l1-1v-1v-1v-1h1v1h1v1h1h-1h1v1v1l1,1l-2,3l-1,1v1l1,1h1l1,1h1v-1h1v1l1,1v1v-1h1h1v-1h1l1-1h1h1v-1h1v-1h1l1-1h1v-1v-1h-1
	v-1v-1v-1h1h1h-1v-1h-1h1v-1h1v-1l1-1l1-1h1v-1h1v-1v-1h1v-1h1v-1l1,1v-1v-1h1v-1h-1l-1,1h-1v1v-1l-1-1v-1v-1v-1h-1v-1v-1h-1v-1v-1
	v-1v-1l-1-1h-1h-1h-1h-1h-1h-1h-1v-1h1v1v-1l1-1h-1v-1v-1v-1h-1v-1h1h-1v-1h1h1l-1-1h-1v-1v-1h-1h-1v1v1h-1v1v1v-1v-1l1-1v-1h-1
	l-1-1v-1h-1l-1-1h-1v-1h-1h1v-1h-1l-1-1v1v-1h-1h-1v1h-1v-1h-1v1v1h-1v1h-1v-1h-1v1h1h-1h-1v-1h-1H531"/>
<path id="cv51_0" fill="#000010" stroke="#446EA2" d="M853,566h-1v-1h-1h-1v-1h-1v1l1,1l1,1l1,1v1h1h1v1h1h1v-1v1v1v1v1l-1,1v1v-1v1
	h-1h-1v1v1l1,1v1h-1v1v1v1v1v1v1l1-1l2-1l1,1v1v1v1h1h1h1h1v1v-1v1l-1,1h-1v1h-1l-1,1h-1v1h-1h-1v1v1h-1v1h-1h-1h-1h-1v1l-1,1v1v1h1
	v1l1,1h1h1l1,1h1l1,1h1v1v1v1h-1v1v1l-1,1v1v1l1,1v1v1l1,1v1v2v1v2v1v1l-1,1v1v1v1v1v1l1,1v1h1l1-1h1h1h1l1-1h1h1l1-1h1h2l1-1h1h1h1
	v-1h-1h1v-1h1h1h1h1v-1h1h1h1v1h1h1v1h1h1l1-1h1h1h1v-1l1,1h1v1h1h1l1-1v-1v1h1h-1v1h1v-1h1h1h1l-1-1v-1v-1l-1-1v-1l-1-1v-1v-1v-1
	l-1-1v-1v-1v-1v-1v-1h-1v-1l-1-2v-1l-1-2l-1-2l-1-2v-1l-1-1l-1-1l-1-1v-1h-1v-1v-1h-1v-1v-1h-1v-1l-1-1v-1l-1-1h-1v-1v-1l-1-1l-1-1
	v-1v-1h-1v-1v-1l-1-1v-1v-1h-1v-1v-1l-1-1h-1v-1h-1v-1h-1v-1h-1l-1-1h-1l-1-1l-1-1h-1h-1v-1h-1l-1,1l-1,1h-1h-1v-1h-1v-1v-1h-1h-1v1
	H853"/>
<path id="cv52_0" fill="#000010" stroke="#446EA2" d="M646,605l-1-1h-1v1h-1h-1h-1v1h-1v1h-1h-1v1h1v1v1h-1v1v1h1v1h-1h-1l1,1h-1h-1
	v1h-1v1h-1v1h-1v1v1h-1v1h-1v1h-1v1l-1,1v1h-1v1h1v1h1h-1v-1h-1l-1-1v1h-1l-1,1l1,1h-1v1v1l-1-1h-1l-1,1v1l-1,1h-1h-1v1h-1l-1,1h-1
	v-1v1h-1v1h-1v-1h-1v1h-1h-1h-1h-1l-1,1h1h1v-1h1h1v1v1h1v1l1,1h1v-1h1l2-1h1l1-1h1v-1h1v1h1v1h1v1h-1h-1v1h-1l-1,1h-1l1,1h-1h-1
	l1,1h-1l1,1v1l1,1l1,1l1-1v-1v-1v-1v-1h1v-1h1h1h1h1h1h1l1,1v-1h1l1,1h1v-1h1v-1h1h1v-1h1v1h-1v1h-1h1v1v1v1v1h1l1-1h1h1h1v1h1v1h1
	h1h1v-1v-1h1v-1v-1h1v-1h1v-1v-1h-1v-1h1h-1v-1v-1h1h1v-1h1v-1h1v-1v-1h1v-1v-1v-1h-1v1h-1h-1v1h-1l-1,1h-1v1h-1l-1,1h-1h-1v1h-1v1
	h-1h-1h-1v1h-1v-1h1v-1v1v-1v1v-1h1h1v-1h1h1v-1l-1,1v-1l1-1h-1v-1h1h-1v-1h1v-1h1h1h1v-1h1l1-1h1h1h1v-1h1h1h1h1h1h1h1v-1h1h1h1h1
	h1h1v-1v-1v-1v-1l-1-1v-1h1v-1h-1v-1v-1h-1v-1h-1h-1l-1,1v-1v1v1v1h-1v-1h-1h-1h-1v-1h-1h-1h-1h-1h-1v-1h-1h-1v-1h-1l-1-1v-1v-1v-1
	v-1v-1h1V605"/>
<path id="cv53_0" fill="#000010" stroke="#446EA2" d="M707,477l-1-1l-2-1v-1l-1,1l-1,1v1l-1-1l-1,1l-2,1l1,1v1v1v1v1v-1l-1,1v1h-1v1
	h1h1v1h1l1,1h1v1h1h1l1,1h1h1l1,1h1l1,1l1,1h1l1-1h1l1-1h1v-1l1,1v-1h1h1h1v-1h1h1v1h1h1v1h1h1v-1h1h1v1h1v1l-1,1v1h-1v1v1h1v1v1v1
	v1v1v1v1v1v1v1v1l1,1v-1h1v-1v1h1v1h1h1v-1h1l1-1h1v1h1v1l1,1v1v1v-1v1h1v1h1v1v-1h1v1h1v1h1v1h1v1h1v1h1v-1h1v-1l1,1h1l1-1h1v-1v-1
	h1h1h1v1l1,2v1h1l1-1h-1v-1h-1l1-1v1l1-1h1h1v1h1v1v1h1v1h1h1h1v1h1l1,1h1v-1h1v-1v-1v-1l1-1v-1l1-1l1-1h-1h-1v-1h-1v-1v-1l-1-1h1
	l-1-1h-1h-1v-1l-1-1v-1v-1l1,1v-1h1h1v-1v-1v-1v-1v-1h-1v-1h-1v-1v-1h-1l-1-1h-1h-1v-1h-1h-1h-1h-1h-1h-1v-1v1h-1v-1v-1l-1-1v-1v-1
	h-1l-1-1h1h-1l1-1h-1v-1h1h-1h1l-1-1h-1v-1h-1v-1h1v-1h1l-1-1h-1v-1h-1h-1h-1v1v-1v1v1v-1h-1v1h-1v1h-1h-1v-1v-1l-1-1h-1v-1h-1h-1
	h-1v-1h-1l-1-1h-1h-1l-1,1v1v1v1h1v1h1v1l1,1h-1h-1v1h-1h-1h-1h-1l-1,1l1,1v1h-1h-1h-1l-1-1h-1v-1v-1v-1h-1h-1h-1h-1v-1h-1h-1h-1v-1
	h-1h-1h-1h-1l-1-1h-1v-1v-1h-1v1h-1h-1h-1V477"/>
<path id="cv53_1" fill="#000010" stroke="#446EA2" d="M726,487l-1,1l-1-1h1H726"/>
<path id="cv54_0" fill="#000010" stroke="#446EA2" d="M713,508h-1h-1h-1l-1-1h-1v-1h-1v-1v-1v-1h-1v-1v-1h-1v-1h-1v-1l-1-1l-1-1h-1
	h-1v-1h-1h-1h-1l-1-1h-1v-1h-1l-1-1h-1h-1v1v1v1h1h-1v1v1v1v1h-1v1v1v1h-1v1v1h1v1l-1,1v1h-1h1h1v1l1,1h1h1l1,1h1h1v1h1v1h1v1h-1v1
	v1v1v1h1v1v1h1l1,1h1v1v1h1h1v1h1v1v1v1l1,1v1l1,1v1h1v1h1v1h1v1h1v1h1v1h1l1,1h1h1h1v1l1,1h1h1h1v-1v1h1h1h1v1v-1v-1h1v-1v-1v-1
	l1-1l-1-1v-1v-1v-1v-1v-1h-1v-1h1v-1v-1l1-1l1-1v-1l-1-1v-1h-1l-2-1v-1h-1l-1-1l-1-1v-1v-1v-2h-1v-1v-1h-1v-1h-1l-2-1H713"/>
<path id="cv55_0" fill="#000010" stroke="#446EA2" d="M636,640v-1h-1h1v-1h1v-1h-1v1h-1h-1v1h-1v1h-1l-1-1h-1v1l-1-1h-1h-1h-1h-1h-1
	h-1v1h-1v1v1v1v1l-1,1l-1,1h-1v1h-1v-1h-1v1l-1,1h-1l-1,1l1,1l1,1v-1h1v-1v-1l1,1l1,1h1v1l1,1v1v1h1v1l1,1h1v1h1v1v1h1v1v1h1v1h1v1
	l1,1l1,1v1h1v1v1h1h1h1l1-1h1h1l1-1h1v-1h1v-1h1l1-1h1v-1h1h1h1v-1h1l1-1h1h1v-1h1v1h1v1v1v1v1h1v-1h1h1h1v-1h1h1l-1,1l1-1l1,1h1
	l1,1h1l1-1h1h1v-1v-1v-1v-1h1v-1v-1h-1h-1l-1-1h-1h-1v-1v-1l1-1h-1h-1v1v-1v-1v-1l-1-1h-1v1h-1h-1v-1l-1-1v-1v-1l-1,1h-1h1h-1v-1h1
	v-1v-1l-1,1h-1v-1h-1v-1h-1v1v-1l-1,1h-1h1v-1h1v-1h-1v-1v1v-1v-1v-1h1v-1h-1l-1,1v-1v1h-1v-1v1h-1v1v1h-1v1v1h-1h-1h-1v-1h-1v-1h-1
	h-1h-1l-1,1h-1v-1v-1V640"/>
<path id="cv56_0" fill="#000010" stroke="#446EA2" d="M528,542h1l-1-1h-1L528,542h-1h-1h-1h-1h-1v1v1h-1v1h-1v1h-1l-1,1v-1h-1h-1h-1
	h-1h-1h-1h-1v-1h-1v-1h-1h-1v-1v1h-1h-1v1h-1v-1v1h-1v1l1,1v1v1v1h1v1h-1h-1h-1v1h-1v1v1h-1v1v1h-1h-1h-1v1h-1v1v1v1h-1v-1h-1v1h-1
	v1h-1v-1h-1h-1h-1v-1h-1h-1h-1v-1h-1v-1h-1h-1v-1h-1h-1h-1h-1h-1v-1h-1l-1,1v1h-1v1h1v1v1h-1v1h-1v1h-1v1v1h-1h-1h-1v1h-1v1v1h-1v1
	v1h-1v1v1v1h1h1v1h1v1v1v1h-1v1l-1,1h1v1h1l1,1h1v1v1v1h-1h1v1v1h1v1h1h1v1h1l-1,1v1h-1v1v1h-1v1v1v1v1v1h1h1l1,1v-1h1h1h-1v1h1h1h1
	h1h1v-1h1h1v-1h1h1h1h1v-1h1v1v-1h1v-1h1v-1h1h1v1v-1v1h1v-1h1v-1h1h1v-1h1h1v-1v-1v-1v-1v-1v-1h-1l1-1v1v1h1v-1h1h1l1-1h-1h1h1h1
	h-1v-1h1h1l-1-1h1h1h1v-1v-1h-1h1h1h1v-1v1h1v-1v-1h-1v-1v-1h-1v-1h1v-1v-1h1v-1h1v-1h-1v-1h1l1-1h1h1h1v1h1h1h1h1l1,1h1v1v1h1v1h1
	h1h1v-1v-1v-1v-1v-1h1v-1h1h1v-1h-1v-1h-1h-1v-1h-1v-1h1v-1v-1l1,1v-1h1v-1h1v-1h1v1v-1h1h1h1v-1l-1-1v-1h-1v1l-1-1v-1h1v-1h1h1v-1
	h1v-1h-1v-1l-1-1h-1v1h-1v-1v-1h-1v-1v-1v-1h-1v-1v-1h-1v1h-1v-1v-1V542"/>
<path id="cv57_0" fill="#000010" stroke="#446EA2" d="M483,522v-1h-1v-1h-1v1v1v1v1h-1v1h-1h-1v1h-1v1h-1v1h-1h-1v-1h-1h-1v-1h-1h-1
	h-1h-1v1h-1h-1v1h-1h-1v-1h-1v1h-1v1h-1v1h-1h-1v1v1v1h-1h-1h-1v1h-1h-1v1h-1h-1v1h-1h-1h-1h-1v1h-1v1v1h-1v1h-1h-1v1h-1v1v1h-1v1v1
	v1h-1v1v1v1h-1h-1v1h-1l-1,1v1v1h1v1h1v1v1h1v1h1h1v1h1v1v1l1-1v1h1h1h1v1v1h1h1v1v1h1h1h1v1v1h-1v1v1h1v1h1v1v1v1v1h1h1h1v1h1v1h1
	l1,1h1h1v1v1h-1h1h-1l1,1h1h1h1h1v-1v-1h1h1v1h1h1h1l1-1v-1h1v-1v-1v-1h-1v-1h-1h-1v-1v-1v-1h1v-1v-1h1v-1v-1h1v-1h1h1h1v-1v-1h1v-1
	h1v-1h1v-1v-1h-1v-1h1v-1l1-1h1v1h1h1h1h1h1v1h1h1v1h1v1h1h1h1v1h1h1h1v1h1v-1h1v-1h1v1h1v-1v-1v-1h1v-1h1h1h1v-1v-1h1v-1v-1h1v-1h1
	h1h1v-1h-1v-1v-1v-1l-1-1v-1h1v-1v1h1v-1h1h1v-1h-1l-1-1v-1h-1v-1v-1h-1h-1v-1h-1v-1v-1h-1v-1h-1v-1v-1v-1h-1h-1v-1l-1-1h-1v-1v-1
	h-1v-1h-1h-1h-1v-1h-1h-1v-1h-1v-1h-1v-1h-1v-1h-1l-1,1v-1h-1h-1H483"/>
<path id="cv58_0" fill="#000010" stroke="#446EA2" d="M526,430l-2-1v1v1v1v1h-1v1v1h-1v1h1h-1v1h1v1v1v1l-1,1h-1h-1v1h-1h-1v-1v-1
	h-1v-1v1h-1h-1v-1v-1v-1v-1l-1-1h-1v-1h-1v-1h-1v1v1v1h-1v1l-1,1v1v1h-1v1h1v1v1l1,1h1v1h1h1v1h1v1h1v1h1v1h-1v1v1h-1v-1v1v1v1h-1v1
	h-1v1v1v1h-1v1v1h1v1v1h1v1h-1h1v1h1v1h1v-1v-1h1v-1h1v-1h1v1h-1h-1v1h1v1h1l1,1v1h-1h-1v1h1v1h1v1h-1v1h-1v1v1v1h1h1h1v1v-1h1l1-1
	h1h2v1h-1l-1,1v1h-1v1h-1v1h-1v1h-1h-1v1h-1h-1h-1h-1v1v1v1h1h1h1v1h1h1v-1h1h1v1h1h1h1h1l1,1h1h1h1h1v1h1l1-1v-1l1-1l1,1h1v1h1h1v1
	h1h1v1h1v-1h1v-1h1v-1v1l1-1v-1h1v-1h1h1v1h1h1h1h1h1v-1v-1v-1v-1h-1v-1v-1h-1v-1h1v1h1l-1-1v-1h1v-1l-1-1v-1h-1v-1h1v-1h-1v-1v-1
	v-1h-1v-1l-1-1v-1h-1v-1v-1v-1l1-1v-1h-1v-1v-1v-1v-1h1v-1v-1h-1v-1v-1h-1v-1v-1v-1v-1h1l1-1l1-1v-1h1v-1v-1v-1l1-1v-1l1-1v-1h1v-1
	v-1v-1v-1h1h-1v1h-1v1h-1v1h-1v1v1h-1h-1v-1h-1v-1h-1v-1v-1h-1l-1,1h-1h-1h-1h-1h-1h-1h-1l-1-1h-1h-1h-1l-1-1l-2-1h-1h-1H526"/>
<path id="cv59_0" fill="#000010" stroke="#446EA2" d="M495,424h-1v1h-1h-1h-1l-1,1h-1v1h-1h-1h-1v1l1,1v1l-1,1h1v1h-1v1v1h1h1h1h1
	v-1v1h1h1v1h1v1h1h1v1v1h-1v1v1h1l-1,1h-1l-1,1v-1h-1h-1l-1,1h-1h-1v1h1v1h-1h1v1h1h-1v1v1h1h-1v1l1,1h1v1v1h1v1h1v1l1,1h1v1l1,1v1
	v1v1h1v1h1h1v1h1v1v1h1l-1,1h1l-1,1v1h-1h-1h-1h-1v1h-1v1v1h-1v1v1v1v1h-1v1h-1h1h1h1v1h-1v1h1v1l-1,1v1h1h-1v1h-1v1h-1v1l-1,1h-1v1
	h-1v1v1v1h1h1v1h1v-1h1v1v-1h1v-1h1l1-1l1-1v1v1l-1,1v1h1v1l-1,1v1h1v1v1h1v1v1h1v1v1h1v1v-1h1v1h1v1v1h1v1v1h1h1h1v1v1v2v2l1-1h1h1
	h1h1h1h1h1v1h1h1h1h1v1h1v1h1l1-1l1-1h1h1v-1h-1v-1v-1h-1v-1h-1v-1h-1v-1h1h-1v-1v-1v-1h-1h1v-1v-1v-1h1v-1v-1h1l-1-1h-1v-1h-1v-1
	h-1v1v-1v-1h-1v-1v-1v-1h-1v-1v-1v-1v-1v-1v-1h-1v-1v-1v-1h1h1h1h1v-1h1h1v-1h1v-1h1v-1h1v-1l1-1h1v-1h-2h-1l-1,1h-1v1v-1h-1h-1h-1
	v-1v-1v-1h1v-1h1v-1h-1v-1h-1v-1h1h1v-1l-1-1h-1v-1h-1v-1h1h1v-1h-1v1h-1v1h-1v1v1h-1v-1h-1v-1h-1h1v-1h-1v-1v-1h-1v-1v-1h1v-1v-1
	v-1h1v-1h1v-1v-1v-1v1h1v-1v-1h1v-1h-1v-1h-1v-1h-1v-1h-1h-1v-1h-1l-1-1v-1v-1h-1v-1h-1v-1l-1-1v-1v-1h-1l-1-1l-1-1v-1v-1h-1v-1
	l-1-1v-1h1h1v-1h-1h-1h-1h-1v-1h-1v-1l-1-1l-1-1H495"/>
<path id="cv60_0" fill="#000010" stroke="#446EA2" d="M490,434v-1V434h-1h-1h-1h-1v1v1h1h-1v1v1h-1v1h-1v1h-1v-1h-1v-1h-1h-1l-1-1
	h-1v-1v-1h-1h-1l-1-1h-1v1h-1v1h-1h-1v1h-1l-1,1v1h-1v1l1,1h-1v1h-1v1h-1h-1v1v1v-1v1h-1h-1v1h-1h-1h-1v1h-1v-1h-1h-1v-1h-1h1v-1h-1
	h-1h-1h-1h-1v-1h-1h-1h-1h-1h-1h-1v1v1h-1v-1h-1v-1v-1v-1v-1v1h-1l-1-1h-1v1v1h-1v1v1h-1h-1v-1h-1h-1v-1h-1v-1v1h-1v-1h-1v1l1,1h1v1
	v1h-1v1h-1v1v1h-1v1v1v1v1h-1h-1h-1v1l-1,1h-1v1v1v1v1h-1l1,1h1v1h1v1h1h1h1v1h1h1v1h1l1-1v1h1v1h1v1h1h1h1l1,1h1h1h1v1v1v1h1v1h1v1
	h1h1v-1h1h1h1l1,1v1v1v1h-1v-1v1h-1h-1h-1v1v1h-1h-1h-1h-1v1h-1h-1h-1h-1v1v1v1h-1v1h-1h-1v1h-1l-1,1h-1v1v1h-1v1h-1h-1v1h-1l-1,1
	h-1v1h-1v1v1h-1h-1h-1h-1v1v-1h-1h-1v1h-1h-1v1h-1v1v1v1v1v1l1,1v1v1v1v1h1v1h1v1h-1v1h-1v1h1v1v1v1h1h1h1h1h1h1h1h1v-1h1h1h1v1h1
	v-1h1v1v1h1h1v-1h1v-1v-1v-1l1-1h1h1h1h1h1h1v-1h1h1v-1v-1v-1v-1h1v-1l1-1h1h1v-1h1v-1h1l-1-1h1h1h1h1l1,1v-1h1v-1v-1h1v-1h-1v-1h1
	v-1v-1h1v-1h1v-1h1h1v1l1-1h1h1h1v-1l1,1l1,1h1h1v-1h1l1,1h1v1h1h1v1l1-1h1v1h1l1-1v1h1h1h1h1v-1v1h1h1h2v-1h1h1h1v-1h1h1v-1v-1h-1
	v1h-1v-1h-1h-1v-1v-1v-1h1v-1h1l1-1v-1h1v-1h1v-1h1h-1v-1l1-1v-1h-1v-1h1v-1h-1h-1h-1h1v-1h1v-1v-1v-1v-1h1v-1v-1h1v-1h1h1h1h1v-1
	l1-1h-1l1-1h-1v-1v-1h-1v-1h-1h-1v-1h-1v-1v-1v-1l-1-1v-1h-1l-1-1v-1h-1v-1h-1v-1v-1h-1l-1-1v-1h1h-1v-1v-1h1h-1v-1h-1h1v-1h-1v-1h1
	h1l1-1h1h1v1l1-1h1l1-1h-1v-1v-1h1v-1v-1h-1h-1v-1h-1v-1h-1H490"/>
<path id="cv61_0" fill="#000010" stroke="#446EA2" d="M615,499h-1h-1h-1h-1l-1,1h-1h-1l-1,1h-1v1l-1,1h-1l-1,1h-1v1h-1h-1h-1v1h-1v1
	v-1v1v1h-1h1v2v1h-1h-1h-2h-1v1h-1l-1-1h-1v1h-1h-1h-1h-1h-1h-1h-1l-1-1h-1l-1-1h-1v-1h-1h-1h-1v1h1v1v1v1v1v1v1v1h1h1h1h1h1h1l1,1
	v1v1h1v1v1v1h1v1v1v1h1h1h1h1l-1,1l-1,1h1v1h1h1v1v1h1l1,1h1h1l1-1h1l1,1v1v1v1h1v-1v1v1v1l1,1l1-1h-1v-1h1v1h1v1h1v1l-1,1v1v1h1h1
	v1v1v1v1l-1,1h1h1h1l1,1h1v1v-1h1h1h1h1h1l1,1h-1v1v1h1h1h1h1h1h1l1-1v-1h-1h1h1v1v1v1h1h1h1h1h1h1v-1v-1h1h1v1h1v1h1h1h-1h1v1h1h1
	h1v1h1h1h1h1v1h1l1,1h1h1v1h1v1h1v-1h1v1v-1h1h-1v-1h1h1v1v-1h1v1h1v-1h1v-1v1h1v1v1h1v-1h1h1v-1h1h1h1v-1h1v-1h-1v-1h-1v-1h-1l-1-1
	v-1v-1v-1v-1v-1h-1h-1l-1,1h-1v-1l-1-1v1h-1h-1l-1-1v-1h-1h-1v-1h-1v-1h-1v-1h1h1l1-1h1v-1l-1-1h-1h-1v-1v-1h-1h-1l1-2h1h-1v-1h-1v1
	l-1,1h-1v-1h-1v-1l-1-1l-1-1v-1v-1v-1v-1v-1h1h-1v-1v-1h-1v-1v-1v-1h-1v-1h-1v-1h-1v-1h-1h-1h-1v1l-1-1v-1v-1h1h-1v-1h-1v-1v-1h1v-1
	l1-1h1v-1v-1h-1v-1h1v-1v-1v-1h-1h-1v-1h-1h-1h-1v-1h-1v-1h-1h-1v-1h-1h-1v-1h-1h-1h-1h-1v-1h-1H615"/>
<path id="cv62_0" fill="#000010" stroke="#446EA2" d="M579,452v-1l1-1v-1h1l1-1h1v-1l-1,1h-1l-1,1l-1,1v1h-1v1H579"/>
<path id="cv63_0" fill="#000010" stroke="#446EA2" d="M600,452l-1-1v-1l-1-1h-1v-1h-1v-1l-1-1h-1h-1h-1v1v1v1h-1h-1v1h-1h-1v1h-1v1
	h-1h-1h-1h-1v1l-1,1l-1,1v-1h-1h-1v1v1v-1h-1v1h1h-1h-1v1h-1v1h-1v1l-1,1v1h-1v1h-1v1v1v1v1v1v1h1v1h1h-1h-1h-1v1h-1h1h1v1h1h1h-1
	l-1,1h1v1v1h1v1h1v1v1v1h-1v1v2v1h1v1v1h-1v1h-1v1h1h1h1v1l1,1v1v1h1h1v1l2,1v1l1,1h1v1v1h1h1v1l1,2h-1h1v1h1v1v1v1h1v1v1h1h1v-1h1
	l1-1h1v-1h1h1v1h-1v1h1h1h1h1v1v1v-1h1h1h1h1v-1h1l1-1h1l1-1v-1h1l1-1h1h1l1-1h1h1h1h1h1h1v1h1h1h1h1v1h1h1v1h1h1v1h1v1h1h1v-1h-1
	v-1v-1v-1h1v-1v-1h1v-1h1v-1h1v-1v-1h1v-1l-1-1h-1h-1l-1-1h-1v-1v-1h-1l-1-1l-1-1v-1h-1v-1v-1v-1l-1-1h-1v-1v-1v-1h1v-1v-1v-1v-1h-1
	v-1h-1h-1h-1v-1v-1h-1v-1h-1v-1v-1v-1v-1h1v-1h-1h-2h-1h-1h-1h-1l-1-1v-1l-1-1v-1l-1-1h-1v-1l-1-1v-1v-1v-1h-1h-1v-1h-1v-1h-1h-1v-1
	V452"/>
<path id="cv64_0" fill="#000010" stroke="#446EA2" d="M508,507h-1h-1l-1,1h-1h-1v1h-1h-1v1h-1v1h-1h-1v1h-1v1h-1l1,1v1v1v1v1v1h-1v1
	v-1h-1h-1l-1,1v-1v-1h-1h-1h-1v-1h-1h-1v-1v1h1h-1v1v1h-1v1h-1v1h1v1h1v1h1v1h1v1h1v1h1h1v1h1h1h1v1h1v1v1h1l1,1v1h1h1v1v1v1h1v1h1
	v1v1h1v1h1h1v1v1h1v1l1,1h1v1h1h1v1h1v1h1h1h1h1h1h1h1v1l1-1h1v-1h1v-1h1v-1v-1h1h1h1h1h1l-1-1v-1v-1h1h1l1-1h1h1v-1v-1h1v-1h1v-1h1
	h1v-1h1h1v1h1h1h1v-1h1h1h1v-1h1h1h1v-1h1v-1h-1h-1v-1h-1v-1h-1v-1h1v-1h1h1h-1v-1v-1h-1h-1v-1v-1h-1v-1h-1l-1-1h-1v-1h1h-1l1-1h-1
	v-1h-1v-1h-1h-1h-1v-1h-1v-1h-1h-1v-1h-1l-1-1h-1h-1v1v-1h-1h-1h-1v-1v-1v-1h-1v-1h-1h-1h-1h-1l-1,1l-1,1h-1v-1h-1v-1h-1h-1h-1h-1
	v-1h-1h-1h-1h-1H508"/>
<path id="cv65_0" fill="#000010" stroke="#446EA2" d="M496,489v-1h-1v-1l1-1v-1v-1l-1,1l-1,1h-1v1h-1v1v1h-1h-1v1h-1h-1h-1v1h-2h-1
	h-1v-1v1h-1h-1h-1h-1v-1l-1,1h-1v-1h-1l-1,1v-1h-1h-1v-1h-1l-1-1h-1v1h-1h-1l-1-1l-1-1v1h-1h-1h-1l-1,1v-1h-1h-1v1h-1v1h-1v1v1h-1v1
	h1v1h-1v1v1h-1v1l-1-1h-1h-1h-1h-1l1,1h-1v1h-1v1h-1h-1l-1,1v1h-1v1v1v1v1h-1h-1v1h-1h-1h-1h-1h-1h-1l-1,1v1v1v1h-1v1h-1h-1v-1v-1
	h-1v1h-1v-1h-1h-1h-1v1h-1h-1h-1h-1h-1h-1h-1h-1v1v1v1h-1h-1v1v1h-1v1h-1h-1v1h-1h-1h-1h-1v1v1v1v1v1v1h-1v1h-1v1h-1v1h-1v1v1v1l1,1
	l1,1v1l-1,1h1v1h1l1,1v1h1v1v1v1h1v1v1h1h1h1h1v1h1h1h1h1h1h1h1h1v1v-1v1h1h1h1h1v1v1v1v1h1h1v1h1h1v1h1v1h1v1h1l1-1h1v-1h1h1v-1v-1
	v-1h1v-1v-1v-1h1v-1v-1h1v-1h1h1v-1h1v-1v-1h1v-1h1h1h1h1v-1h1h1v-1h1h1v-1h1h1h1v-1v-1v-1h1h1v-1h1v-1h1v-1h1v1h1h1v-1h1h1v-1h1h1
	h1h1v1h1h1v1h1h1v-1h1v-1h1v-1h1h1v-1h1v-1v-1v-1v-1h1v1h1v1h1h1h1v1l1-1v-1h-1v-1h1v-1h1v-1v-1h1h-1v-1v1h1h1v1h1h1h1v1v1l1-1h1h1
	v1v-1h1v-1v-1v-1v-1v-1l-1-1h1v-1h1v-1h1h1v-1h1v-1h1h1v-1h1h1v-2v-2v-1v-1h-1h-1h-1v-1v-1h-1v-1v-1h-1v-1h-1v1v-1h-1v-1v-1h-1v-1
	v-1h-1v-1v-1h-1v-1L496,489"/>
<path id="cv66_0" fill="#000010" stroke="#446EA2" d="M366,510v-1h-1v-1v1h-1v1h-1h-1v-1v1v1h-1v1v1h-1v1v1h-1v1h-1v1h-1v1v1v1v1v1
	h-1h1v1h-1v1h-1h1v1h-1v1v1v1v1h-1v1v1h-1v1v1v1v1v1v1v1v1v1v1v1v1l1,1v1h1v1v1h1v1h1v1v1v1v1h1v1l1,1h1v1v1v1v1v1h-1v1v1v1v1h1v1
	l-1,1v1v1h-1v1v1h1h1v1h1v1v1v1l1,1h1v1h1v-1h1h1h1v-1h1h1h1v-1h1h1h1h1v-1h1v-1h1v-1h1h1h1v-1h1v-1h1h1h1h1v-1h1h1h1h1v-1h1h1v-1h1
	v-1l1-1h1v-1h1h1v1h1v-1h1h1v1v-1h1v-1h1h1h1h1v-1v-1h1v-1h1h1h1v-1v-1v-1v-1h1v-1h1v-1v-1v-1v-1h1v1h1v-1v-1h1h1v-1v-1v-1v-1v-1v-1
	v-1h1v-1h-1v-1v-1v-1h-1v-1l-1-1h-1v-1h-1l1-1v-1l-1-1l-1-1v-1v-1v-1h1v-1h1v-1h1h-1v-1h-1l-1-1v-1h-1h-1v-1h-1h-1v-1h-1h-1h-1h-1
	h-1h-1h-1v-1h-1h-1v-1h-1v1h-1v-1h-1h-1v-1h-1v1h-1h-1h-1v-1h-1h-1h-1h-1v-1h-1h-1h-1v-1h-1h-1v1h-1h-1v1h-1v1h-1h-1v-1h-1h-1v-1
	l-1-1v-1v-1l-1-1v-1h-1v-1v-1h-1v1h-1V510"/>
<path id="cv67_0" fill="#000010" stroke="#446EA2" d="M333,412v-1h-1v1h-1h-1v1v1h-1v1h-1v1h-1v1h-1v1h-1v1h-1l1,1h-1v1v1v1v1v1h-1
	v1v1h-1v1v1h-1h-1v1v1h-1h-1v1h-1h-1h-1h-1h-1h-1h-1h-1h-1v1h-1h-1h-1v1h-1h-1h-1h-1h-1h-1v1v1h-1v1l-1,1v1v1h-1v1v1v1v1v1h1l1-1h1
	h1v1h1h1h1h1v1v1h1h1l-1,1h1v1v1h1v1h1v1v1h1h1h1v1h1h1l1,1v1h1h1v1h1h1h1h1h1v-1v-1h1v-1h1h1l1-1v1h1h1h1v1h1h1v1v1v1v1v1l1,1v1
	l-1,1v1v1h1v1h1h1h1v-1h1h1h1v-1h1v-1h1h1v1h1h1v-1h1l1-1h1h1h1v-1h1h1h1v-1h1v-1v1v1h1v1h1h1v1h1v1v1h1v1h1v1v1h1v-1h1h1v-1h1h1h1
	h1h1h1l1,1h1v1h1l1,1v1v1h1v1h1v1v1v1v1h1h-1v1l1,1l-1,1v1h1h1h1v1h1v1h1v1v1v1v1v1h1v1h1h1h1h1h1h1h1v1l1,1v-1v1h1h1v1h1v1h1h1h1h1
	h1v1h1h1v-1l1-1l1-1v-1v-1v-1v-1v-1v-1v-1v-1l-1-1v-1l1-1v-1v-1v-1v-1v-1v-1v-1h-1v-1v-1h1v-1h1v-1v-1h1v-1h-1v-1h1v-1h-1v-1h1l-1-1
	l-1-1v-1v-1v-1h1v-1v-1l-1-1v-1v-1h-1v-1v-1v-1v-1v-1v-1v-1v-1h-1v-1v-1h-1v-1h-1h-1v1h-1v-1h-1v-1h-1h-1h-1h-1h-1v-1v1h-1h-1h-1h-1
	h-1h-1v1h-1v-1h-1h-1h-1h-1v-1h-1h-1v-1h-1h-1v1v1v1h1v1v1l-1,1h1l-1,1h-1h-1v-1h-1h-1v-1v-1h-1h-1h-1h-1h-1h-1v-1h-1v-1h-1l-1,1v-1
	h-1h-1v-1h-1v-1v-1h-1h-1v-1h-1v-1h-1h-1v-1v-1l1-1v-1v-1h-1v-1v-1h1v-1h1h1h1v-1h-1h-1h-1v-1h-1v-1l1-1h-1v-1v-1l1-1l-1-1v-1v-1v-1
	l-1-1v-1h-1h-1h-1v-1v1h-1v1h-1v1h-1h-1h-1v-1h-1v1h-1v-1h-1v-1h-1h-1h-1v-1h-1h-1v-1v-1H333"/>
<path id="cv68_0" fill="#000010" stroke="#446EA2" d="M380,394l-1-1h-1h-1h-1v1h-1h-1h-1v1h-1v1h-1v1h-1l-1,1h-1v-1h-1h-1h-1v-1v1
	h-1v1v1h-1v1v1l-1,1v1h-1v-1h-1h-1v-1h-1v1h-1l-1,1l-1,1v1h-1v1h-1v1v1h-1v1v1l1,1h-1h1v1v1h-1h-1v1h-1l-1,1h1v1l1,1v1v1v1l1,1l-1,1
	v1v1h1l-1,1v1h1v1h1h1h1v1h-1h-1h-1v1h-1v1v1h1v1v1l-1,1v1v1h1h1v1h1v1h1h1v1v1h1v1h1h1v1l1-1h1v1h1v1h1h1h1h1h1h1v1v1h1h1v1h1h1
	l1-1h-1l1-1v-1v-1h-1v-1v-1v-1h1h1v1h1h1v1h1h1h1h1v1h1v-1h1h1h1h1h1h1v-1v-1v-1l-1-1l-1-1h1v-1h1v-1v-1v-1v-1v-1v-1v-1v-1v-1v-1v-1
	v-1v-1h1h-1v-1v-1h-1v-1v-1h1v-1h1l1-1h1v-1h1l1-1l-1-1h-1h1v-1h1v-1v-1v-1v-1h1v-1v-1v-1h1h1h1h1h1h1l1,1v1h-1h1v1l1-1v1v-1v-1v-1
	v-1v-1v-1h-1l-1-1h1v-1h-1h-1v-1h-1v-1h-1v1h-1h-1v-1h-1h-1v-1h-1h-1h-1h-1h-1v-1h-1l-1-1h-1v1v-1h-1h-1h-1h-1V394"/>
<path id="cv69_0" fill="#000010" stroke="#446EA2" d="M243,440h-1v-1h-1h-1v-1h-1h-1v1h-1v1h-1h-1h-1h-1v-1h-1h-1v1h-1h-1h-1h-1h-1
	v1h-1v1v1h-1h-1h-1h-1v1v1h-1l-1,1h-1h-1h-1h-1l-1,1h-1h-1v1h-1h-1v1h-1v1h-1h-1h-1v1h-1h-1v1v1v1h-1v1v1h-1v1h-1h-1v1h-1h-1v1l-1-1
	h-1h-1v1h-1v1h-1h-1v1v1v1v1v1h-1v1v1v1h-1v1h-1v1h-1v1l-1,1v1v1h-1h-1h-1v1h-1v1v1v1v1h-1v1h-1v1l-1,1v1v1v1h1h1v1h1v1h1h1h1h1v1v1
	h1h1v1v1v1v1v1v1v1h-1v1v1h-1v1v1v1l1,1l-1,1v1h1v1v1v1v1v1v1v1v1v1v1v1h1h1v1h1h1v1v1h1v1h1h1v1v1h1v1v1h1v1h1v1h1v1h1v1h1h1v1h1v1
	h1v1h1v1h1v-1h1v1h1h1v1h1h1v1h1v1l1,1l1,1h1h1l1,1h1v-1h1h1h1h1v1h1h1h1h1v-1h1v-1h1v1h1h1v1h1v1h1h1h1h1v1h1h1v1h1v-1l1,1v-1v1h1
	v1v1h1h1h1v1v-1h1l1-1l1-1h1v-1l1,1h1h1h1h1l1,1h1v1h1h1v1h1v-1v-1h1h1v-1h1h1h1v-1v-1v-1h1v-1h1v-1v-1l1-1l1-1h1h1v1h1h1h1h1l1-1
	l1-1h1h1h1v1h1v-1h1l1-1h1v-1h1l1,1h1l1,1h-1h1v1h1h1l1,1l1-1l1,1v1v1h1v-1v1h1v-1h1h1v-1v-1h1h1h1v-1h1v1v-1l1,1h1v1h1v1v1h1v1v1v1
	h1v1v1v1v1v1v-1h1h1h1h1h1v-1h1h1v1h1v-1h1h1h1v-1h1v-1h1v-1h1v-1h1h1v-1h1v-1h1h1v-1h1v-1h1v-1v-1v-1v-1h1h-1h1v-1v-1h1v-1v-1h1v-1
	v-1h1v-1v-1v-1h-1v-1l-1-1l-1-1h-1v-1h-1v-1l-1-1v-1h1v-1h1h1v-1h1l1-1v-1h1v-1v-1h-1v-1v-1v-1v-1v-1v-1h1v-1h1l-1-1v-1h-1v-1h-1h-1
	v-1h-1h-1v-1l-1,1h-1v-1l-1,1h1v1l-1,1h-1v1h-1h-1h-1v1h-1h-1v1h-1h-1v1h-1h-1v-1l-1-1h-1v-1h-1v-1h-1v-1v-1h-1v-1h-1v-1h-1h-1v-1
	v-1h-1h-1h-1h-1h-1h-1l-1-1h-1v1v-1h-1v-1h-1h-1h-1v-1h-1v-1h-1h-1h-1h-1v-1h-1v-1v-1v-1h-1h-1h-1v-1h-1h-1v-1v1h-1v-1h-1v-1h-1v-1
	h-1h-1v-1v-1l1-1v-1h1v-1v-1v-1v-1v-1h-1v-1h-1h-1h-1v-1h-1h-1v-1h-1l-1-1l-1-1h-1h-1h-1v-1h-1v-1h-1h-1v-1h-1v-1h-1v-1v-1h-1v-1h-1
	v-1v-1v-1h-1h-1v-1v-1h-1v-1h-1h-1v-1h-1v-1v-1h-1v-1v-1h-1v-1v-1v-1v-1v-1v-1h-1h-1h-1l-1-1v-1h-1H243"/>
<path id="cv70_0" fill="#000010" stroke="#446EA2" d="M402,440h-1h-1v-1h-1h-1v1h-1v1h-1v1h-1h1v1h1v1v1h1v1v1v1v1v1v1v1v1h1v1v1
	l1,1v1v1h-1v1v1v1l1,1l1,1h-1v1h1v1h-1v1h1v1h-1v1v1h-1v1h-1v1v1h1v1v1v1v1v1v1v1l-1,1v1l1,1v1v1v1v1v1v1v1v1l-1,1l-1,1v1h-1h1v1v1
	v1v1h1v1h1v1v1h1v1h1v1v1h1h1v1v1v1h1v1v1l1,1l1,1v1h1h1v1h1v1h1v1h1v1h1v1v1h1h1h1h1v-1h1h1v-1h1v-1v-1h1h1v-1v-1v-1v-1v-1v-1h-1
	v-1h1v-1h1v-1h-1v-1h-1v-1v-1v-1v-1l-1-1v-1v-1v-1v-1v-1h1v-1h1h1v-1h1h1v1v-1h1h1h1h1v-1v-1h1v-1h1l1-1h1v-1h1h1v-1h1v-1v-1h1l1-1
	h1v-1h1h1v-1h1v-1v-1v-1h1h1h1h1v-1h1h1h1h1v-1v-1h1h1h1v-1v1h1v-1v-1v-1l-1-1h-1h-1h-1v1h-1h-1v-1h-1v-1h-1v-1v-1v-1h-1h-1h-1l-1-1
	h-1h-1h-1v-1h-1v-1h-1v-1l-1,1h-1v-1h-1h-1v-1h-1h-1h-1v-1h-1v-1h-1l-1-1h-1h-1v1h-1v-1h-1h-1h-1v-1h-1v-1v-1h-1h-1v-1v-1h-1v-1h-1
	v-1v-1h-1v-1l-1-1h-1v-1h-1v-1l-1-1v-1v-1v-1v-1v1h-1h-1l-1,1v-1v1v-1h-1h-1v-1h-1h-1v-1H402"/>
<path id="cv71_0" fill="#000010" stroke="#446EA2" d="M393,354v-1h-1v1h-1v-1v1h-1h1v1h1v-1H393"/>
<path id="cv72_0" fill="#000010" stroke="#446EA2" d="M395,353v-1v-1h-1v1h-1v1h1h-1l1,1h1h1v-1H395"/>
<path id="cv73_0" fill="#000010" stroke="#446EA2" d="M396,352v-1h-1v1H396v1h1v-1v1h-1V352"/>
<path id="cv74_0" fill="#000010" stroke="#446EA2" d="M414,341h-1h-1h-1h-1v1h-1l-1-1v1h-1v1h-1h-1l-1,1v1h-1v1l-1,1v1v1v1h-1v1h-1
	v1v-1h-1v1h-1v-1v1v1h1v1h1h1v-1v1v1v1h-1v1h-1h-1v1v1h-1v1v1v1h-1v1v1v1h-1h-1v1h1v1l1,1v1v1h1h-1v1v1v1h-1v1h-1v1v1h-1v1h-1v1h-1
	v1h-1h-1v1v1h1v1v1h-1h1v1h1v1v1h1v1v1v1h-1v1h-1h-1h-1v1v1h-1v1h-1h-1v1v1l1,1h1v1h1h1h1h1h1v1h1h1v1h1h1v-1h1v1h1v1h1h1v1h-1l1,1
	h1v1v1h1h1v1h1v1h1h1h1h1h1v-1h1v-1h1h1h1v-1l1-1v-1h1h1v-1h1h1v-1v-1h1h1v-1h1h1v-1h1v-1v-1h1v-1v-1v-1v-1v-1v-1l1-1v-1v-1h1v-1v-1
	v-1v-1h-1v-1v-1l-1-1v-1l-1-1v-1h-1v-1h-1v-1v-1v-1v-1v-1h1v-1h1v-1v-1h1h1v-1h1h1h1v-1h1v-1h1v-1h1v-1h1h1l-1-1v-1v-1v-1l1-1v-1v-1
	v-1v-1v-1h-1h-1h-1h-1h-1v1v1h-1h-1h-1v-1v-1v-1v-1v-1v-1v-1v-1v-1v-1h-1h-1v1h-1l-1,1v-1v-1l-1-1v1h-1v-1v1h-1h-1h-1h-1v-1v-1H414"
	/>
<path id="cv75_0" fill="#000010" stroke="#446EA2" d="M360,323h-1v-1h-2h1v-1v-1h1v-1h-1l-1,1v1l-1,1v1h-1v1l-1,1v1h-1v1v1l-1,1v1v1
	h-1v1v1h-1v1l-1,1v1v1v1h-1v1l-1,1l-1,1v1h-1v1v1l-1,1l-1,1h-1v1h-1v1v1h-1l-1,1h-1l-1,1v1v1v1v1v1v1v1v1v1v1v1h-1h-1v1h-1h-1v1h-1
	v1v1v1l1,2v1v1v1v1v1v1v1v1v1v1v1h1h1v1h1v1l1,1v1v1h-1v1h-1v1v1h1v1h-1v1h-1l-1-1h-1h-1h-1h-1v1h-1v-1h-1l-1,1h-1v1v1v1h-1h-1l-1,1
	v1v1v1v1v1h-1v1h1v1v1h-1v1v1l1,1v1h1v1v1v1h-1v1h-1v1h-1h-1h-1h-1v-1h-1h-1v-1h-1v-1h-1h-1v-1v-1v-1h-1h-1l-1,1v1h-1h-1h-1v-1h-1
	v-1h-1h-1v1h-1h-1h-1l-1-1h-1h-1v1h-1h1v1h1l1,1v1h-1l-1,1h-1v1v1h-1h-1h-1h-1h-1h-1v1h-1v1h-1v1v1v1v1h-1h-1v1h-1v1h-1v-1h-1h-1h-1
	h-1h-1v-1v1v1v1v1v1v1v1h1h1h1v1h1h1v1v1h1v1h1v1v1v1h1v1h1v1v1v1h1v1h1v-1h1h1v-1h1h1h1h1h1v-1h1h1v1h1v-1h1h1h1h1h1h1v-1h1h1h1v-1
	h1h1h1h1h1h1h1h1h1v-1h1h1v-1v-1h1h1v-1v-1h1v-1v-1h1v-1v-1v-1v-1v-1h1l-1-1h1v-1h1v-1h1v-1h1v-1h1v-1h1v-1v-1h1h1v-1h1v-1v-1v-1h1
	v-1h-1v-1v-1h1h1v-1v-1h1v-1v-1h1v-1l1-1v-1v-1h1h1h1l1,1v-1l1-1v-1h1v-1l1-1v-1h-1l-1,1v-1h-1h-1v-1v-1h-1v-1v-1v-1h1v-1v-1h-1h-1
	v-1v-1v-1v-1h1h1h1v1h1h1h1l1-1v-1h-1v-1v-1h1v-1v-1v-1h-1v-1v-1v-1v-1h1v-1h-1v-1h1v-1v-1v-1l1-1v-1l1-1h1h1v-1l-1-1h1v-1v-1v1h1v1
	v-1h1h1h1h1v-1h1v-1h1v-1h1v-1h1h1h1v-1v1h-1v1h-1v1v-1h1h1v-1h1v-1h1v-1h1h1v-1h1v1v-1v-1v-1h1h1l1-1h-1v-1h-1v-1v-1v-1v-1h-1v-1h1
	h1h1h1v1h1v1h1h1v1l1-1v1h1v1l-1,1h1v1l1,1v1h1v-1l1-1h1v-1v1v-1v1v-1h1v1v-1v-1v-1h-1v-1v-1v-1v-1l1-1v-1h1v-1h-1v-1v-1h-1v-1h1v-1
	h1l1,1v-1h1v-1v-1h1v-1v-1l-1,1v-1h-1h-1v-1h-1v1h-1h-1v-1v1l-1,1v1h-1v-1l-1,1v1h-1h1h-1v-1h-1v-1v-1v-1h-1v-1l-1,1v-1v-1h-1v-1
	l-1,1v-1h1v-1l-1-1v-1v-1l-1-1v-1l-1-1h-1v1v1h-1h-1v1h-1h-1h-1v-1H360v-1V323"/>
<path id="cv76_0" fill="#000010" stroke="#446EA2" d="M384,286v-1h-1h-1v-1h-1v-1v-1h-1l-1,1v1h-1v1v1l-1,1v1h-1v1l-1,1l-1,1l-1,1v1
	l-1,1h-1h-1v1h-1v1v1h-1v1h-1l-1,1h-1v1l1,1l1,1h1v1h-1v1h-1v1v1h-1v1v1l-1,1l-1,1v1l-1,1l-1,1v2h-1v1l-1,1v1l-1,1h1v1h-1v1v1h-1h2
	v1h1v-1v1h1v1h1h1h1v-1h1h1v-1v-1h1l1,1v1l1,1v1v1l1,1v1h-1v1l1-1v1h1v1v1l1-1v1h1v1v1v1h1v1h1h-1h1v-1l1-1v1h1v-1l1-1v-1v1h1h1v-1
	h1v1h1h1v1l1-1v1h1h1v1l1-1v-1v-1h1h1h1h1v-1v-1h1v-1v1l1-1h1v-1h1v-1h1l1-1v-1h1h1v-1v-1h1h1h1h1h1v-1h1h1v-1h1v-1v-1v1v-1h1h-1v-1
	v1h-1h-1h-1h-1h-1h1v-1l-1-1h-1l-1-1l1-1l-1-1v-1h1h-1h1v-1h-1h-1v-1h-1l1-1h-1h1h-1v-1h1v-1h1v-1h1v-1h1h-1v-1h1v-1l1-1v1v-1h1v-1
	h-1v-1h-1v-1h1v-1l-1-1h1v-1h1l1-1l1,1h1l-1-1v-1h1v-1v-1v-1v-1l-1-1v-1l-1-1h-1v-1h-1v-1h-1v1h-1h-1h-1h-1h-1h-1h-1h-1v-1h-1l-1,1
	h-1h-1h-1h-1h-1h-1h-1H384"/>
<path id="cv77_0" fill="#000010" stroke="#446EA2" d="M439,383h-1v-1v-1h-1v-1h-1l-1-1h-1v-1h-1h-1v-1h-1l-1-1v-1h-1v-1h-1h-1h-1v-1
	h-1v-1h-1h-1v-1h-1l-1-1v-1v1v1v1v1v1h1v1h1v1l1,1v1l1,1v1v1h1v1v1v1v1h-1v1v1l-1,1v1v1v1v1v1v1h-1v1v1h-1v1h-1h-1v1h-1h-1v1v1h-1
	h-1v1h-1h-1v1l-1,1v1h-1h-1h-1v1h-1v1h-1h-1h-1h-1h-1v-1h-1v-1h-1h-1v1v1v1v1v-1l-1,1v-1h-1h1v-1l-1-1h-1h-1h-1h-1h-1h-1v1v1v1h-1v1
	v1v1v1h-1v1h-1h1l1,1l-1,1h-1v1h-1l-1,1h-1v1h-1v1v1h1v1v1h1h-1v1v1v1v1v1v1v1v1v1v1v1v1v1h-1v1h-1l1,1l1,1v1v1v1h1h1h1h1h1v1h1v1h1
	v-1h1h1v-1h1v-1h1v-1h1h1v1h1h1h1v1h1h1v1h1h1v1v-1v1l1-1h1h1v-1v1v1v1v1l1,1v1h1v1h1l1,1v1h1v1v1h1v1h1v1v1h1h1v1v1h1v1h1h1h1v1h1
	v-1h1h1h1v-1v-1v-1v-1h1l1-1v-1h1h1h1v-1v-1v-1v-1h1v-1v-1h1v-1h1v-1v-1h-1l-1-1v-1h1v1h1v-1v1h1v1h1h1v1h1h1v-1v-1h1v-1v-1h1l1,1h1
	v-1v1v1v1v1h1v1h1v-1v-1h1h1h1h1h1h1v1h1h1h1h1h1v1h-1h1v1h1h1v1h1v-1h1h1h1v-1h1h1v-1v1v-1v-1h1h1v-1h1v-1h1l-1-1v-1h1v-1l1-1h1v-1
	h1h1v-1h1v-1h1l1,1h1h1v1v1h1l1,1h1h1v1h1v1h1v-1h1v-1h1v-1v-1h1h-1v-1v-1v-1v-1h1v-1h-1l1-1v-1l-1-1v-1l-1,1h-1v1h-1v-1v-1v-1l1-1
	v-1h-1v1h-1l-1,1l-1,1h-1h-1v1l-1-1v1h-1v-1h-1h-1h-1h-1h-1h-1h-1v-1h1h1l1-1h1h1v-1h1h1h1v-1v-1v-1v-1v-1v-1v-1h-1h-1h-1h-1h-1v1
	h-2h-1l-1,1h-1h-1v1h-1v-1h-1v1v-1v-1h-1v-1h-1l-1,1h-1h-1h-1h-1h-1h-1h-1h-1h-1h-1h-1h-1h-1h-1h-1h-1v1h-1h-1v-1h-1h-1h-1v-1h-1v-1
	v-1v-1v-1v-1v-1v-1v-1h-1v-1v-1v-1h-1h-1h-1v-1h-1h-1v-1h-1h-1l-1-1h-1h-1v-1h-1h-1h-1h-1v1h-1h-1v1v1h-1h-1h-1h-1h-1v-1h-1h-1h-1
	v-1h1v-1h1h1h1v-1h1h1v-1h1v1h1v-1h1h1h1h1v-1h1h1h1v-1h1h1h1v-1h1h1v-1h1v-1l1-1l1-1h1v-1h1h1v-1h1h1h1v-1v1l1-1h1v1h1v-1v-1h1v-1
	l1-1l1-1v-1h-1l-1-1v-1h-2v-1l-1,1l-1,1h-1v-1l-1,1l-1-1H439"/>
<path id="cv78_0" fill="#000010" stroke="#446EA2" d="M761,473v-1v-1v-1v-1h-1h-1h-2v-1h-1h-1h-1h-1h-1h-1v1v1v1h1v1v1v1l1,1l-1,1h1
	v1v1v1h-1v1h-1h-1v1h-1v1h1v1h1l1,1h-1h1h-1v1h1l-1,1h1h-1l1,1h1v1v1l1,1v1v1h1v-1v1h1h1h1h1h1h1v1h1h1l1,1h1v1v1h1v1h1v1v1v1v1v1
	h-1h-1v1l-1-1v1v1l1,1v1h1h1l1,1h-1l1,1v1v1h1v1h1h1h1v1v1h1v1l1,1h1v1l1-1v1h1v1h1v-1h1v-1h1v1h1v1v-1h1l1,1h1h1h1h1h1h1v-1h1v1h1
	v1v-1h1h-1v-1v-1h-1v-1h1v-1v-1l1-1v-1h1l1-1h1v-1h1l1-1v-1v-1v-1h-1h-1v-1h-1h-1v-1h-1v-1h-1v-1v-1h-1v-1h-1h-1h-1v-1h-1l-1-1v-1
	h-1v-1h-1v-1h-1h-1h-1h-1h-1v-1h-1l-1-1l-1-1v-1h-1h-1l-1-1h-1v-1h-1h-1v-1h-1h-1h-1v-1v-1h1v-1h-1v-1v-1h-1h-1v-1h-1l-1-1v-1v-1h-1
	l-1-1l-1-1l-1-1v-1h1h1H761"/>
<path id="cv79_0" fill="#000010" stroke="#446EA2" d="M765,465v-1h-1h-1h-1v1l-1,1v1l-1,1l1,1v1v1v1v1h-1h-1h-1v1l1,1l1,1l1,1h1v1v1
	l1,1h1v1h1h1v1v1h1v1h-1v1v1h1h1h1v1h1h1v1h1l1,1h1h1v1l1,1l1,1h1v1h1h1h1h1h1v1h1v1h1v1l1,1h1v1h1h1h1v1h1v1v1h1v1h1v1h1h1v1h1h1v1
	v1v1l-1,1h-1v1h-1l-1,1h-1v1l-1,1v1v1h-1v1h1h1v-1h1v1h1h1h1h1h1h1h1v-1h1v-1v-1h1v-1h1h1h1h1h1v-1h1v-1h1v-1h1v1v-1h1v1v-1h1v1v1h1
	l1,2v-1h1v-1v-1v-1v-1h-1v-1v-1h1h1h1v-1v-1v-1v-1v-1h-1h-1v-1h-1v-1v-1v-1l-1-1v-1v-1h1h1v-1h1h1v-1h1v-1h1h1l1-1h1v-1l1-1h1l1-1h1
	v-1h1v1l1,1v1h1h1v-1v-1h1h1v-1h-1v-1v-1v-1v-1h1v-1h1l-1-1h-1v-1h-1v-1l-1-1v-1v-1h-1v-1h-1l-1-1l-1-2v-1h-1l-1-1h-1v-1h-1v-1v-1
	h-1v-1v1h-1v1h-1v-1h-1v1v1h1v-1h1h1v-1v1v1v1h-1v1h-1h-1h-1v-1l-1,1v1v1v1v1l-1,1v1l-1,1v1h1v1h1v1h-1v1v1h-1v-1v1h-1v1v1v1h-1v-1
	v-1h-1v-1h-1v-1h-1h-1h-1h-1v-1h-1v-1v-1v-1h-1v-1l-1-1h-1h-1v-1v-1l1,1h1l-1-1v-1h-1h-1v1l-1-1l-1-1v1v-1h-1v-1v1h-1h-1h-1h-1h-1v1
	h1h1l1,1h-1h-1l-1-1v1h1v1v1h1h-1v1v1h-1v1v1h-1h-1h-1v1l-1,1l1,1h-1v1v-1h-1l-1-1h-1h-1v-1h1l-1-1l-1-1v1h-1h-1h-1v-1v-1l-1-1h1
	l-1-1v-1v-1v-1h-1v1h-1h-1v-1h-1v1h-1h-1l-1-1h-1v-1v-1h-1v-1h-1l-1-1v-1h-1v-1H765"/>
<path id="cv80_0" fill="#000010" stroke="#446EA2" d="M852,544v-1h-1v-1v-1h-1v1h-1v1h-1h-1h1v1h-1h-1v1h-1l-1-1v1h-1v-1l-1-1v1
	l-1,2h-1v1l-1,1l-1,1v1l-1,1v1l-2,1v1h-1v-1h-1l-1-1v1l1,1v1v1h-1v1v1h1v1h-1l-1,1v1v1h-1v1l1,1h1h1h1h1v1h1l1,1l1,1h1v1v1v1h1v1h1
	v1v1h-1v1h-1v1h-1h-1h-1h-1v1h-1v1h-1l-1,1v1v1v1v1l1,1l1,1h1h1h1l1,1h1h1h1h1v1h1v1l1,1v1l1,1v1h1l1,1h1h1v-1h1h1h1h1v1h1h1h1v-1h1
	l1-1h1v-1h1l1-1v-1v1v-1h-1h-1h-1h-1v-1v-1v-1l-1-1l-2,1l-1,1v-1v-1v-1v-1v-1v-1h1v-1l-1-1v-1v-1h1h1v-1v1v-1l1-1v-1v-1v-1v-1v1h-1
	h-1v-1h-1h-1v-1l-1-1l-1-1l-1-1v-1h1v1h1h1v1h1h1v-1h1h1v1v1h1v1h1h1l1-1l1-1v-1h-1v-1v-1h-1l-1-2l-1-2l-1-1l-1-1v-1v-1v-1h-1v-1v-1
	l-1-1l-1-1v-1v-1v-1v-1v-1V544"/>
</svg>
