<svg id="btn_arrow_left.svg" xmlns="http://www.w3.org/2000/svg" width="22" height="22" viewBox="0 0 22 22">
  <defs>
    <style>
      .cls-1 {
        fill: #666;
      }

      .cls-2 {
        fill: #fff;
        fill-rule: evenodd;
      }
    </style>
  </defs>
  <circle id="楕円形_1" data-name="楕円形 1" class="cls-1" cx="11" cy="11" r="11"/>
  <path id="シェイプ_10" data-name="シェイプ 10" class="cls-2" d="M463.788,193.974l2.668,2.955a0.492,0.492,0,0,1,0,.646,0.386,0.386,0,0,1-.584,0L462.5,193.84a0.44,0.44,0,0,1-.051-0.069,0.112,0.112,0,0,1-.01-0.022,0.487,0.487,0,0,1-.028-0.056c0-.009-0.005-0.019-0.008-0.029a0.356,0.356,0,0,1-.015-0.056,0.46,0.46,0,0,1,0-.181,0.329,0.329,0,0,1,.015-0.056c0-.01,0-0.02.008-0.029a0.483,0.483,0,0,1,.027-0.056c0-.008.007-0.016,0.011-0.023a0.44,0.44,0,0,1,.051-0.069l3.373-3.734a0.386,0.386,0,0,1,.584,0,0.494,0.494,0,0,1,0,.647l-2.668,2.953-0.384.5Z" transform="translate(-454 -183)"/>
</svg>
