<svg id="btn_arrow_light.svg" xmlns="http://www.w3.org/2000/svg" width="22" height="22" viewBox="0 0 22 22">
  <defs>
    <style>
      .cls-1 {
        fill: #666;
      }

      .cls-2 {
        fill: #fff;
        fill-rule: evenodd;
      }
    </style>
  </defs>
  <circle id="楕円形_1" data-name="楕円形 1" class="cls-1" cx="11" cy="11" r="11"/>
  <path id="シェイプ_10" data-name="シェイプ 10" class="cls-2" d="M1305.21,194.026l-2.67-2.954a0.5,0.5,0,0,1,0-.647,0.393,0.393,0,0,1,.59,0l3.37,3.735a0.234,0.234,0,0,1,.05.069,0.021,0.021,0,0,1,.01.022c0.01,0.018.02,0.036,0.03,0.056a0.036,0.036,0,0,0,.01.029c0,0.018.01,0.037,0.01,0.056a0.28,0.28,0,0,1,.01.091,0.277,0.277,0,0,1-.01.09c0,0.02-.01.038-0.01,0.056a0.036,0.036,0,0,0-.01.029c-0.01.02-.02,0.038-0.03,0.056a0.024,0.024,0,0,1-.01.023,0.234,0.234,0,0,1-.05.069l-3.37,3.734a0.393,0.393,0,0,1-.59,0,0.5,0.5,0,0,1,0-.647l2.67-2.953,0.39-.5Z" transform="translate(-1293 -183)"/>
</svg>
