<?xml version="1.0" encoding="utf-8"?>
<svg xmlns="http://www.w3.org/2000/svg"
	xmlns:xlink="http://www.w3.org/1999/xlink"
	width="25px" height="25px" viewBox="0 0 25 25">
<filter filterUnits="objectBoundingBox" x="-4.35" y="-4.35" width="113.04" height="113.04" id="filter0">
<feGaussianBlur in="SourceAlpha" stdDeviation="0.50" result="dsBlurOut1"/>
<feFlood flood-color="rgb(25,57,101)" flood-opacity="0.75" result="dsFloodOut1"/>
<feComposite in="dsFloodOut1" in2="dsBlurOut1" operator="in" result="dsShadow1"/>
<feOffset in="dsShadow1" dx="0.50" dy="0.87" result="dsOffset1"/>
<feComposite in="dsOffset1" in2="SourceAlpha" operator="out" result="dropShadow1"/>
<feBlend in="dropShadow1" in2="SourceGraphic" mode="normal" result="sourceGraphic"/>
</filter>
<path fillRule="evenodd" d="M 19.63 19.62C 17.46 21.79 14.57 22.99 11.5 22.99 8.42 22.99 5.53 21.79 3.36 19.62 1.19 17.45-0.01 14.57-0.01 11.5-0.01 8.43 1.19 5.54 3.36 3.37 5.53 1.2 8.42 0.01 11.5 0.01 14.57 0.01 17.46 1.2 19.63 3.37 21.8 5.54 23 8.43 23 11.5 23 14.57 21.8 17.45 19.63 19.62ZM 18.22 4.78C 16.42 2.98 14.04 2 11.5 2 8.95 2 6.57 2.98 4.77 4.78 2.97 6.57 1.98 8.96 1.98 11.5 1.98 14.04 2.97 16.42 4.77 18.22 6.57 20.01 8.95 21 11.5 21 14.04 21 16.42 20.01 18.22 18.22 20.02 16.42 21.01 14.04 21.01 11.5 21.01 8.96 20.02 6.57 18.22 4.78ZM 15.96 15.02C 15.96 15.27 15.86 15.5 15.69 15.68 15.32 16.05 14.72 16.05 14.35 15.69 14.35 15.69 11.49 12.83 11.49 12.83 11.49 12.83 8.64 15.68 8.64 15.68 8.46 15.87 8.21 15.96 7.97 15.96 7.73 15.96 7.49 15.87 7.3 15.68 7.13 15.51 7.03 15.27 7.03 15.02 7.03 14.76 7.13 14.53 7.31 14.35 7.31 14.35 10.16 11.5 10.16 11.5 10.16 11.5 7.3 8.65 7.3 8.65 7.13 8.47 7.03 8.23 7.03 7.98 7.03 7.73 7.13 7.49 7.31 7.31 7.67 6.94 8.27 6.94 8.64 7.31 8.64 7.31 11.5 10.16 11.5 10.16 11.5 10.16 14.35 7.31 14.35 7.31 14.53 7.13 14.77 7.03 15.02 7.03 15.02 7.03 15.02 7.03 15.02 7.03 15.27 7.03 15.51 7.13 15.69 7.31 16.05 7.68 16.05 8.28 15.69 8.65 15.69 8.65 12.83 11.5 12.83 11.5 12.83 11.5 15.69 14.35 15.69 14.35 15.86 14.53 15.96 14.76 15.96 15.02Z" fill="rgb(0,0,0)" filter="url(#filter0)"/></svg>