<svg xmlns="http://www.w3.org/2000/svg" width="26" height="26" viewBox="0 0 26 26">
  <defs>
    <style>
      .cls-1 {
        fill: #666;
        fill-rule: evenodd;
      }
    </style>
  </defs>
  <path id="icon_calendar.svg" class="cls-1" d="M854.221,184.006h-4.355v1.811a2.326,2.326,0,0,1-4.65,0v-1.811h-6.432v1.811a2.326,2.326,0,0,1-4.65,0v-1.811h-4.355a0.768,0.768,0,0,0-.779.757v21.48a0.768,0.768,0,0,0,.779.757h24.442a0.768,0.768,0,0,0,.779-0.757v-21.48A0.768,0.768,0,0,0,854.221,184.006Zm-0.779,6.176v15.305H830.558V190.182h22.884Zm-18.068-4.365a1.085,1.085,0,0,0,2.17,0v-3.763a1.085,1.085,0,0,0-2.17,0v3.763Zm11.082,0a1.085,1.085,0,0,0,2.17,0v-3.763a1.085,1.085,0,0,0-2.17,0v3.763Zm-8.2,11.357h0.56a3.125,3.125,0,0,0,.468-0.034,1.359,1.359,0,0,0,.418-0.127,0.777,0.777,0,0,0,.3-0.266,0.8,0.8,0,0,0,.115-0.45,0.723,0.723,0,0,0-.292-0.588,1.108,1.108,0,0,0-.714-0.233,1.023,1.023,0,0,0-.663.211,0.966,0.966,0,0,0-.343.521l-1.885-.377a2.476,2.476,0,0,1,.411-0.871,2.233,2.233,0,0,1,.652-0.583,2.906,2.906,0,0,1,.84-0.327,4.4,4.4,0,0,1,.977-0.106,4.149,4.149,0,0,1,1.034.128,2.556,2.556,0,0,1,.874.4,1.942,1.942,0,0,1,.823,1.659,1.8,1.8,0,0,1-.354,1.12,1.637,1.637,0,0,1-1.029.6v0.033a1.642,1.642,0,0,1,.646.211,1.755,1.755,0,0,1,.474.41,1.807,1.807,0,0,1,.3.555,2.065,2.065,0,0,1,.1.655,2.121,2.121,0,0,1-.863,1.77,2.718,2.718,0,0,1-.926.438,4.281,4.281,0,0,1-1.125.145,3.457,3.457,0,0,1-1.869-.489,2.371,2.371,0,0,1-1.034-1.542l1.806-.411a1.183,1.183,0,0,0,.371.666,1.228,1.228,0,0,0,.829.244,1.091,1.091,0,0,0,.828-0.283,1.013,1.013,0,0,0,.269-0.727,0.823,0.823,0,0,0-.143-0.516,0.858,0.858,0,0,0-.371-0.272,1.693,1.693,0,0,0-.515-0.1c-0.19-.011-0.381-0.017-0.571-0.017h-0.4v-1.442Zm7.417-1.232-1.623,1.387-0.971-1.087,2.64-2.164h1.6v7.856h-1.646v-5.992Z" transform="translate(-829 -181)"/>
</svg>
