<?xml version="1.0" encoding="utf-8"?>
<svg xmlns="http://www.w3.org/2000/svg"
	xmlns:xlink="http://www.w3.org/1999/xlink"
	width="33px" height="32px" viewBox="0 0 33 32">
<filter filterUnits="objectBoundingBox" x="-3.23" y="-3.33" width="109.68" height="110.00" id="filter0">
<feGaussianBlur in="SourceAlpha" stdDeviation="0.50" result="dsBlurOut1"/>
<feFlood flood-color="rgb(51,51,51)" flood-opacity="0.80" result="dsFloodOut1"/>
<feComposite in="dsFloodOut1" in2="dsBlurOut1" operator="in" result="dsShadow1"/>
<feOffset in="dsShadow1" dx="-0.00" dy="1.00" result="dsOffset1"/>
<feComposite in="dsOffset1" in2="SourceAlpha" operator="out" result="dropShadow1"/>
<feBlend in="dropShadow1" in2="SourceGraphic" mode="normal" result="sourceGraphic"/>
</filter>
<path fillRule="evenodd" d="M 4.11 0.04C 4.11 0.04 26.9 0.04 26.9 0.04 28.87 0.04 30.46 1.64 30.46 3.6 30.46 3.6 30.46 26.35 30.46 26.35 30.46 28.32 28.87 29.91 26.9 29.91 26.9 29.91 4.11 29.91 4.11 29.91 2.15 29.91 0.56 28.32 0.56 26.35 0.56 26.35 0.56 3.6 0.56 3.6 0.56 1.64 2.15 0.04 4.11 0.04Z" fill="rgb(25,57,101)" filter="url(#filter0)"/><path fillRule="evenodd" d="M 25.36 17.03C 25.29 17.1 25.19 17.14 25.08 17.14 24.85 17.14 24.67 16.97 24.67 16.75 24.67 16.75 24.67 12.9 24.67 12.9 24.67 12.69 24.85 12.51 25.08 12.51 25.3 12.51 25.48 12.69 25.48 12.9 25.48 12.9 25.48 16.75 25.48 16.75 25.48 16.86 25.44 16.95 25.36 17.03ZM 23.27 23.45C 23.25 23.48 23.23 23.51 23.2 23.54 23.13 23.61 23.02 23.65 22.92 23.65 22.77 23.65 22.63 23.57 22.56 23.45 22.56 23.45 21.55 21.64 21.55 21.64 21.52 21.59 21.5 21.52 21.5 21.45 21.5 21.45 21.5 10.96 21.5 10.96 21.5 10.74 21.68 10.56 21.91 10.56 21.91 10.56 23.93 10.56 23.93 10.56 24.15 10.56 24.33 10.74 24.33 10.96 24.33 10.96 24.33 21.45 24.33 21.45 24.33 21.52 24.31 21.58 24.28 21.64 24.28 21.64 23.27 23.45 23.27 23.45ZM 23.52 11.35C 23.52 11.35 22.31 11.35 22.31 11.35 22.31 11.35 22.31 12.53 22.31 12.53 22.31 12.53 23.52 12.53 23.52 12.53 23.52 12.53 23.52 11.35 23.52 11.35ZM 22.31 13.32C 22.31 13.32 22.31 21.35 22.31 21.35 22.31 21.35 22.92 22.44 22.92 22.44 22.92 22.44 23.52 21.35 23.52 21.35 23.52 21.35 23.52 13.32 23.52 13.32 23.52 13.32 22.31 13.32 22.31 13.32ZM 20.05 23.69C 20.05 23.69 6.03 23.69 6.03 23.69 5.76 23.69 5.53 23.47 5.53 23.2 5.53 23.2 5.53 6.13 5.53 6.13 5.53 5.86 5.76 5.64 6.03 5.64 6.03 5.64 16.02 5.64 16.02 5.64 16.14 5.64 16.26 5.69 16.35 5.77 16.35 5.77 20.52 9.89 20.52 9.89 20.52 9.89 20.55 10.04 20.55 10.04 20.55 10.04 20.55 23.2 20.55 23.2 20.55 23.47 20.32 23.69 20.05 23.69ZM 16.57 7.36C 16.57 7.36 16.65 9.44 16.65 9.44 16.65 9.44 18.79 9.51 18.79 9.51 18.79 9.51 16.57 7.36 16.57 7.36ZM 19.54 10.52C 19.54 10.52 16.14 10.4 16.14 10.4 15.88 10.39 15.67 10.18 15.66 9.93 15.66 9.93 15.54 6.62 15.54 6.62 15.54 6.62 6.54 6.62 6.54 6.62 6.54 6.62 6.54 22.71 6.54 22.71 6.54 22.71 19.54 22.71 19.54 22.71 19.54 22.71 19.54 10.52 19.54 10.52ZM 8.05 10.11C 8.05 10.11 13.6 10.11 13.6 10.11 13.88 10.11 14.1 10.33 14.1 10.6 14.1 10.87 13.88 11.09 13.6 11.09 13.6 11.09 8.05 11.09 8.05 11.09 7.77 11.09 7.55 10.87 7.55 10.6 7.55 10.33 7.77 10.11 8.05 10.11ZM 8.05 12.98C 8.05 12.98 18.14 12.98 18.14 12.98 18.42 12.98 18.64 13.2 18.64 13.47 18.64 13.74 18.42 13.96 18.14 13.96 18.14 13.96 8.05 13.96 8.05 13.96 7.77 13.96 7.55 13.74 7.55 13.47 7.55 13.2 7.77 12.98 8.05 12.98ZM 8.05 15.69C 8.05 15.69 18.14 15.69 18.14 15.69 18.42 15.69 18.64 15.91 18.64 16.17 18.64 16.45 18.42 16.66 18.14 16.66 18.14 16.66 8.05 16.66 8.05 16.66 7.77 16.66 7.55 16.45 7.55 16.17 7.55 15.91 7.77 15.69 8.05 15.69ZM 8.05 18.39C 8.05 18.39 18.14 18.39 18.14 18.39 18.42 18.39 18.64 18.61 18.64 18.88 18.64 19.15 18.42 19.37 18.14 19.37 18.14 19.37 8.05 19.37 8.05 19.37 7.77 19.37 7.55 19.15 7.55 18.88 7.55 18.61 7.77 18.39 8.05 18.39Z" fill="rgb(241,247,253)"/></svg>