<svg xmlns="http://www.w3.org/2000/svg" xmlns:xlink="http://www.w3.org/1999/xlink" width="25" height="25" viewBox="0 0 25 25">
  <defs>
    <style>
      .cls-1 {
        fill: #fff;
        fill-rule: evenodd;
        filter: url(#filter);
      }
    </style>
    <filter id="filter" x="424" y="25" width="25" height="25" filterUnits="userSpaceOnUse">
      <feOffset result="offset" dx="1" dy="1.732" in="SourceAlpha"/>
      <feGaussianBlur result="blur" stdDeviation="1.732"/>
      <feFlood result="flood" flood-color="#666" flood-opacity="0.3"/>
      <feComposite result="composite" operator="in" in2="blur"/>
      <feBlend result="blend" in="SourceGraphic"/>
    </filter>
  </defs>
  <path id="icon_calendar.svg" class="cls-1" d="M447.4,29.313h-3.35v1.393a1.789,1.789,0,0,1-3.577,0V29.313h-4.948v1.393a1.789,1.789,0,0,1-3.577,0V29.313H428.6a0.591,0.591,0,0,0-.6.582V46.418a0.591,0.591,0,0,0,.6.582h18.8a0.591,0.591,0,0,0,.6-0.582V29.895A0.591,0.591,0,0,0,447.4,29.313Zm-0.6,4.75V45.836H429.2V34.063h17.6Zm-13.9-3.358a0.835,0.835,0,0,0,1.669,0V27.811a0.835,0.835,0,0,0-1.669,0v2.895Zm8.525,0a0.835,0.835,0,0,0,1.669,0V27.811a0.835,0.835,0,0,0-1.669,0v2.895Zm-6.31,8.736h0.431a2.511,2.511,0,0,0,.361-0.026,1.038,1.038,0,0,0,.32-0.1,0.586,0.586,0,0,0,.233-0.2,0.611,0.611,0,0,0,.088-0.346,0.557,0.557,0,0,0-.224-0.453,0.852,0.852,0,0,0-.549-0.179,0.788,0.788,0,0,0-.51.162,0.741,0.741,0,0,0-.264.4l-1.45-.29a1.919,1.919,0,0,1,.316-0.67,1.736,1.736,0,0,1,.5-0.448,2.265,2.265,0,0,1,.646-0.252,3.386,3.386,0,0,1,.752-0.081,3.192,3.192,0,0,1,.8.1,1.989,1.989,0,0,1,.673.307,1.5,1.5,0,0,1,.633,1.276,1.381,1.381,0,0,1-.273.862,1.253,1.253,0,0,1-.791.461v0.026a1.258,1.258,0,0,1,.5.162,1.344,1.344,0,0,1,.365.316,1.389,1.389,0,0,1,.228.427,1.586,1.586,0,0,1,.079.5,1.634,1.634,0,0,1-.663,1.361,2.106,2.106,0,0,1-.712.337,3.3,3.3,0,0,1-.866.111,2.657,2.657,0,0,1-1.437-.376,1.821,1.821,0,0,1-.8-1.186l1.389-.316a0.911,0.911,0,0,0,.286.512,0.942,0.942,0,0,0,.637.188,0.841,0.841,0,0,0,.637-0.218,0.778,0.778,0,0,0,.207-0.559,0.634,0.634,0,0,0-.11-0.4,0.662,0.662,0,0,0-.286-0.209,1.294,1.294,0,0,0-.4-0.081c-0.147-.009-0.294-0.013-0.44-0.013h-0.308v-1.11Zm5.706-.947-1.248,1.067-0.747-.837,2.03-1.665h1.231V43.1h-1.266v-4.61Z" transform="translate(-424 -25)"/>
</svg>
