<svg xmlns="http://www.w3.org/2000/svg" width="26" height="16" viewBox="0 0 26 16">
  <defs>
    <style>
      .cls-1 {
        fill: #193a66;
        fill-rule: evenodd;
      }
    </style>
  </defs>
  <path id="icon_mail.svg" class="cls-1" d="M990.986,136.531a0.612,0.612,0,0,0-.03-0.121,0.43,0.43,0,0,0-.054-0.1,0.354,0.354,0,0,0-.059-0.09,0.368,0.368,0,0,0-.04-0.038,0.781,0.781,0,0,0-.092-0.068,0.486,0.486,0,0,0-.1-0.056,0.629,0.629,0,0,0-.112-0.034,0.748,0.748,0,0,0-.109-0.02,0.338,0.338,0,0,0-.053,0H965.655a0.375,0.375,0,0,0-.056,0,0.7,0.7,0,0,0-.116.023,0.476,0.476,0,0,0-.1.032,0.648,0.648,0,0,0-.105.063,0.748,0.748,0,0,0-.08.06,0.263,0.263,0,0,0-.038.036,0.325,0.325,0,0,0-.055.08,0.639,0.639,0,0,0-.061.113,0.385,0.385,0,0,0-.025.1,0.5,0.5,0,0,0-.017.108v14.75a0.136,0.136,0,0,0,.011.076,0.545,0.545,0,0,0,.028.127,0.408,0.408,0,0,0,.047.093,0.351,0.351,0,0,0,.052.088,0.43,0.43,0,0,0,.048.047,0.618,0.618,0,0,0,.121.091,0.533,0.533,0,0,0,.08.046,0.68,0.68,0,0,0,.271.057h24.686a0.688,0.688,0,0,0,.272-0.057,0.419,0.419,0,0,0,.062-0.036,0.659,0.659,0,0,0,.138-0.1,0.282,0.282,0,0,0,.046-0.045,0.167,0.167,0,0,0,.04-0.065,0.548,0.548,0,0,0,.061-0.119,0.357,0.357,0,0,0,.023-0.1,0.451,0.451,0,0,0,.016-0.1v-14.75A0.333,0.333,0,0,0,990.986,136.531Zm-1.3,1.445v12.116l-7.816-5.811ZM978,145.762l-10.552-8.513h21.1Zm-2.845-.655,2.418,1.95a0.7,0.7,0,0,0,.853,0l2.419-1.951,7.591,5.644H967.562Zm-1.024-.826-7.816,5.811V137.976Zm16.292-7.973h0Zm-24.87.006h0Z" transform="translate(-965 -136)"/>
</svg>
